{"glyphs":{"0":{"ha":656,"x_min":33,"x_max":624,"o":"m 152 434 q 199 159 152 271 q 321 47 247 47 q 456 160 408 47 q 505 441 505 273 q 457 710 505 602 q 335 818 410 818 q 202 708 252 818 q 152 434 152 598 m 33 433 q 113 743 33 617 q 328 869 193 869 q 545 744 465 869 q 624 433 624 618 q 544 122 624 248 q 328 -4 464 -4 q 113 123 194 -4 q 33 433 33 250 z "},"1":{"ha":656,"x_min":153,"x_max":503,"o":"m 178 673 q 161 688 170 677 q 153 707 153 700 q 156 715 153 712 q 391 871 385 871 l 393 871 q 410 845 404 871 q 396 718 396 800 l 396 183 q 407 62 396 104 q 447 44 410 53 q 498 35 484 35 q 503 11 503 35 q 502 -4 503 -1 q 338 3 366 3 q 180 -4 316 3 q 175 18 175 1 q 180 35 175 35 q 235 44 198 35 q 275 62 273 53 q 283 140 283 95 l 283 628 q 281 688 283 667 q 275 713 278 708 q 264 718 271 718 q 241 709 256 718 q 205 689 225 701 q 178 673 184 677 z "},"2":{"ha":656,"x_min":66,"x_max":590,"o":"m 347 871 q 490 803 438 871 q 543 650 543 735 q 526 546 543 600 q 473 437 509 492 q 408 340 437 381 q 327 244 378 298 q 256 170 275 190 q 193 107 236 149 q 195 98 189 100 l 457 98 q 512 119 495 98 q 547 202 529 141 q 566 217 552 217 q 590 212 583 217 q 553 22 557 49 q 526 0 551 0 l 81 0 q 71 16 76 0 q 66 41 66 31 q 320 351 214 190 q 426 623 426 511 q 389 736 426 696 q 293 776 353 776 q 113 663 180 776 q 96 672 104 663 q 87 685 87 681 q 109 729 91 701 q 158 790 127 757 q 239 847 189 823 q 347 871 290 871 z "},"3":{"ha":658,"x_min":76,"x_max":582,"o":"m 339 871 q 451 823 397 871 q 505 697 505 774 q 475 596 505 637 q 392 514 446 555 q 523 429 464 488 q 582 279 582 369 q 491 72 582 151 q 266 -7 400 -7 q 90 34 151 -7 q 76 73 76 43 q 126 137 76 137 q 151 127 138 137 q 180 100 164 117 q 206 76 195 84 q 309 47 245 47 q 417 94 369 47 q 465 244 465 141 q 414 380 465 324 q 293 435 362 435 q 205 426 243 435 q 195 461 195 438 q 198 475 195 471 q 347 540 292 491 q 403 673 403 589 q 367 755 403 719 q 285 791 331 791 q 230 781 255 791 q 192 760 205 770 q 167 736 179 749 q 153 722 155 723 q 142 734 148 722 q 137 757 137 747 q 220 841 174 811 q 339 871 266 871 z "},"4":{"ha":654,"x_min":45,"x_max":610,"o":"m 487 875 q 505 861 505 875 l 505 315 l 589 315 q 610 250 610 315 q 602 236 610 241 q 505 236 602 236 l 505 -1 q 448 -8 500 -8 q 397 3 397 -8 l 397 236 l 54 236 q 45 278 45 248 l 456 859 q 487 875 468 875 m 397 315 l 397 675 q 391 688 397 688 q 389 685 391 686 l 142 331 q 141 327 141 330 q 151 315 141 315 l 397 315 z "},"5":{"ha":658,"x_min":77,"x_max":581,"o":"m 189 845 q 507 864 456 853 q 514 836 514 854 q 506 761 514 802 q 353 746 471 750 l 235 741 q 225 730 228 739 q 186 513 210 655 q 313 530 231 530 q 501 456 422 530 q 581 279 581 381 q 493 74 581 155 q 273 -7 406 -7 q 91 34 152 -7 q 77 73 77 43 q 127 137 77 137 q 153 127 140 137 q 181 100 165 117 q 208 76 197 84 q 316 47 247 47 q 418 96 373 47 q 464 244 464 144 q 454 311 464 279 q 424 372 445 342 q 362 420 403 403 q 266 438 321 438 q 148 423 195 438 q 123 442 137 429 l 189 845 z "},"6":{"ha":656,"x_min":60,"x_max":597,"o":"m 176 285 q 222 117 176 190 q 335 45 267 45 q 439 97 395 45 q 484 236 484 149 q 440 388 484 328 q 311 448 396 448 q 240 428 274 448 q 197 387 206 408 q 176 285 178 343 m 319 -8 q 133 79 206 -8 q 60 282 60 167 q 102 486 60 388 q 215 657 144 583 q 368 786 286 731 q 543 878 450 841 q 562 863 551 878 q 574 841 574 848 q 341 696 437 781 q 209 477 245 612 q 210 464 206 464 q 214 467 213 465 q 283 499 233 481 q 373 517 332 517 q 532 437 468 517 q 597 264 597 358 q 513 72 597 152 q 319 -8 429 -8 z "},"7":{"ha":655,"x_min":49,"x_max":605,"o":"m 180 750 q 139 731 157 750 q 113 693 121 712 q 95 643 104 674 q 76 636 94 637 q 49 639 58 635 q 68 729 52 651 q 91 842 85 807 q 113 859 92 859 l 505 859 q 560 861 526 859 q 595 863 594 863 q 605 850 605 863 q 600 829 605 842 q 583 793 594 817 q 566 760 571 770 l 209 -4 q 194 -8 205 -8 q 163 6 179 -8 q 146 30 146 20 l 507 750 l 180 750 z "},"8":{"ha":656,"x_min":72,"x_max":583,"o":"m 327 37 q 434 77 395 37 q 473 187 473 118 q 450 265 473 227 q 392 334 427 304 q 337 377 357 363 q 300 400 317 391 q 292 403 294 403 q 286 401 288 403 q 204 322 229 366 q 179 213 179 278 q 224 85 179 134 q 327 37 269 37 m 327 825 q 243 781 277 825 q 210 667 210 738 q 351 494 210 575 q 359 491 357 491 q 368 494 363 491 q 460 659 460 555 q 422 774 460 723 q 327 825 385 825 m 335 872 q 493 816 429 872 q 557 666 557 760 q 406 467 557 563 q 406 458 396 464 q 530 356 476 418 q 583 227 583 294 q 505 57 583 126 q 324 -12 427 -12 q 142 49 212 -12 q 72 209 72 110 q 76 243 72 227 q 85 274 80 260 q 100 303 90 288 q 119 329 111 319 q 141 353 126 339 q 163 372 156 366 q 187 391 170 378 q 210 406 205 403 q 231 420 214 410 l 248 431 q 248 439 255 435 q 153 527 195 471 q 110 651 110 583 q 178 805 110 738 q 335 872 245 872 z "},"9":{"ha":656,"x_min":61,"x_max":595,"o":"m 479 585 q 433 753 479 681 q 316 825 388 825 q 216 770 258 825 q 174 628 174 716 q 218 481 174 540 q 346 422 263 422 q 416 441 382 422 q 460 483 450 461 q 479 585 477 524 m 338 878 q 522 790 449 878 q 595 587 595 703 q 552 380 595 481 q 440 204 509 279 q 295 74 372 129 q 142 -8 218 19 q 123 8 134 -8 q 113 31 113 24 q 313 165 217 72 q 446 392 410 258 q 445 406 449 406 q 441 403 442 404 q 378 370 426 385 q 294 355 331 355 q 129 429 197 355 q 61 604 61 502 q 144 797 61 716 q 338 878 228 878 z "}," ":{"ha":311,"x_min":0,"x_max":0,"o":""},"!":{"ha":380,"x_min":111,"x_max":267,"o":"m 193 871 q 238 846 222 871 q 254 785 254 821 q 248 713 254 772 q 231 527 241 655 q 212 245 221 399 q 205 218 210 225 q 179 201 199 210 q 168 208 172 198 q 161 231 163 217 q 140 536 151 407 q 126 711 130 666 q 122 785 122 757 q 142 845 122 819 q 193 871 161 871 m 134 5 q 123 17 134 5 q 111 61 111 28 q 134 116 111 94 q 190 138 157 138 q 245 116 222 138 q 267 61 267 94 q 245 5 267 28 q 190 -19 222 -19 q 134 5 157 -19 z "},"\"":{"ha":472,"x_min":57,"x_max":412,"o":"m 132 947 l 151 947 q 181 930 171 947 q 191 859 191 913 q 172 734 191 818 q 149 609 153 650 q 127 589 146 589 q 103 606 106 589 q 77 753 96 670 q 57 861 57 836 q 82 914 57 882 q 132 947 107 947 m 353 947 l 373 947 q 402 930 392 947 q 412 859 412 913 q 392 734 412 818 q 368 609 372 651 q 346 589 366 589 q 326 606 328 589 q 299 753 319 670 q 279 861 279 836 q 304 915 279 883 q 353 947 328 947 z "},"#":{"ha":646,"x_min":33,"x_max":602,"o":"m 408 33 q 404 27 408 33 q 368 20 396 20 l 350 20 q 337 24 342 20 q 332 30 332 27 l 332 33 l 362 237 l 235 237 l 205 33 q 203 30 205 31 q 201 27 202 28 q 199 25 201 26 q 193 24 197 24 q 186 22 190 23 q 176 21 182 22 q 163 20 170 20 l 145 20 q 132 24 137 20 q 127 30 127 27 l 126 33 l 157 237 l 41 237 q 33 251 33 237 q 43 307 33 270 q 47 312 45 311 q 52 313 49 313 l 53 313 l 170 313 l 186 430 l 41 430 q 33 445 33 431 q 43 500 33 464 q 47 506 45 505 q 52 507 49 507 l 53 507 l 198 507 l 231 719 q 294 731 243 731 q 306 728 302 731 q 309 722 309 724 l 308 719 l 277 507 l 404 507 l 437 719 q 500 731 449 731 q 512 728 509 731 q 515 722 515 724 l 514 719 l 481 507 l 593 507 q 595 508 594 507 q 600 506 597 509 q 602 498 602 503 q 590 439 602 479 l 582 430 l 469 430 l 452 313 l 593 313 q 595 314 594 313 q 600 312 597 315 q 602 304 602 309 q 590 245 602 285 q 587 239 589 241 q 583 237 585 237 l 582 237 l 441 237 l 408 33 m 376 313 l 392 430 l 264 430 l 247 313 l 376 313 z "},"$":{"ha":666,"x_min":61,"x_max":604,"o":"m 385 926 q 433 917 433 926 l 270 -71 q 222 -58 222 -71 l 385 926 m 332 873 q 403 867 363 873 q 481 852 442 861 q 529 842 521 844 q 544 656 544 720 q 534 646 544 646 q 499 661 500 648 q 446 762 492 708 q 326 817 399 817 q 178 685 178 817 q 218 583 178 623 q 342 496 258 544 q 386 471 349 492 q 433 444 423 450 q 475 418 444 438 q 518 387 507 397 q 551 355 529 376 q 581 317 572 334 q 596 277 589 300 q 604 231 604 255 q 521 58 604 126 q 327 -11 438 -11 q 99 20 273 -11 q 61 225 66 107 q 85 236 61 236 q 115 225 104 236 q 330 42 164 42 q 444 81 396 42 q 491 191 491 121 q 481 244 491 220 q 463 282 471 269 q 428 315 454 296 q 395 338 401 334 q 355 358 388 342 q 343 365 347 362 q 140 495 205 437 q 75 642 75 553 q 152 807 75 741 q 332 873 229 873 z "},"%":{"ha":922,"x_min":66,"x_max":860,"o":"m 264 842 q 181 791 209 842 q 153 673 153 741 q 191 537 153 600 q 278 475 229 475 q 356 525 332 475 q 380 646 380 575 q 348 781 380 720 q 264 842 316 842 m 270 875 q 413 811 357 875 q 469 656 469 747 q 414 506 469 571 q 270 441 358 441 q 126 504 186 441 q 66 656 66 567 q 123 812 66 749 q 270 875 180 875 m 656 392 q 572 341 601 392 q 544 222 544 290 q 582 87 544 151 q 670 24 620 24 q 747 75 724 24 q 770 195 770 125 q 739 331 770 270 q 656 392 707 392 m 662 425 q 804 361 749 425 q 860 206 860 297 q 805 55 860 119 q 661 -9 750 -9 q 517 54 576 -9 q 457 206 457 117 q 515 361 457 298 q 662 425 572 425 m 823 846 l 168 0 q 123 -16 155 -16 q 99 -1 106 -16 l 753 846 q 780 863 766 863 q 802 861 795 863 q 812 859 810 860 q 817 854 814 859 q 823 846 821 849 z "},"&":{"ha":910,"x_min":73,"x_max":895,"o":"m 552 129 q 457 243 513 168 q 366 372 401 317 l 330 426 q 258 374 281 392 q 212 317 235 355 q 190 233 190 279 q 245 99 190 144 q 382 54 301 54 q 473 75 425 54 q 552 129 521 95 m 426 841 q 350 812 381 841 q 319 736 319 783 q 389 522 319 650 q 492 604 460 563 q 524 719 524 646 q 496 804 524 768 q 426 841 469 841 m 419 890 q 563 850 510 890 q 616 738 616 810 q 563 597 616 655 q 414 479 510 538 q 614 209 492 346 q 670 308 648 260 q 692 368 692 355 q 679 385 692 380 q 650 390 666 389 q 631 392 633 391 q 628 408 628 397 q 632 423 628 419 l 739 423 q 782 425 760 423 q 835 427 804 426 q 888 430 865 429 q 895 412 895 426 q 887 392 895 392 q 837 384 869 392 q 793 369 804 376 q 774 338 792 368 q 723 259 757 309 q 652 167 689 209 q 696 122 684 134 q 728 92 708 110 q 761 67 749 73 q 785 61 773 61 q 827 84 804 61 q 856 123 849 107 q 877 115 867 123 q 887 99 887 107 q 875 77 882 88 q 851 46 868 66 q 805 13 834 26 q 739 0 776 0 q 665 24 704 0 q 605 73 625 49 l 583 98 q 336 -4 467 -4 q 144 54 216 -4 q 73 214 73 113 q 133 361 73 302 q 298 475 193 420 q 260 545 273 518 q 233 616 247 571 q 220 704 220 661 q 277 836 220 781 q 419 890 334 890 z "},"'":{"ha":252,"x_min":57,"x_max":191,"o":"m 130 947 l 151 947 q 181 930 171 947 q 191 859 191 913 q 170 734 191 818 q 145 609 149 651 q 123 589 144 589 q 103 606 106 589 q 77 753 96 670 q 57 861 57 836 q 81 915 57 883 q 130 947 106 947 z "},"(":{"ha":438,"x_min":96,"x_max":376,"o":"m 184 414 q 253 60 184 222 q 373 -129 321 -103 q 376 -136 376 -130 q 370 -154 376 -144 q 357 -164 363 -164 q 285 -118 328 -164 q 199 2 241 -72 q 126 188 156 76 q 96 414 96 300 q 124 650 96 534 q 192 842 152 765 q 277 967 232 920 q 357 1015 321 1015 q 369 1002 363 1015 q 374 982 374 990 q 373 978 374 978 q 245 778 305 945 q 184 414 184 610 z "},")":{"ha":437,"x_min":61,"x_max":340,"o":"m 252 414 q 192 778 252 610 q 64 978 132 945 q 62 982 62 978 q 68 1002 62 990 q 80 1015 73 1015 q 160 967 115 1015 q 245 842 205 920 q 313 650 285 765 q 340 414 340 534 q 311 188 340 300 q 238 2 281 76 q 152 -118 195 -72 q 80 -164 109 -164 q 67 -154 73 -164 q 61 -136 61 -144 q 64 -129 61 -130 q 184 60 115 -103 q 252 414 252 222 z "},"*":{"ha":602,"x_min":56,"x_max":544,"o":"m 416 831 q 455 857 434 852 q 492 848 476 863 q 506 810 509 831 q 484 772 503 789 q 416 726 460 750 q 353 685 372 703 l 346 666 q 359 652 347 656 q 427 633 381 642 q 505 612 473 625 q 541 583 529 601 q 544 545 553 564 q 513 521 534 525 q 469 529 491 517 q 404 580 439 545 q 346 627 368 614 l 327 631 q 319 613 321 628 q 322 543 316 589 q 324 463 328 496 q 307 419 321 435 q 273 406 293 403 q 240 427 251 408 q 235 471 229 445 q 264 550 241 505 q 290 620 286 595 q 286 637 292 632 q 269 642 281 644 q 203 616 245 636 q 126 589 161 595 q 79 591 100 583 q 56 620 58 600 q 66 658 52 642 q 107 677 81 674 q 191 674 141 681 q 264 670 240 667 q 279 681 277 674 q 277 700 283 689 q 233 755 264 720 q 183 819 201 789 q 191 895 153 873 q 260 864 235 917 q 283 784 274 833 q 302 712 292 735 q 316 697 309 699 q 334 705 324 696 q 372 764 350 723 q 416 831 393 806 z "},"+":{"ha":789,"x_min":71,"x_max":720,"o":"m 433 292 l 433 31 q 372 9 433 18 q 367 9 369 9 q 363 8 365 8 q 357 19 357 8 l 357 289 q 349 296 357 296 l 79 296 q 71 309 71 296 q 81 365 71 328 q 85 370 83 369 q 90 372 87 372 l 91 372 l 350 372 q 357 380 357 372 l 357 637 q 363 647 355 644 q 419 658 400 658 l 433 650 l 433 378 q 438 372 433 372 l 709 372 q 720 365 720 372 q 707 304 720 354 q 703 298 705 300 q 700 296 701 296 l 697 296 l 438 296 q 433 292 433 296 z "},",":{"ha":324,"x_min":60,"x_max":267,"o":"m 160 -19 q 140 47 160 5 q 119 103 119 90 q 149 154 119 133 q 217 175 179 175 q 250 170 235 175 q 267 83 267 144 q 264 47 267 57 q 212 -96 245 -41 q 92 -221 178 -151 l 91 -221 q 73 -210 85 -221 q 60 -191 60 -199 q 75 -174 60 -189 q 110 -141 91 -160 q 144 -88 129 -122 q 160 -19 160 -54 z "},"-":{"ha":509,"x_min":79,"x_max":433,"o":"m 79 285 q 95 354 79 354 l 96 354 l 423 370 l 425 370 q 433 358 433 370 q 428 310 433 328 q 419 288 423 292 l 415 285 l 88 270 q 85 270 87 270 q 81 274 84 270 q 79 285 79 278 z "},".":{"ha":316,"x_min":80,"x_max":237,"o":"m 104 5 q 92 17 104 5 q 80 61 80 28 q 104 116 80 94 q 160 138 127 138 q 215 116 193 138 q 237 61 237 94 q 215 5 237 28 q 160 -19 193 -19 q 104 5 127 -19 z "},"/":{"ha":575,"x_min":34,"x_max":530,"o":"m 530 1024 l 129 -16 q 108 -37 126 -26 q 58 -47 90 -47 q 43 -45 49 -47 q 35 -41 37 -43 l 34 -38 l 435 1002 q 502 1032 449 1032 q 530 1024 514 1032 z "},":":{"ha":320,"x_min":81,"x_max":243,"o":"m 220 560 q 231 549 220 560 q 243 503 243 537 q 220 445 243 469 q 163 420 197 420 q 105 445 129 420 q 81 503 81 469 q 105 560 81 537 q 163 583 129 583 q 220 560 197 583 m 220 120 q 231 108 220 120 q 243 62 243 96 q 220 5 243 28 q 163 -19 197 -19 q 105 5 129 -19 q 81 62 81 28 q 105 120 81 96 q 163 144 129 144 q 220 120 197 144 z "},";":{"ha":331,"x_min":61,"x_max":274,"o":"m 266 53 q 252 -45 266 -4 q 203 -127 237 -90 q 99 -224 168 -165 q 90 -227 94 -227 q 71 -212 80 -227 q 61 -190 61 -197 q 86 -167 61 -187 q 136 -107 111 -146 q 160 -19 160 -68 q 142 54 160 20 q 123 92 123 87 q 153 144 123 119 q 218 168 182 168 q 243 159 231 168 q 266 53 266 137 m 136 445 q 123 457 136 445 q 111 503 111 469 q 136 560 111 537 q 194 583 160 583 q 251 560 228 583 q 274 503 274 537 q 251 445 274 469 q 194 420 228 420 q 136 445 160 420 z "},"<":{"ha":726,"x_min":83,"x_max":644,"o":"m 644 47 q 636 9 644 38 q 623 -20 628 -20 q 616 -18 621 -20 l 107 240 q 83 294 83 254 q 107 327 83 315 l 608 581 q 614 583 613 583 q 637 519 625 583 l 633 507 l 191 283 l 640 56 q 644 47 644 54 z "},"=":{"ha":774,"x_min":71,"x_max":705,"o":"m 705 228 q 692 167 705 217 q 688 161 690 163 q 685 159 686 159 l 684 159 l 80 159 q 71 172 71 159 q 83 228 71 186 q 86 233 84 232 q 90 235 88 235 l 92 235 l 694 235 q 705 228 705 235 m 71 365 q 91 427 77 427 l 700 427 q 705 420 705 427 q 692 359 705 410 q 688 353 690 355 q 685 351 686 351 l 684 351 l 80 351 q 71 365 71 351 z "},">":{"ha":726,"x_min":83,"x_max":644,"o":"m 91 518 q 100 559 91 536 q 113 583 109 583 q 119 581 114 583 l 621 327 q 644 294 644 315 q 621 240 644 252 l 113 -18 q 106 -20 107 -20 q 92 9 100 -20 q 83 47 83 38 l 87 56 l 536 283 l 95 507 q 91 518 91 509 z "},"?":{"ha":496,"x_min":80,"x_max":433,"o":"m 152 757 q 109 769 130 757 q 88 811 88 781 q 98 857 88 842 q 165 871 125 871 q 340 799 247 871 q 433 620 433 727 q 402 503 433 549 q 296 412 372 456 q 231 368 267 396 q 190 328 195 339 q 176 235 176 304 q 149 217 176 217 q 132 228 132 217 q 131 291 132 245 q 130 355 130 336 q 132 386 130 372 q 140 413 134 400 q 149 435 145 426 q 163 456 152 445 q 177 472 174 467 q 195 487 180 477 q 212 499 209 496 q 230 512 214 502 q 247 522 245 522 q 295 553 281 544 q 330 580 309 563 q 357 612 350 597 q 365 646 365 628 q 332 735 365 704 q 255 766 298 766 q 190 762 214 766 q 152 757 165 757 m 103 5 q 92 17 103 5 q 80 61 80 28 q 103 116 80 94 q 159 138 126 138 q 214 116 191 138 q 237 61 237 94 q 214 5 237 28 q 159 -19 191 -19 q 103 5 126 -19 z "},"@":{"ha":1111,"x_min":71,"x_max":1057,"o":"m 990 290 q 882 591 990 465 q 605 716 774 716 q 284 597 418 716 q 151 302 151 479 q 271 -41 151 90 q 636 -171 392 -171 q 660 -168 647 -171 q 685 -161 673 -165 q 707 -152 697 -156 q 724 -144 718 -148 l 732 -141 q 735 -155 735 -153 q 688 -207 735 -182 q 562 -232 642 -232 q 362 -187 456 -232 q 205 -73 269 -142 q 106 83 142 -3 q 71 251 71 168 q 228 639 71 495 q 620 783 385 783 q 802 740 718 783 q 941 629 886 697 q 1026 479 996 562 q 1057 316 1057 397 q 1034 154 1057 222 q 972 50 1010 85 q 894 -1 935 15 q 810 -18 853 -18 q 701 30 745 -18 q 658 125 658 77 q 655 125 658 126 q 651 122 652 123 q 566 38 629 85 q 454 -9 502 -9 q 345 52 384 -9 q 307 191 307 114 q 407 446 307 336 q 680 556 507 556 l 800 544 l 791 472 l 757 170 q 754 132 754 142 q 822 37 754 37 q 905 65 869 37 q 958 137 940 94 q 983 219 975 180 q 990 290 990 258 m 686 453 q 684 470 686 464 q 665 481 681 476 q 617 487 648 487 q 471 409 530 487 q 412 194 412 331 q 437 101 412 130 q 492 72 461 72 q 604 135 545 72 q 665 231 662 198 l 685 437 q 686 453 686 445 z "},"A":{"ha":928,"x_min":27,"x_max":903,"o":"m 495 895 l 766 179 q 806 81 791 115 q 848 48 814 61 q 898 35 882 35 q 903 9 903 35 q 901 -4 903 4 q 751 3 765 3 q 594 -4 750 3 q 589 18 589 1 q 595 35 590 35 q 636 42 612 35 q 665 60 661 49 q 667 81 667 71 q 663 123 667 99 q 654 160 658 146 l 648 175 l 593 328 q 585 334 589 334 q 481 338 532 338 q 309 331 411 338 l 302 327 l 244 178 q 221 84 221 110 q 232 57 221 65 q 271 41 244 47 q 311 35 298 35 q 315 19 315 35 q 313 -4 316 3 q 174 3 178 3 q 126 1 146 3 q 81 -1 106 0 q 33 -4 56 -3 q 27 16 27 1 q 33 35 27 35 q 75 42 49 35 q 110 61 100 49 q 174 189 138 98 l 410 795 q 417 817 412 802 q 425 839 422 831 q 433 858 427 846 q 442 875 438 869 q 452 887 446 880 q 466 897 458 894 q 483 899 473 899 l 495 895 m 338 406 q 434 403 408 403 q 557 407 494 403 l 562 414 l 452 713 l 335 411 q 338 406 335 406 z "},"B":{"ha":803,"x_min":49,"x_max":749,"o":"m 620 239 q 562 387 620 326 q 378 449 503 449 q 281 444 349 449 q 275 399 275 427 l 275 201 q 297 80 275 98 q 370 61 317 61 q 437 66 404 61 q 517 87 471 72 q 591 142 563 103 q 620 239 620 180 m 157 194 l 157 707 q 148 823 157 787 q 108 844 144 834 q 54 853 72 853 q 49 869 49 853 q 54 892 49 887 q 216 890 125 890 q 329 890 285 890 q 407 891 373 891 q 479 885 442 891 q 554 863 515 879 q 623 822 593 846 q 671 758 652 798 q 690 669 690 718 q 659 578 690 620 q 602 519 628 536 q 556 496 575 503 q 549 488 545 492 q 675 412 602 479 q 749 254 749 345 q 654 68 749 137 q 404 0 560 0 l 218 0 l 54 -4 q 50 18 50 0 q 54 35 50 35 q 106 45 72 35 q 148 66 141 54 q 157 194 157 83 m 441 510 q 534 549 496 515 q 571 637 571 582 q 524 783 571 731 q 385 836 477 836 q 289 826 323 836 q 281 814 281 825 l 275 677 l 275 515 q 365 506 275 506 q 441 510 408 506 z "},"C":{"ha":890,"x_min":60,"x_max":860,"o":"m 860 248 q 841 144 860 233 q 814 52 822 56 q 490 -8 715 -8 q 185 123 311 -8 q 60 437 60 255 q 189 767 60 629 q 505 905 317 905 q 834 871 665 905 q 831 675 831 689 q 803 655 831 655 q 785 662 789 655 q 775 698 781 680 q 749 745 769 716 q 702 795 730 774 q 623 832 674 817 q 509 848 572 848 q 282 730 376 848 q 189 465 189 613 q 227 263 189 355 q 347 111 264 171 q 541 50 429 50 q 749 129 675 50 q 782 182 768 149 q 804 238 796 216 q 815 260 811 260 q 835 258 823 260 q 853 252 846 255 l 860 248 z "},"D":{"ha":979,"x_min":46,"x_max":917,"o":"m 213 890 q 344 891 264 890 q 449 892 423 892 q 793 762 670 892 q 917 456 917 632 q 792 127 917 259 q 448 -4 667 -4 q 351 -1 431 -4 q 216 0 270 1 l 52 -4 q 47 16 47 0 q 52 35 47 35 q 104 45 69 35 q 145 66 138 54 q 155 194 155 83 l 155 707 q 145 823 155 787 q 105 844 141 834 q 52 853 69 853 q 46 869 46 853 q 52 892 46 887 q 213 890 122 890 m 273 726 l 273 189 q 293 85 273 132 q 366 65 298 72 q 469 58 433 58 q 781 461 781 58 q 699 724 781 616 q 460 833 617 833 l 453 833 q 290 811 307 833 q 273 726 273 787 z "},"E":{"ha":774,"x_min":39,"x_max":745,"o":"m 206 890 q 418 895 267 890 q 644 901 568 901 q 665 797 650 861 q 684 716 681 732 q 659 709 677 709 q 640 719 642 709 q 583 814 620 793 q 483 836 547 836 l 392 836 q 273 818 275 836 q 266 704 266 785 l 266 487 q 324 479 266 479 l 396 479 q 451 479 434 479 q 487 484 468 479 q 511 491 506 490 q 526 509 517 492 q 536 532 534 525 q 545 571 537 540 q 566 581 547 581 q 589 574 582 581 l 589 317 q 567 312 583 312 q 545 323 549 312 q 529 378 536 359 q 519 399 522 396 q 507 408 515 403 q 363 419 490 419 q 266 407 266 419 l 266 197 q 278 73 266 109 q 370 60 282 60 l 435 60 q 606 83 562 60 q 652 131 627 94 q 692 220 677 168 q 711 228 694 228 q 745 220 736 228 q 724 163 738 202 q 701 101 709 125 q 684 46 693 77 q 671 -5 674 15 q 453 -3 602 -5 q 209 0 304 0 l 45 -4 q 41 18 41 0 q 45 35 41 35 q 97 45 62 35 q 138 66 132 54 q 148 194 148 83 l 148 707 q 138 823 148 787 q 98 844 134 834 q 45 853 62 853 q 39 869 39 853 q 45 892 39 887 q 206 890 115 890 z "},"F":{"ha":747,"x_min":54,"x_max":699,"o":"m 221 890 q 433 895 282 890 q 659 901 583 901 q 680 797 665 861 q 699 716 696 732 q 674 709 692 709 q 655 719 656 709 q 598 814 635 793 q 498 836 562 836 l 407 836 q 288 818 290 836 q 281 704 281 785 l 281 483 q 338 475 281 475 l 410 475 q 521 488 500 475 q 556 562 541 500 q 559 574 557 570 q 579 583 560 583 q 602 576 595 583 l 602 313 q 581 308 597 308 q 559 319 563 308 q 543 374 549 355 q 532 395 536 392 q 521 404 529 399 q 377 415 503 415 q 281 403 281 415 l 281 189 q 293 62 281 110 q 331 44 296 53 q 380 35 366 35 q 385 15 385 35 q 382 -4 385 4 q 225 3 247 3 q 62 -4 218 3 q 57 16 57 1 q 62 35 57 35 q 115 43 80 35 q 153 62 149 52 q 163 184 163 99 l 163 707 q 153 823 163 787 q 113 844 149 834 q 60 853 77 853 q 54 869 54 853 q 60 892 54 887 q 221 890 130 890 z "},"G":{"ha":970,"x_min":60,"x_max":937,"o":"m 60 437 q 189 767 60 629 q 505 905 317 905 q 826 844 601 905 q 831 675 831 689 q 803 655 831 655 q 785 662 789 655 q 509 848 749 848 q 282 732 373 848 q 191 454 191 617 q 291 177 191 304 q 541 50 391 50 q 718 80 661 50 q 727 100 727 84 l 726 212 l 726 221 q 715 338 726 309 q 671 359 709 351 q 610 368 632 368 q 605 385 605 368 q 610 407 605 401 q 788 400 784 400 q 935 407 799 400 q 937 388 937 399 q 932 368 937 368 q 895 359 924 368 q 853 343 865 350 q 840 252 840 334 q 842 191 840 224 q 844 155 844 157 q 853 107 844 130 q 863 80 863 84 q 829 56 863 69 q 802 45 826 54 q 772 34 779 37 q 741 24 765 31 q 703 14 718 16 q 663 5 689 11 q 612 -2 636 0 q 557 -6 589 -4 q 490 -8 525 -8 q 185 123 311 -8 q 60 437 60 255 z "},"H":{"ha":959,"x_min":52,"x_max":909,"o":"m 688 183 l 688 422 q 685 427 688 422 q 484 430 557 430 q 275 423 275 430 l 275 189 q 288 62 275 110 q 326 44 290 53 q 374 35 361 35 q 379 19 378 35 q 377 -4 380 3 q 220 3 241 3 q 57 -4 213 3 q 52 16 52 1 q 57 35 52 35 q 109 43 75 35 q 148 62 144 52 q 157 183 157 99 l 157 709 q 148 830 157 793 q 109 850 144 841 q 57 859 75 859 q 52 876 52 859 q 57 898 52 892 q 129 893 75 897 q 220 890 183 890 q 273 891 247 890 q 328 895 298 892 q 377 898 358 897 q 379 876 380 892 q 374 859 378 859 q 326 849 361 859 q 288 830 290 840 q 275 704 275 783 l 275 502 l 278 498 q 484 495 411 495 q 685 498 563 495 q 688 503 688 500 l 688 709 q 678 830 688 793 q 640 850 674 841 q 587 859 605 859 q 582 876 582 859 q 587 898 582 892 q 659 893 604 897 q 751 890 715 890 q 803 891 777 890 q 858 895 829 892 q 906 898 887 897 q 909 878 909 890 q 903 859 909 859 q 854 849 890 859 q 817 830 819 840 q 806 704 806 788 l 806 189 q 817 62 806 104 q 854 44 819 53 q 903 35 890 35 q 909 15 909 35 q 906 -4 909 4 q 751 3 770 3 q 587 -4 743 3 q 582 18 582 1 q 587 35 582 35 q 640 43 605 35 q 678 62 674 52 q 688 183 688 99 z "},"I":{"ha":431,"x_min":52,"x_max":380,"o":"m 157 709 q 148 830 157 793 q 109 850 144 841 q 57 859 75 859 q 52 876 52 859 q 57 898 52 892 q 220 891 213 891 q 377 898 241 891 q 380 878 380 890 q 374 859 380 859 q 326 849 361 859 q 288 830 290 840 q 275 704 275 783 l 275 189 q 288 62 275 110 q 326 44 290 53 q 374 35 361 35 q 380 15 380 35 q 377 -4 380 4 q 220 3 241 3 q 57 -4 213 3 q 52 16 52 1 q 57 35 52 35 q 109 43 75 35 q 148 62 144 52 q 157 183 157 99 l 157 709 z "},"J":{"ha":437,"x_min":-129,"x_max":401,"o":"m 241 890 q 294 891 269 890 q 350 895 320 892 q 399 898 380 897 q 401 878 401 890 q 396 859 401 859 q 347 849 382 859 q 309 830 312 840 q 297 704 297 783 l 297 115 q 201 -182 297 -56 q -42 -308 106 -308 q -75 -302 -57 -308 q -103 -292 -92 -297 l -113 -286 q -129 -236 -129 -267 q -104 -187 -129 -206 q -45 -168 -79 -168 q 10 -197 -20 -168 q 58 -227 41 -227 q 97 -208 77 -227 q 136 -152 117 -189 q 167 -48 155 -115 q 179 104 179 19 l 179 709 q 170 830 179 793 q 131 850 165 841 q 79 859 96 859 q 73 876 73 859 q 79 898 73 892 q 151 893 96 897 q 241 890 205 890 z "},"K":{"ha":940,"x_min":56,"x_max":932,"o":"m 224 890 q 277 891 251 890 q 332 895 302 892 q 381 898 362 897 q 383 876 384 892 q 378 859 382 859 q 330 849 365 859 q 292 830 294 840 q 279 704 279 783 l 279 483 l 289 475 l 298 475 q 377 514 342 475 q 610 789 536 692 q 643 841 643 829 q 566 864 643 864 q 560 876 560 864 q 563 898 560 888 q 609 895 581 897 q 662 891 637 892 q 708 890 686 890 q 785 893 742 890 q 845 898 829 897 q 847 878 848 892 q 842 864 846 864 q 718 807 760 854 l 445 490 q 454 453 434 477 l 781 94 q 838 56 803 71 q 893 38 873 41 q 925 35 913 35 q 932 11 932 35 q 929 -4 932 1 q 761 3 793 3 q 700 1 727 3 q 639 -1 673 0 q 578 -4 605 -3 q 572 18 572 1 q 578 35 572 35 q 615 41 594 35 q 636 57 636 46 q 328 416 636 100 q 289 422 323 422 q 279 411 279 422 l 279 189 q 292 62 279 110 q 330 44 294 53 q 378 35 365 35 q 383 19 382 35 q 381 -4 384 3 q 224 3 245 3 q 61 -4 217 3 q 56 16 56 1 q 61 35 56 35 q 113 43 79 35 q 152 62 148 52 q 161 183 161 99 l 161 709 q 152 830 161 793 q 113 850 148 841 q 61 859 79 859 q 56 876 56 859 q 61 898 56 892 q 133 893 79 897 q 224 890 187 890 z "},"L":{"ha":770,"x_min":49,"x_max":753,"o":"m 218 890 q 271 891 245 890 q 327 895 297 892 q 376 898 357 897 q 378 878 378 890 q 373 859 378 859 q 324 849 359 859 q 286 830 289 840 q 274 704 274 783 l 274 193 q 286 73 274 121 q 378 60 290 60 l 444 60 q 614 83 570 60 q 660 131 635 94 q 700 220 685 168 q 719 228 703 228 q 753 220 745 228 q 732 163 746 202 q 709 101 718 125 q 692 46 701 77 q 680 -5 682 15 q 459 -1 609 -5 q 217 3 309 3 l 53 -1 q 49 20 49 3 q 53 38 49 38 q 106 46 72 38 q 146 66 140 54 q 156 194 156 83 l 156 707 q 146 830 156 793 q 108 850 142 841 q 56 859 73 859 q 50 876 50 859 q 56 898 50 892 q 127 893 73 897 q 218 890 182 890 z "},"M":{"ha":1234,"x_min":35,"x_max":1194,"o":"m 227 891 q 351 898 277 891 q 620 218 361 867 q 625 216 621 216 q 632 221 631 216 q 844 735 765 533 q 898 898 844 735 q 1010 892 985 892 q 1162 898 1095 892 q 1166 878 1166 886 q 1160 859 1166 859 l 1157 859 q 1118 850 1142 859 q 1081 831 1093 841 q 1065 741 1065 819 q 1077 190 1065 719 q 1097 65 1078 113 q 1138 44 1103 53 q 1188 35 1173 35 q 1194 16 1194 35 q 1191 -4 1194 4 q 1029 3 1055 3 q 867 -4 1023 3 q 861 18 861 1 q 867 35 861 35 q 908 42 880 35 q 948 56 936 49 q 964 114 964 65 l 964 186 l 948 663 q 941 714 947 685 q 928 743 935 743 q 921 734 925 743 l 637 56 q 587 -3 612 -3 q 575 0 583 -3 l 264 789 q 256 491 262 659 q 247 214 251 323 q 243 102 243 104 q 251 66 243 77 q 300 45 259 56 q 355 35 342 35 q 361 15 361 35 q 358 -4 361 4 q 201 3 222 3 q 42 -4 198 3 q 35 16 35 3 q 42 35 35 35 q 98 44 61 35 q 148 65 136 53 q 172 183 170 90 q 178 461 175 324 q 184 676 182 598 q 187 776 187 754 q 182 830 187 810 q 136 850 178 841 q 75 859 94 859 q 69 878 69 859 q 75 898 69 892 q 125 895 98 897 q 176 892 153 894 q 227 891 199 891 z "},"N":{"ha":978,"x_min":27,"x_max":945,"o":"m 747 711 q 738 830 747 793 q 691 851 734 841 q 631 861 648 861 q 625 877 625 861 q 631 898 625 892 q 701 893 648 897 q 791 890 754 890 q 880 894 826 890 q 943 898 933 898 q 945 878 945 890 q 940 861 945 861 q 881 850 926 861 q 833 830 836 840 q 822 704 822 788 l 822 189 q 826 -1 822 104 q 800 -7 821 -7 q 755 24 777 -7 l 229 770 l 229 191 q 239 65 229 102 q 284 45 241 56 q 340 35 327 35 q 345 19 345 35 q 343 -4 346 3 q 187 3 208 3 l 31 -4 q 27 16 27 0 q 31 35 27 35 q 93 45 50 35 q 140 68 136 56 q 153 195 153 103 l 153 728 q 144 830 153 795 q 98 850 140 841 q 37 859 56 859 q 31 876 31 859 q 37 898 31 892 q 175 895 142 895 q 283 898 245 895 q 743 233 334 806 q 747 289 747 256 l 747 711 z "},"O":{"ha":987,"x_min":60,"x_max":926,"o":"m 472 848 q 269 735 343 848 q 194 475 194 623 q 229 270 194 366 q 339 109 264 174 q 514 45 414 45 q 666 101 601 45 q 762 241 731 157 q 792 419 792 324 q 757 623 792 528 q 647 783 722 719 q 472 848 572 848 m 186 121 q 123 188 186 121 q 60 445 60 255 q 186 770 60 635 q 492 905 313 905 q 799 770 671 905 q 926 445 926 635 q 799 121 926 255 q 492 -14 671 -14 q 186 121 313 -14 z "},"P":{"ha":739,"x_min":54,"x_max":689,"o":"m 222 890 q 319 892 263 890 q 414 895 374 895 q 504 882 458 895 q 592 841 549 868 q 662 764 635 814 q 689 647 689 713 q 672 562 689 608 q 623 474 655 517 q 535 404 590 431 q 412 376 480 376 q 308 414 336 376 q 304 445 300 423 q 308 449 305 450 q 399 434 349 434 q 515 491 467 434 q 564 627 564 548 q 522 779 564 723 q 392 836 480 836 q 297 826 331 836 q 288 816 290 825 q 283 774 285 807 q 281 677 281 742 l 281 193 q 292 75 281 102 q 340 46 298 57 q 399 35 381 35 q 404 16 404 35 q 401 -4 404 4 q 225 3 266 3 l 60 -4 q 56 20 56 0 q 60 38 56 38 q 113 46 79 38 q 153 66 146 54 q 163 194 163 83 l 163 707 q 153 823 163 787 q 113 844 149 834 q 60 853 77 853 q 54 869 54 853 q 60 892 54 887 l 222 890 z "},"Q":{"ha":982,"x_min":60,"x_max":1047,"o":"m 472 848 q 266 734 343 848 q 189 475 189 621 q 277 175 189 305 q 514 45 365 45 q 721 158 644 45 q 798 419 798 271 q 709 718 798 589 q 472 848 621 848 m 939 -114 q 983 -111 963 -114 q 1016 -106 1004 -109 q 1031 -103 1028 -103 q 1047 -130 1047 -103 l 1047 -137 q 819 -184 958 -184 q 677 -149 754 -184 q 516 -66 601 -114 q 376 0 431 -18 q 275 50 327 15 q 174 140 224 85 q 92 275 123 194 q 60 445 60 355 q 186 770 60 635 q 492 905 313 905 q 799 770 671 905 q 926 445 926 635 q 827 149 926 271 q 623 7 727 27 q 724 -49 659 -11 q 831 -100 788 -87 q 939 -114 875 -114 z "},"R":{"ha":895,"x_min":52,"x_max":909,"o":"m 389 836 q 294 826 328 836 q 286 816 289 825 q 280 775 282 807 q 278 677 278 743 l 278 513 q 396 473 278 473 l 430 473 q 528 521 477 473 q 579 647 579 568 q 389 836 579 836 m 411 895 q 505 882 457 895 q 598 841 552 868 q 674 764 644 814 q 704 647 704 713 q 661 528 704 590 q 545 431 618 465 q 537 418 532 426 q 693 179 605 275 q 905 37 823 37 q 909 18 909 28 q 905 -3 909 5 q 868 -7 890 -7 q 538 189 678 -7 q 489 260 517 218 q 448 319 461 301 q 418 359 435 338 q 389 392 401 381 q 361 410 376 403 q 311 415 346 415 q 294 414 300 415 q 283 408 289 414 q 278 392 278 403 l 278 193 q 289 75 278 102 q 337 46 296 57 q 396 35 378 35 q 401 16 401 35 q 399 -4 401 4 q 222 3 263 3 l 57 -4 q 53 20 53 0 q 57 38 53 38 q 110 46 76 38 q 151 66 144 54 q 160 194 160 83 l 160 707 q 151 823 160 787 q 111 844 146 834 q 57 853 75 853 q 52 869 52 853 q 57 892 52 887 l 220 890 q 316 892 260 890 q 411 895 372 895 z "},"S":{"ha":666,"x_min":56,"x_max":617,"o":"m 83 665 q 163 836 83 769 q 349 903 243 903 q 405 900 378 903 q 448 892 431 897 q 497 880 465 888 q 553 865 529 871 q 570 671 570 793 q 556 662 570 662 q 521 675 524 662 q 463 791 514 735 q 339 848 412 848 q 224 807 258 848 q 191 707 191 766 q 201 657 191 681 q 220 618 210 633 q 254 582 229 602 q 291 553 279 562 q 337 524 302 545 q 381 496 372 502 q 429 467 388 492 q 484 432 469 442 q 531 395 499 422 q 577 349 563 369 q 604 298 591 328 q 617 235 617 267 q 532 56 617 126 q 334 -14 448 -14 q 264 -9 301 -14 q 203 1 228 -4 q 142 14 179 5 q 90 26 104 23 q 56 241 56 193 q 77 250 56 250 q 111 237 102 250 q 336 42 157 42 q 452 83 404 42 q 499 198 499 123 q 491 248 499 225 q 474 286 483 271 q 443 318 465 301 q 408 343 420 335 q 363 369 396 351 q 319 393 331 387 q 264 426 279 416 q 212 459 248 435 q 160 501 176 483 q 122 546 144 519 q 92 602 100 572 q 83 665 83 632 z "},"T":{"ha":907,"x_min":38,"x_max":872,"o":"m 302 892 q 348 891 302 892 q 454 890 395 890 q 608 892 514 890 q 753 895 701 895 q 846 910 787 895 l 872 716 q 840 707 863 707 q 826 713 827 707 q 779 812 807 789 q 674 834 751 834 q 525 814 530 834 q 513 678 513 770 l 513 189 q 525 62 513 110 q 563 44 528 53 q 612 35 598 35 q 617 15 617 35 q 614 -4 617 4 q 457 3 479 3 q 294 -4 450 3 q 289 16 289 1 q 294 35 289 35 q 347 43 312 35 q 385 62 381 52 q 395 183 395 99 l 395 674 q 382 814 395 792 q 236 834 372 834 q 131 812 159 834 q 84 713 103 789 q 71 707 83 707 q 38 716 47 707 l 64 910 q 157 895 123 895 q 302 892 209 895 z "},"U":{"ha":975,"x_min":45,"x_max":948,"o":"m 213 891 q 370 898 235 891 q 373 879 373 890 q 368 859 373 859 q 319 849 354 859 q 281 830 283 840 q 269 704 269 783 l 269 401 q 334 157 269 248 q 518 66 399 66 q 750 372 750 66 l 750 711 q 741 830 750 793 q 694 851 736 841 q 633 861 651 861 q 628 877 628 861 q 633 898 628 892 q 704 893 651 897 q 793 890 757 890 q 882 894 829 890 q 945 898 936 898 q 948 878 948 890 q 943 861 948 861 q 884 850 929 861 q 836 830 838 840 q 825 704 825 788 l 825 374 q 736 82 825 164 q 486 0 648 0 q 237 95 324 0 q 151 401 151 190 l 151 709 q 141 830 151 793 q 102 850 137 841 q 50 859 68 859 q 45 876 45 859 q 50 898 45 892 q 213 891 206 891 z "},"V":{"ha":962,"x_min":23,"x_max":940,"o":"m 184 891 q 353 898 217 891 q 355 876 355 892 q 350 859 354 859 q 324 856 340 859 q 289 842 308 853 q 270 814 270 831 q 441 357 270 774 q 499 213 477 264 q 511 210 503 206 q 521 220 518 213 l 724 711 q 750 806 750 777 q 728 838 750 825 q 687 855 707 852 q 655 859 667 859 q 650 876 650 859 q 655 898 650 892 q 800 891 781 891 q 937 898 802 891 q 940 878 940 890 q 935 859 940 859 q 853 821 873 859 q 787 681 822 764 l 515 33 q 468 -12 498 -12 q 454 -4 458 -12 l 176 697 q 115 827 142 787 q 76 850 106 842 q 28 859 46 859 q 23 876 23 859 q 28 898 23 892 q 80 895 50 897 q 134 892 110 894 q 184 891 157 891 z "},"W":{"ha":1459,"x_min":22,"x_max":1439,"o":"m 198 891 q 340 898 205 891 q 342 876 343 892 q 338 859 342 859 q 315 857 328 859 q 286 844 301 854 q 270 819 270 834 q 301 719 270 779 l 582 163 q 593 159 586 156 q 602 170 600 163 l 715 404 l 572 697 q 494 827 533 777 q 457 850 483 841 q 415 859 431 859 q 410 879 410 859 q 415 898 410 892 q 586 891 571 891 q 727 898 591 891 q 729 876 730 892 q 724 859 728 859 q 702 857 715 859 q 673 845 689 854 q 658 819 658 836 q 689 719 658 784 l 779 536 l 873 735 q 892 814 892 777 q 863 848 892 837 q 812 859 834 859 q 807 876 807 859 q 812 898 807 892 q 949 891 921 891 q 1090 898 955 891 q 1093 876 1093 892 q 1088 859 1092 859 q 1041 848 1074 859 q 994 821 1008 837 q 916 681 970 791 l 811 467 l 959 163 q 975 170 967 148 l 1218 727 q 1241 812 1241 783 q 1213 847 1241 836 q 1164 859 1185 859 q 1158 876 1158 859 q 1164 898 1158 892 q 1302 891 1272 891 q 1354 892 1333 891 q 1396 895 1374 894 q 1436 898 1417 897 q 1439 878 1439 890 q 1434 859 1439 859 q 1390 848 1420 859 q 1345 821 1360 838 q 1267 684 1306 774 l 979 33 q 926 -11 959 -11 q 914 -4 918 -11 l 749 335 l 602 33 q 549 -11 582 -11 q 537 -4 541 -11 l 184 697 q 106 827 145 777 q 69 850 95 841 q 27 859 43 859 q 22 876 22 859 q 27 898 22 892 q 198 891 183 891 z "},"X":{"ha":933,"x_min":9,"x_max":935,"o":"m 239 891 q 412 898 277 891 q 414 876 415 892 q 410 859 414 859 q 357 848 385 859 q 328 815 328 838 q 345 774 328 799 l 500 537 q 532 578 506 545 q 570 627 559 612 q 606 673 582 642 q 641 721 629 704 q 667 760 652 738 q 687 795 681 781 q 693 817 693 808 q 665 845 693 831 q 598 859 637 859 q 593 876 593 859 q 598 898 593 892 q 770 891 724 891 q 922 898 787 891 q 924 876 925 892 q 920 859 924 859 q 852 848 901 859 q 789 819 803 837 l 534 486 l 795 90 q 851 49 812 62 q 928 35 890 35 q 935 14 935 35 q 932 -4 935 1 q 789 3 796 3 q 591 -4 781 3 q 586 18 586 1 q 591 35 586 35 q 640 46 610 35 q 670 73 670 57 q 663 90 670 79 l 460 400 q 237 75 237 102 q 243 61 237 69 q 273 44 250 53 q 330 35 296 35 q 335 14 335 35 q 332 -4 335 0 q 179 3 206 3 q 12 -4 148 3 q 9 14 9 4 q 15 35 9 35 q 44 37 26 35 q 91 49 62 39 q 134 73 119 58 l 425 453 l 235 743 q 145 837 193 810 q 69 859 109 859 q 64 876 64 859 q 69 898 64 892 q 239 891 236 891 z "},"Y":{"ha":880,"x_min":20,"x_max":861,"o":"m 189 890 q 368 898 205 890 q 370 877 370 892 q 365 861 369 861 q 313 850 342 861 q 283 815 283 838 q 298 774 283 800 l 450 487 q 464 490 457 480 q 648 817 648 769 q 621 846 648 831 q 555 861 594 861 q 549 877 549 861 q 555 898 549 892 q 715 890 705 890 q 802 894 757 890 q 859 898 846 898 q 861 878 861 890 q 856 861 861 861 q 799 849 840 861 q 745 819 758 837 q 595 576 693 739 q 496 395 496 414 l 496 189 q 507 62 496 104 q 544 43 510 53 q 590 33 578 33 q 595 15 595 33 q 593 -4 595 4 q 441 3 457 3 q 281 -4 437 3 q 275 15 275 1 q 281 33 275 33 q 330 42 297 33 q 368 62 363 52 q 378 193 378 104 l 378 362 q 349 437 378 381 q 180 745 320 494 q 147 801 159 785 q 114 831 136 817 q 69 852 99 842 q 26 861 39 861 q 20 876 20 861 q 26 898 20 892 q 99 893 47 897 q 189 890 151 890 z "},"Z":{"ha":814,"x_min":39,"x_max":795,"o":"m 290 890 l 438 890 q 723 903 533 890 q 732 886 727 902 q 736 859 736 869 l 229 103 q 220 83 220 90 q 239 69 220 69 l 545 69 q 629 83 594 69 q 687 127 665 98 q 720 177 709 157 q 743 233 730 197 q 762 237 746 237 q 795 225 783 237 q 735 0 751 84 l 62 0 q 52 35 52 12 q 57 58 52 52 l 576 825 l 289 825 q 161 787 199 825 q 96 656 122 750 q 83 651 95 651 q 39 663 52 651 q 84 902 76 831 q 182 894 98 898 q 290 890 267 890 z "},"[":{"ha":490,"x_min":164,"x_max":415,"o":"m 190 1004 q 288 1006 239 1004 q 368 1013 336 1009 q 407 1016 400 1016 q 415 1000 415 1016 q 391 958 415 970 q 254 943 327 943 q 248 940 250 943 q 244 935 245 937 l 244 932 l 244 -66 q 254 -77 245 -77 q 392 -100 324 -77 q 408 -130 408 -106 q 406 -143 408 -137 q 401 -152 404 -149 l 400 -155 q 190 -138 301 -138 q 164 -107 164 -138 l 164 972 q 190 1004 164 1004 z "},"\\":{"ha":583,"x_min":49,"x_max":537,"o":"m 537 -9 q 506 -53 537 -46 q 473 -50 506 -53 l 49 1024 q 77 1032 58 1032 q 144 1002 130 1032 l 533 18 q 537 -9 537 9 z "},"]":{"ha":490,"x_min":77,"x_max":327,"o":"m 248 -66 l 248 932 q 239 943 247 943 q 172 946 206 943 q 119 954 137 949 l 102 958 l 100 959 q 95 962 98 960 q 89 968 92 964 q 83 975 85 971 q 79 986 81 979 q 77 1000 77 993 q 84 1016 77 1016 l 85 1016 q 302 1004 191 1004 q 327 972 327 1004 l 327 -107 q 302 -138 327 -138 q 201 -142 254 -138 q 119 -151 148 -146 l 91 -155 q 83 -138 83 -153 q 91 -111 83 -125 l 103 -100 q 239 -77 165 -77 q 245 -75 243 -77 q 247 -69 247 -72 l 248 -66 z "},"^":{"ha":604,"x_min":96,"x_max":509,"o":"m 491 644 q 412 699 475 644 q 301 810 349 753 q 195 699 258 754 q 114 644 132 644 q 104 652 109 644 q 98 669 99 661 l 96 677 q 130 711 98 681 q 208 798 163 742 q 282 918 252 853 q 296 936 290 936 q 315 928 308 936 q 328 908 323 921 q 353 864 334 895 q 397 798 372 833 q 438 751 411 780 q 486 702 465 723 q 509 678 507 681 q 503 658 509 671 q 491 644 498 644 z "},"_":{"ha":635,"x_min":0,"x_max":635,"o":"m 0 -45 q 20 18 7 18 l 629 18 q 635 11 635 18 q 621 -50 635 0 q 618 -56 620 -54 q 614 -58 616 -58 l 613 -58 l 9 -58 q 0 -45 0 -58 z "},"`":{"ha":444,"x_min":141,"x_max":369,"o":"m 141 899 q 144 911 141 905 q 161 924 148 917 q 197 932 175 932 q 243 920 231 932 q 297 848 266 892 q 349 770 328 803 q 369 732 369 736 q 353 715 369 715 q 238 790 335 715 q 141 899 141 865 z "},"a":{"ha":574,"x_min":53,"x_max":566,"o":"m 190 87 q 201 78 190 87 q 250 68 213 68 q 320 90 286 68 q 354 136 354 113 l 354 275 q 301 256 343 270 q 235 233 259 243 q 189 199 212 222 q 167 144 167 175 q 190 87 167 107 m 317 591 q 425 555 392 591 q 457 439 457 519 l 457 126 q 472 79 457 98 q 513 60 487 60 q 560 79 532 60 q 566 68 566 79 q 559 39 566 50 q 464 -8 503 -8 q 404 18 433 -8 q 365 72 376 43 q 355 63 363 72 q 331 43 346 54 q 296 19 316 31 q 250 -1 277 7 q 197 -9 224 -9 q 94 24 134 -9 q 53 123 53 57 q 68 180 53 153 q 103 223 83 206 q 159 258 123 240 q 219 284 194 275 q 285 307 244 293 q 342 327 326 320 q 354 347 354 331 l 354 449 q 327 516 354 492 q 262 540 300 540 q 194 512 221 540 q 167 439 167 484 q 111 392 167 392 q 58 418 73 392 q 144 534 58 476 q 317 591 229 591 z "},"b":{"ha":677,"x_min":9,"x_max":625,"o":"m 347 594 q 551 505 477 594 q 625 316 625 416 q 530 90 625 187 q 319 -8 434 -8 q 223 1 269 -8 q 171 9 178 9 q 140 2 159 9 q 119 -5 122 -5 q 102 -1 114 -5 q 91 8 91 3 q 95 31 91 9 q 103 92 99 52 q 107 183 107 133 l 107 745 q 99 831 107 791 q 30 853 92 853 l 18 853 q 9 868 9 853 q 18 890 9 890 q 93 901 58 894 q 147 914 127 907 q 180 927 167 921 q 201 937 194 933 l 206 941 l 209 941 q 220 934 214 941 q 227 920 225 926 q 212 802 212 876 l 212 564 q 216 549 212 549 q 220 551 217 549 q 278 579 239 564 q 347 594 317 594 m 304 528 q 239 507 266 528 q 212 446 212 486 l 212 130 q 252 68 212 88 q 345 49 292 49 q 465 122 422 49 q 509 288 509 195 q 452 461 509 395 q 304 528 396 528 z "},"c":{"ha":549,"x_min":50,"x_max":528,"o":"m 313 591 q 519 522 463 591 q 469 431 519 431 q 434 441 446 431 q 403 479 422 452 q 302 541 361 541 q 201 488 247 541 q 156 331 156 435 q 210 151 156 222 q 358 79 263 79 q 412 84 387 79 q 456 97 438 90 q 488 112 475 104 q 510 126 500 119 l 519 133 q 528 115 528 133 q 519 91 528 104 q 439 22 492 53 q 324 -8 387 -8 q 131 77 212 -8 q 50 283 50 161 q 118 500 50 408 q 313 591 186 591 z "},"d":{"ha":674,"x_min":52,"x_max":659,"o":"m 336 540 q 213 469 258 540 q 168 305 168 399 q 221 134 168 206 q 368 61 274 61 q 439 82 414 61 q 465 138 465 103 l 465 461 q 435 515 465 490 q 336 540 404 540 m 354 597 q 456 574 412 597 q 465 598 465 574 l 465 745 q 457 831 465 791 q 388 853 450 853 l 376 853 q 368 868 368 853 q 376 890 368 890 q 451 901 416 894 q 505 914 486 907 q 538 927 525 921 q 559 937 552 933 l 564 941 l 567 941 q 578 934 572 941 q 585 920 583 926 q 570 802 570 876 l 570 191 q 578 88 570 126 q 593 73 581 79 q 618 66 605 68 q 643 65 631 65 l 655 64 q 659 47 659 62 q 651 27 659 27 q 606 22 631 26 q 558 13 581 18 q 517 3 536 8 q 486 -5 498 -1 l 473 -8 q 465 15 465 -8 l 465 31 q 460 37 465 39 q 316 -5 384 -5 q 127 75 203 -5 q 52 266 52 155 q 144 497 52 397 q 354 597 237 597 z "},"e":{"ha":583,"x_min":50,"x_max":549,"o":"m 305 541 q 197 481 235 541 q 160 381 160 420 q 168 372 160 372 l 433 372 q 439 385 439 372 q 403 485 439 429 q 305 541 366 541 m 319 591 q 429 568 381 591 q 501 507 476 544 q 538 431 526 469 q 549 354 549 392 q 541 321 549 327 q 510 315 533 315 l 168 315 q 157 308 157 315 q 209 151 157 222 q 358 79 260 79 q 412 84 387 79 q 456 97 438 90 q 488 112 475 104 q 510 126 500 119 l 519 133 q 528 115 528 133 q 519 91 528 104 q 439 22 492 53 q 324 -8 387 -8 q 131 77 212 -8 q 50 283 50 161 q 127 509 50 426 q 319 591 203 591 z "},"f":{"ha":408,"x_min":37,"x_max":532,"o":"m 403 943 q 532 890 500 943 q 483 804 532 804 q 449 825 465 804 q 412 868 433 846 q 361 890 391 890 q 269 817 301 890 q 236 644 236 743 l 236 575 q 243 568 236 568 l 393 568 q 400 559 400 568 q 384 505 400 537 l 244 505 q 236 496 236 505 l 236 183 q 248 62 236 110 q 281 44 251 53 q 324 35 312 35 q 330 19 328 35 q 328 -4 331 3 q 183 3 193 3 q 41 -4 179 3 q 37 9 38 -1 q 37 27 35 19 q 41 35 38 35 q 87 44 57 35 q 119 62 117 53 q 133 183 133 115 l 133 495 q 126 505 133 505 l 54 505 q 50 513 50 505 q 72 547 50 525 q 118 568 94 568 l 126 568 q 133 576 133 568 l 133 594 q 218 840 133 736 q 403 943 302 943 z "},"g":{"ha":643,"x_min":39,"x_max":604,"o":"m 514 -115 q 458 -39 514 -58 q 237 -19 403 -19 q 229 -22 235 -19 q 217 -28 228 -23 q 203 -34 206 -33 q 191 -41 201 -35 q 178 -50 182 -47 q 167 -58 175 -52 q 156 -68 159 -64 q 148 -80 153 -73 q 140 -94 142 -87 q 136 -109 138 -100 q 134 -127 134 -118 q 195 -222 134 -186 q 328 -258 255 -258 q 462 -214 410 -258 q 514 -115 514 -171 m 167 401 q 205 296 167 339 q 296 252 244 252 q 383 293 349 252 q 418 391 418 334 q 379 496 418 453 q 289 540 340 540 q 201 499 236 540 q 167 401 167 458 m 294 586 q 410 568 345 586 q 517 551 475 551 l 595 551 q 604 517 604 548 q 595 498 604 498 l 499 498 q 494 494 494 498 l 507 461 q 522 396 522 429 q 457 264 522 323 q 297 206 392 206 q 221 212 254 206 q 184 178 203 202 q 164 134 164 153 q 175 104 164 115 q 206 87 186 92 q 245 81 227 83 q 290 79 264 79 q 300 79 297 79 q 536 44 468 76 q 604 -52 604 12 q 515 -231 604 -156 q 289 -308 427 -307 q 116 -271 193 -309 q 39 -157 39 -233 q 172 -14 39 -73 q 104 20 136 -8 q 73 90 73 49 q 104 163 73 125 q 172 225 134 201 q 97 290 132 240 q 62 396 62 339 q 130 531 62 476 q 294 586 197 586 z "},"h":{"ha":719,"x_min":24,"x_max":690,"o":"m 423 594 q 553 529 514 594 q 593 328 593 464 l 593 182 q 604 62 593 104 q 639 44 606 53 q 685 35 671 35 q 690 19 689 35 q 689 -4 692 3 q 544 3 553 3 q 401 -4 540 3 q 396 18 396 1 q 401 35 396 35 q 447 44 418 35 q 479 62 476 53 q 488 157 488 102 l 488 301 q 454 469 488 426 q 347 511 419 511 q 267 479 307 511 q 227 423 227 448 l 227 183 q 237 62 227 104 q 273 44 240 53 q 319 35 305 35 q 324 19 323 35 q 323 -4 326 3 q 178 3 187 3 q 30 -4 170 3 q 24 18 24 1 q 30 35 24 35 q 78 44 46 35 q 113 62 110 53 q 122 156 122 102 l 122 745 q 114 831 122 791 q 45 853 107 853 l 33 853 q 24 868 24 853 q 33 890 24 890 q 108 901 73 894 q 162 914 142 907 q 195 927 182 921 q 214 937 209 933 l 221 941 l 224 941 q 235 934 229 941 q 241 920 240 926 q 227 802 227 876 l 227 505 q 229 499 227 499 q 233 502 231 499 q 318 564 263 534 q 423 594 373 594 z "},"i":{"ha":365,"x_min":43,"x_max":343,"o":"m 135 756 q 125 766 135 756 q 115 804 115 776 q 135 852 115 833 q 183 872 155 872 q 231 852 212 872 q 251 804 251 833 q 231 756 251 776 q 183 736 212 736 q 135 756 155 736 m 245 183 q 256 62 245 104 q 292 44 259 53 q 338 35 324 35 q 343 19 342 35 q 342 -4 345 3 q 197 3 206 3 q 49 -4 187 3 q 43 18 43 1 q 49 35 43 35 q 97 44 65 35 q 132 62 129 53 q 141 157 141 102 l 141 414 q 122 487 141 467 q 89 509 109 503 q 56 515 69 515 q 43 518 43 515 q 52 552 43 551 q 239 587 195 574 l 241 589 q 245 589 244 589 q 252 577 251 589 q 252 560 254 566 q 245 463 245 506 l 245 183 z "},"j":{"ha":323,"x_min":-33,"x_max":227,"o":"m 115 414 q 96 487 115 467 q 63 509 83 503 q 31 515 43 515 q 18 518 18 515 q 26 552 18 551 q 213 587 170 574 q 217 588 214 587 q 220 589 220 589 q 227 577 225 589 q 227 560 228 566 q 220 463 220 506 l 220 92 q 167 -163 220 -80 q 81 -256 133 -216 q -15 -313 28 -297 q -33 -293 -27 -305 q -33 -283 -35 -286 l -16 -275 q 21 -247 0 -267 q 64 -193 42 -227 q 100 -92 85 -159 q 115 61 115 -26 l 115 414 m 100 756 q 90 766 100 756 q 80 804 80 776 q 100 852 80 833 q 148 872 119 872 q 196 852 176 872 q 216 804 216 833 q 196 756 216 776 q 148 736 176 736 q 100 756 119 736 z "},"k":{"ha":673,"x_min":19,"x_max":678,"o":"m 525 499 q 437 435 502 486 q 324 335 372 384 q 420 229 363 293 q 514 124 477 164 q 564 72 551 84 q 623 43 587 53 q 673 33 658 33 q 678 11 678 33 q 677 -4 678 -1 q 529 3 541 3 q 388 -4 526 3 q 382 17 382 1 q 388 33 382 33 q 419 38 401 33 q 437 50 437 43 q 435 54 437 53 l 237 269 l 221 264 l 221 183 q 232 62 224 94 q 267 44 235 53 q 313 35 300 35 q 319 19 317 35 q 317 -4 320 3 q 172 3 182 3 q 24 -4 164 3 q 19 18 19 1 q 24 35 19 35 q 73 44 41 35 q 107 62 104 53 q 117 157 117 102 l 117 745 q 109 831 117 791 q 39 853 102 853 l 27 853 q 19 868 19 853 q 27 890 19 890 q 102 901 68 894 q 157 914 137 907 q 190 927 176 921 q 209 937 203 933 l 216 941 l 218 941 q 229 934 224 941 q 236 920 235 926 q 221 802 221 876 l 221 327 q 255 339 250 334 q 317 392 285 365 q 366 433 350 419 q 397 460 382 446 q 418 481 412 473 q 423 498 423 490 q 393 517 423 514 q 362 522 363 519 q 363 553 353 549 l 471 553 q 513 555 491 553 q 566 557 536 556 q 620 560 597 559 q 626 548 625 557 q 624 530 627 538 q 618 522 621 522 q 568 514 601 522 q 525 499 536 506 z "},"l":{"ha":340,"x_min":20,"x_max":320,"o":"m 118 157 l 118 745 q 110 831 118 791 q 41 853 103 853 l 28 853 q 20 868 20 853 q 28 890 20 890 q 104 901 69 894 q 158 914 138 907 q 191 927 178 921 q 212 937 205 933 l 217 941 l 220 941 q 231 934 225 941 q 237 920 236 926 q 222 802 222 876 l 222 183 q 233 62 222 104 q 269 44 236 53 q 315 35 301 35 q 320 19 319 35 q 319 -4 321 3 q 174 3 183 3 q 26 -4 165 3 q 20 18 20 1 q 26 35 20 35 q 74 44 42 35 q 109 62 106 53 q 118 157 118 102 z "},"m":{"ha":1085,"x_min":37,"x_max":1053,"o":"m 434 594 q 524 565 488 594 q 574 498 560 536 q 784 594 675 594 q 955 334 955 594 l 955 183 q 966 62 955 104 q 1001 44 968 53 q 1047 35 1034 35 q 1053 19 1051 35 q 1051 -4 1054 3 q 906 3 916 3 q 758 -4 898 3 q 753 18 753 1 q 758 35 753 35 q 806 44 774 35 q 841 62 838 53 q 850 149 850 102 l 850 302 q 713 511 850 511 q 627 482 663 511 q 590 434 590 453 l 591 429 q 591 422 591 423 q 597 324 597 388 l 597 171 q 608 62 597 104 q 643 44 610 53 q 689 35 675 35 q 694 19 693 35 q 693 -4 696 3 q 548 3 557 3 q 400 -4 540 3 q 395 18 395 1 q 400 35 395 35 q 448 44 416 35 q 483 62 480 53 q 492 157 492 102 l 492 296 q 362 511 492 511 q 280 481 321 511 q 239 422 239 450 l 239 183 q 250 62 239 104 q 285 44 252 53 q 331 35 317 35 q 336 19 335 35 q 335 -4 338 3 q 190 3 199 3 q 42 -4 182 3 q 37 18 37 1 q 42 35 37 35 q 90 44 58 35 q 125 62 122 53 q 134 157 134 102 l 134 414 q 115 487 134 467 q 82 509 102 503 q 50 515 62 515 q 37 518 37 515 q 45 552 37 551 q 232 587 189 574 q 236 588 233 587 q 239 589 239 589 q 245 577 244 589 q 245 560 247 566 q 240 506 240 522 q 243 500 240 500 q 247 503 244 500 q 332 565 278 536 q 434 594 385 594 z "},"n":{"ha":736,"x_min":39,"x_max":705,"o":"m 437 594 q 570 526 532 594 q 608 307 608 458 l 608 183 q 618 62 608 104 q 654 44 621 53 q 700 35 686 35 q 705 19 704 35 q 704 -4 707 3 q 559 3 568 3 q 416 -4 556 3 q 411 18 411 1 q 416 35 411 35 q 462 44 433 35 q 494 62 491 53 q 503 157 503 102 l 503 293 q 471 465 503 419 q 365 511 438 511 q 281 479 321 511 q 241 422 241 448 l 241 183 q 252 62 241 104 q 288 44 255 53 q 334 35 320 35 q 339 19 338 35 q 338 -4 340 3 q 193 3 202 3 q 45 -4 184 3 q 39 18 39 1 q 45 35 39 35 q 93 44 61 35 q 127 62 125 53 q 137 157 137 102 l 137 414 q 118 487 137 467 q 85 509 104 503 q 52 515 65 515 q 39 518 39 515 q 47 552 39 551 q 235 587 191 574 q 239 588 236 587 q 241 589 241 589 q 248 577 247 589 q 248 560 250 566 q 243 506 243 522 q 245 500 243 500 q 250 503 247 500 q 334 565 281 536 q 437 594 388 594 z "},"o":{"ha":692,"x_min":50,"x_max":640,"o":"m 330 540 q 212 474 258 540 q 167 313 167 408 q 224 123 167 202 q 359 43 282 43 q 477 111 431 43 q 524 274 524 179 q 465 462 524 384 q 330 540 407 540 m 345 593 q 553 505 467 593 q 640 293 640 416 q 555 79 640 168 q 347 -9 471 -9 q 137 79 224 -9 q 50 293 50 168 q 134 506 50 419 q 345 593 218 593 z "},"p":{"ha":693,"x_min":23,"x_max":642,"o":"m 365 591 q 568 504 495 591 q 642 317 642 416 q 551 88 642 187 q 345 -11 460 -11 q 309 -9 324 -11 q 281 -5 293 -8 q 262 1 269 -1 q 244 9 255 4 q 231 15 233 14 q 225 -3 225 8 l 225 -119 q 236 -240 225 -198 q 271 -258 239 -250 q 317 -267 304 -267 q 323 -284 321 -267 q 321 -307 324 -301 q 176 -300 186 -300 q 28 -307 168 -300 q 23 -284 23 -301 q 28 -267 23 -267 q 77 -258 45 -267 q 111 -240 109 -250 q 121 -145 121 -201 l 121 415 q 102 488 121 468 q 68 511 88 505 q 36 517 49 517 q 23 519 23 517 q 31 553 23 552 q 218 589 175 575 q 222 589 220 589 q 225 590 225 590 q 229 583 229 590 q 228 564 229 575 q 227 552 227 553 l 227 544 q 290 574 245 557 q 365 591 334 591 m 321 525 q 252 503 279 525 q 225 438 225 480 l 225 133 q 264 71 225 96 q 350 46 304 46 q 477 118 430 46 q 525 279 525 190 q 465 459 525 393 q 321 525 404 525 z "},"q":{"ha":663,"x_min":52,"x_max":667,"o":"m 359 597 q 457 589 410 597 q 511 582 505 582 q 542 587 524 582 q 563 593 560 593 q 579 589 567 593 q 591 579 591 585 q 586 555 591 578 q 575 490 581 532 q 570 397 570 448 l 570 -137 q 581 -241 570 -199 q 616 -260 583 -251 q 662 -269 648 -269 q 667 -285 666 -269 q 666 -308 669 -301 q 521 -301 530 -301 q 373 -308 513 -301 q 368 -286 368 -302 q 373 -269 368 -269 q 421 -260 389 -269 q 456 -241 453 -251 q 465 -146 465 -202 l 465 22 q 463 33 465 28 q 456 35 461 38 q 326 -5 374 -5 q 130 80 208 -5 q 52 275 52 165 q 144 496 52 395 q 359 597 237 597 m 336 540 q 237 498 277 540 q 182 406 197 456 q 168 307 168 357 q 228 123 168 186 q 373 61 288 61 q 435 79 404 61 q 465 142 465 98 l 465 457 q 431 517 465 494 q 336 540 397 540 z "},"r":{"ha":515,"x_min":45,"x_max":503,"o":"m 397 593 q 503 553 477 593 q 488 484 503 506 q 452 463 473 463 q 407 486 427 463 q 351 509 387 509 q 278 469 309 509 q 247 387 247 430 l 247 183 q 258 62 247 104 q 294 44 260 53 q 340 35 327 35 q 346 19 345 35 q 345 -4 347 3 q 198 3 209 3 q 50 -4 190 3 q 45 18 45 1 q 50 35 45 35 q 98 44 66 35 q 133 62 130 53 q 142 157 142 102 l 142 414 q 123 487 142 467 q 90 509 110 503 q 58 515 71 515 q 45 518 45 515 q 53 552 45 551 q 240 587 197 574 q 244 588 241 587 q 247 589 247 589 q 254 577 252 589 q 254 560 255 566 l 245 492 q 313 561 270 529 q 397 593 355 593 z "},"s":{"ha":487,"x_min":56,"x_max":446,"o":"m 259 593 q 334 585 289 593 q 397 575 380 578 q 414 437 411 513 q 396 430 414 430 q 376 439 377 430 q 337 511 369 477 q 264 545 305 545 q 167 465 167 545 q 172 429 167 445 q 193 399 178 414 q 217 379 209 385 q 253 357 225 373 q 288 338 281 342 q 319 319 293 335 q 357 297 346 304 q 389 274 368 290 q 419 245 410 258 q 437 212 429 232 q 446 172 446 193 q 384 39 446 92 q 237 -15 321 -15 q 185 -12 209 -15 q 129 0 161 -8 q 79 11 96 8 q 63 79 71 33 q 56 152 56 125 q 72 160 66 160 q 94 152 92 160 q 144 73 102 111 q 237 34 187 34 q 309 58 281 34 q 336 126 336 81 q 328 169 336 149 q 299 204 319 189 q 262 230 279 220 q 214 256 245 240 q 168 282 183 273 q 62 427 62 343 q 121 547 62 500 q 259 593 180 593 z "},"t":{"ha":426,"x_min":23,"x_max":416,"o":"m 109 507 l 30 507 q 23 536 23 507 q 24 545 23 544 q 110 617 64 563 q 139 657 125 635 q 163 696 153 680 q 172 713 172 712 q 213 707 213 713 l 213 572 q 320 572 248 572 q 396 571 392 571 q 407 559 407 571 q 393 507 407 534 l 213 507 l 213 175 q 241 88 213 121 q 313 56 269 56 q 397 81 354 56 q 410 70 401 84 q 416 54 418 56 q 354 12 396 33 q 267 -9 312 -9 q 154 35 199 -9 q 109 163 109 80 l 109 507 z "},"u":{"ha":701,"x_min":39,"x_max":684,"o":"m 590 463 l 590 191 q 600 88 590 133 q 614 73 602 79 q 640 66 627 68 q 667 65 654 65 l 680 64 q 684 49 684 62 q 680 36 684 45 q 673 27 677 27 q 627 22 652 26 q 581 12 602 18 q 540 1 559 7 q 510 -8 521 -4 l 498 -11 q 487 11 487 -11 l 487 80 l 484 87 q 307 -9 395 -9 q 220 16 256 -9 q 168 82 184 41 q 144 162 151 123 q 137 243 137 201 l 137 414 q 118 487 137 467 q 85 509 104 503 q 52 515 65 515 q 39 518 39 515 q 47 552 39 551 q 235 587 191 574 q 239 588 236 587 q 241 589 241 589 q 248 577 247 589 q 248 560 250 566 q 240 460 240 495 l 240 277 q 271 123 240 172 q 373 73 302 73 q 450 105 414 73 q 487 160 487 137 l 487 414 q 468 487 487 467 q 435 509 454 503 q 402 515 415 515 q 389 518 389 515 q 397 552 389 551 q 585 587 541 574 q 589 588 586 587 q 591 589 591 589 q 598 577 597 589 q 598 560 600 566 q 590 463 590 495 z "},"v":{"ha":669,"x_min":-3,"x_max":689,"o":"m 519 506 q 422 549 519 549 q 416 566 416 549 q 422 589 416 583 q 477 585 437 587 q 551 582 518 582 l 686 589 q 689 568 689 581 q 680 549 689 549 q 629 538 661 549 q 587 503 598 528 l 372 16 q 355 -4 369 7 q 332 -15 342 -15 q 320 -9 323 -15 q 219 224 297 41 q 83 522 141 407 q 3 549 69 549 q -3 567 -3 549 q 3 589 -3 583 q 144 582 142 582 l 279 589 q 280 566 282 583 q 274 549 278 549 q 208 526 208 549 q 209 521 208 524 l 372 153 l 509 465 q 519 506 519 491 z "},"w":{"ha":996,"x_min":12,"x_max":1010,"o":"m 845 502 q 755 549 845 549 l 750 549 q 745 566 745 549 q 750 589 745 583 q 795 586 770 587 q 842 583 821 585 q 887 582 863 582 q 927 583 910 582 q 966 586 944 585 q 1008 589 987 587 q 1010 568 1010 581 q 1004 549 1010 549 q 956 538 986 549 q 917 500 926 526 l 739 15 q 701 -15 728 -15 q 685 -9 688 -15 l 518 389 l 381 15 q 376 5 380 11 q 363 -8 372 -1 q 345 -15 354 -15 q 328 -9 331 -15 q 254 166 296 64 q 176 351 213 269 q 91 519 140 433 q 18 549 73 549 q 12 567 12 549 q 18 589 12 583 q 62 586 38 587 q 107 583 87 585 q 152 582 127 582 l 288 589 q 290 566 290 583 q 285 549 289 549 q 217 518 217 549 q 234 477 217 514 q 293 351 251 441 q 378 163 335 260 q 430 309 401 229 q 470 423 458 389 q 481 463 481 457 q 475 484 481 469 q 463 510 469 499 l 456 522 q 430 543 448 534 q 387 549 416 549 q 381 566 381 549 q 387 589 381 583 q 431 586 407 587 q 474 583 454 585 q 518 582 494 582 q 561 583 541 582 q 606 586 581 585 q 651 589 632 587 q 654 566 654 581 q 650 549 654 551 q 585 496 585 549 q 734 163 585 468 q 785 313 754 225 q 831 444 817 401 q 845 502 845 487 z "},"x":{"ha":633,"x_min":5,"x_max":636,"o":"m 18 570 q 23 589 20 583 q 159 582 155 582 q 301 589 161 582 q 302 572 302 583 q 298 549 302 549 q 244 526 244 549 q 251 510 244 521 l 339 373 q 368 416 349 388 q 398 460 387 444 q 419 496 410 477 q 429 525 429 515 q 413 542 429 537 q 378 547 397 547 q 355 549 358 548 q 351 571 351 551 q 355 589 351 583 q 498 582 494 582 q 621 589 502 582 q 624 570 624 575 q 620 549 624 549 q 502 503 530 538 l 372 334 q 369 324 369 330 q 373 309 369 317 l 518 95 q 632 35 555 41 q 636 16 636 35 q 631 -4 636 3 q 503 3 505 3 q 353 -4 499 3 q 350 14 350 9 q 354 35 350 35 q 411 60 411 39 q 408 68 411 62 l 305 231 l 212 91 q 202 65 202 76 q 270 35 202 41 q 277 35 274 35 q 281 15 281 35 q 275 -4 281 1 q 140 3 144 3 q 8 -4 137 3 q 5 15 5 7 q 11 35 5 35 q 133 92 102 49 l 274 281 q 275 285 274 282 q 275 289 275 288 q 273 297 275 292 l 133 502 q 83 534 121 519 q 22 549 45 549 l 18 570 z "},"y":{"ha":616,"x_min":3,"x_max":642,"o":"m 155 582 q 197 583 178 582 q 242 586 217 585 q 286 589 267 587 q 289 568 289 581 q 283 549 289 549 q 248 540 273 549 q 220 521 222 530 l 220 518 q 365 164 220 494 l 468 461 q 477 503 477 490 q 456 536 477 524 q 400 549 435 549 q 395 567 395 549 q 400 589 395 583 q 453 585 418 587 q 521 582 488 582 q 586 585 551 582 q 639 589 621 587 q 642 568 642 581 q 636 549 642 549 q 588 537 618 549 q 548 498 557 525 l 305 -157 q 235 -275 274 -241 q 163 -308 195 -308 q 121 -290 134 -308 q 107 -255 107 -273 q 126 -212 107 -225 q 275 -95 239 -212 q 292 -46 282 -75 q 307 0 301 -18 l 113 475 q 85 521 98 507 q 48 541 73 533 q 8 549 23 549 q 3 567 3 549 q 8 589 3 583 q 155 582 148 582 z "},"z":{"ha":562,"x_min":39,"x_max":552,"o":"m 183 64 q 199 54 183 54 l 377 54 q 460 83 434 54 q 502 163 487 111 q 513 178 505 178 q 552 161 543 178 l 524 0 l 66 0 q 39 31 39 16 q 41 37 39 35 l 389 521 l 187 522 q 142 509 160 522 q 119 483 125 496 q 106 448 113 469 q 99 423 100 427 q 66 415 95 415 q 52 419 52 415 q 61 484 52 425 q 73 583 71 543 q 202 575 153 575 l 368 575 q 533 586 444 575 q 537 553 537 579 l 193 83 q 183 64 183 69 z "},"{":{"ha":439,"x_min":85,"x_max":366,"o":"m 90 396 q 85 420 85 404 q 91 446 85 437 q 151 464 130 456 q 193 494 172 472 q 213 551 213 517 q 179 661 213 585 q 145 780 145 736 q 208 954 145 891 q 361 1017 270 1017 q 366 1006 366 1017 q 351 978 366 981 q 264 933 312 975 q 217 831 217 891 q 251 708 217 784 q 285 574 285 632 q 248 465 285 511 q 171 418 210 419 q 249 373 212 416 q 286 267 286 330 q 252 140 286 209 q 217 24 217 72 q 265 -81 217 -35 q 351 -130 313 -127 q 366 -160 366 -133 q 361 -170 366 -170 q 210 -100 273 -170 q 148 75 148 -30 q 180 189 148 115 q 213 297 213 263 q 207 328 213 315 q 195 350 201 342 q 172 367 190 358 q 148 378 153 376 q 117 388 142 381 q 90 396 92 395 z "},"|":{"ha":358,"x_min":136,"x_max":222,"o":"m 222 -144 q 186 -159 222 -151 q 142 -167 151 -167 q 136 -156 136 -167 l 136 1027 q 142 1038 134 1035 q 210 1047 175 1047 q 218 1045 216 1047 q 221 1042 221 1043 l 221 1039 l 222 -144 z "},"}":{"ha":441,"x_min":73,"x_max":354,"o":"m 350 396 q 326 389 345 395 q 300 381 308 384 q 278 372 293 378 q 256 360 263 366 q 241 345 250 354 q 230 324 233 336 q 227 297 227 312 q 259 189 227 263 q 292 75 292 115 q 229 -100 292 -30 q 79 -170 167 -170 q 73 -160 73 -170 q 88 -130 73 -133 q 174 -81 126 -127 q 222 24 222 -35 q 188 140 222 72 q 153 267 153 209 q 191 373 153 330 q 269 418 228 416 q 192 465 229 419 q 155 574 155 511 q 189 708 155 632 q 222 831 222 784 q 175 933 222 891 q 88 978 127 975 q 73 1006 73 981 q 79 1017 73 1017 q 232 954 170 1017 q 294 780 294 891 q 260 661 294 736 q 227 551 227 585 q 247 494 227 517 q 288 464 267 472 q 349 446 309 456 q 354 420 354 437 q 350 396 354 404 z "},"~":{"ha":781,"x_min":76,"x_max":707,"o":"m 88 351 q 76 374 76 358 q 109 427 76 403 q 179 469 151 458 q 252 480 208 480 q 412 444 316 480 q 572 408 509 408 q 591 410 582 408 q 608 413 601 411 q 624 420 614 415 q 638 427 633 425 q 653 436 643 429 q 666 446 663 444 q 680 456 669 448 q 694 468 692 465 q 707 445 707 461 q 675 392 707 415 q 606 350 633 361 q 533 339 578 339 q 373 375 469 339 q 212 411 277 411 q 163 400 187 411 q 128 382 138 389 q 88 351 118 376 z "},"":{"ha":220,"x_min":0,"x_max":0,"o":""},"":{"ha":225,"x_min":34,"x_max":190,"o":"m 109 -304 q 63 -279 79 -304 q 47 -218 47 -254 q 54 -146 47 -205 q 70 40 60 -88 q 90 321 80 168 q 96 349 91 342 q 122 366 102 357 q 134 359 129 369 q 140 336 138 350 q 161 31 151 160 q 175 -144 171 -99 q 179 -218 179 -190 q 159 -278 179 -252 q 109 -304 140 -304 m 56 451 q 45 462 56 451 q 34 506 34 473 q 56 562 34 538 q 111 586 79 586 q 167 562 144 586 q 190 506 190 538 q 167 451 190 473 q 111 429 144 429 q 56 451 79 429 z "},"":{"ha":629,"x_min":81,"x_max":559,"o":"m 378 643 q 426 632 426 643 l 313 -61 q 266 -49 266 -61 l 378 643 m 345 590 q 155 498 229 590 q 81 286 81 406 q 157 67 81 145 q 350 -11 233 -11 q 551 91 457 -11 q 559 115 559 99 q 557 124 559 119 q 553 132 555 129 q 551 134 552 134 q 542 127 549 134 q 521 112 534 121 q 490 94 507 103 q 446 77 472 84 q 392 71 419 71 q 237 146 290 71 q 184 332 184 221 q 229 492 184 441 q 331 543 274 543 q 383 532 359 543 q 418 509 407 521 q 449 475 429 498 q 456 466 452 472 q 463 457 461 460 q 470 450 465 454 q 477 443 475 445 q 482 438 479 441 q 488 434 486 435 q 494 432 491 433 q 502 431 498 431 q 551 517 551 431 q 471 572 530 553 q 345 590 412 590 z "},"":{"ha":642,"x_min":61,"x_max":609,"o":"m 69 433 q 431 433 69 433 q 438 419 438 433 q 418 378 438 392 q 68 378 418 378 q 61 396 61 378 q 69 433 61 420 m 382 861 q 487 811 453 861 q 446 731 487 731 q 388 768 418 731 q 330 804 358 804 q 275 787 297 804 q 245 736 254 769 q 233 674 236 704 q 231 602 231 644 q 236 465 231 575 q 241 350 241 355 q 180 114 241 217 q 278 126 212 126 q 392 104 317 126 q 491 83 467 83 q 524 95 509 83 q 548 120 540 107 q 568 156 556 133 q 583 183 581 179 q 600 176 591 183 q 609 159 609 168 q 608 146 609 149 q 449 -11 548 -11 q 312 14 403 -11 q 190 39 221 39 q 88 -12 142 39 q 69 -3 76 -12 q 62 14 62 5 q 96 68 75 37 q 126 111 118 99 q 136 136 132 122 q 142 168 140 151 q 145 201 144 186 q 147 238 146 216 q 148 272 148 260 q 148 307 148 283 q 148 338 148 331 q 142 450 148 350 q 136 574 136 551 q 204 781 136 701 q 382 861 273 861 z "},"":{"ha":635,"x_min":33,"x_max":602,"o":"m 326 206 q 424 263 385 206 q 463 399 463 320 q 414 560 463 492 q 302 628 366 628 q 203 570 243 628 q 164 433 164 511 q 212 273 164 340 q 326 206 260 206 m 467 617 l 547 692 q 564 689 552 697 q 587 665 575 681 q 602 632 598 648 l 521 556 q 560 416 560 491 q 515 270 560 336 l 589 191 q 586 174 594 186 q 562 151 578 163 q 529 136 545 140 l 458 210 q 315 163 393 163 q 160 217 228 163 l 88 149 q 71 152 83 144 q 48 176 60 160 q 33 209 37 193 l 106 278 q 65 416 65 342 q 117 574 65 505 l 46 650 q 49 667 41 655 q 73 690 57 678 q 106 705 90 701 l 176 631 q 315 673 237 673 q 467 617 400 673 z "},"":{"ha":892,"x_min":31,"x_max":860,"o":"m 194 863 q 363 871 205 863 q 366 850 366 865 q 361 834 365 834 q 310 823 338 834 q 282 791 282 812 q 296 751 282 776 l 444 472 q 457 475 450 465 q 636 792 636 746 q 610 821 636 807 q 545 834 585 834 q 540 850 540 834 q 545 871 540 865 q 601 866 560 869 q 670 863 642 863 q 857 871 699 863 q 860 850 860 863 q 854 834 860 834 q 789 823 837 834 q 728 795 742 811 q 580 553 671 707 q 488 382 488 400 l 488 345 l 613 345 q 620 327 620 345 q 612 293 620 305 l 488 293 l 488 239 l 613 239 q 620 221 620 239 q 612 187 620 199 l 488 187 q 498 62 488 99 q 533 43 500 53 q 578 33 566 33 q 583 16 583 33 q 581 -4 583 4 q 434 3 448 3 q 279 -4 429 3 q 274 14 274 1 q 279 33 274 33 q 328 42 296 33 q 363 62 359 52 q 374 187 374 104 l 250 187 q 243 205 243 187 q 251 239 243 227 l 374 239 l 374 293 l 250 293 q 243 311 243 293 q 251 345 243 332 l 374 345 q 373 366 374 363 q 182 722 368 391 q 123 806 157 769 q 82 826 111 818 q 37 834 53 834 q 31 849 31 834 q 37 871 31 865 q 108 866 58 869 q 194 863 157 863 z "},"":{"ha":186,"x_min":49,"x_max":136,"o":"m 50 528 l 50 1021 q 57 1032 49 1029 q 123 1042 90 1042 q 132 1040 129 1042 q 134 1036 134 1038 l 134 1034 l 136 538 q 133 536 134 538 q 129 532 132 533 q 119 528 126 530 q 99 524 113 526 q 65 518 85 521 q 54 517 57 517 q 50 520 50 518 q 50 525 50 522 q 50 528 50 526 m 50 -156 l 50 338 q 57 349 49 346 q 123 358 90 358 q 132 356 129 358 q 134 353 134 354 l 134 350 l 136 -144 l 133 -146 q 125 -153 129 -151 q 105 -159 121 -155 q 65 -165 90 -163 q 60 -166 62 -165 q 57 -167 58 -167 q 50 -156 50 -167 z "},"":{"ha":518,"x_min":35,"x_max":480,"o":"m 480 357 q 400 190 480 245 q 419 122 419 148 q 399 34 419 71 q 349 -21 380 -3 q 286 -47 317 -39 q 221 -56 254 -56 q 100 -9 132 -56 q 100 0 100 -7 q 99 9 99 7 q 142 71 99 71 q 197 35 160 71 q 266 -1 233 -1 q 326 21 304 -1 q 349 84 349 43 q 316 167 349 134 q 238 220 283 199 q 146 266 193 241 q 68 341 100 290 q 35 468 35 392 q 115 636 35 579 q 96 703 96 669 q 153 836 96 789 q 294 883 210 883 q 414 834 381 883 q 414 825 414 831 q 415 817 415 819 q 373 755 415 755 q 319 792 355 755 q 250 829 282 829 q 192 807 217 829 q 167 742 167 785 q 199 661 167 693 q 277 607 232 628 q 369 561 323 586 q 448 484 415 536 q 480 357 480 433 m 382 235 q 388 240 384 236 q 393 245 392 244 q 399 251 395 247 q 404 258 403 255 q 408 265 406 260 q 412 273 411 270 q 415 282 414 277 q 417 293 416 288 q 418 305 418 298 q 383 397 418 358 q 304 456 349 435 q 208 513 259 477 q 133 590 157 548 q 98 519 98 562 q 132 428 98 467 q 211 369 167 389 q 307 313 255 349 q 382 235 358 277 z "},"":{"ha":452,"x_min":37,"x_max":420,"o":"m 306 748 q 316 758 306 748 q 354 768 327 768 q 401 747 381 768 q 420 700 420 727 q 400 654 420 673 q 353 635 380 635 q 305 654 326 635 q 285 701 285 674 q 306 748 285 728 m 58 748 q 68 758 58 748 q 106 768 79 768 q 153 747 133 768 q 172 700 172 727 q 152 654 172 673 q 104 635 132 635 q 57 654 77 635 q 37 701 37 674 q 58 748 37 728 z "},"":{"ha":818,"x_min":38,"x_max":780,"o":"m 581 374 q 570 330 581 368 q 553 290 559 293 q 410 264 490 264 q 271 320 327 264 q 216 456 216 376 q 270 597 216 538 q 407 655 324 655 q 559 629 491 655 q 581 547 581 552 q 559 534 581 534 q 549 537 555 534 q 537 564 547 551 q 497 593 528 578 q 423 609 467 609 q 331 567 369 609 q 293 468 293 525 q 338 350 293 392 q 435 308 382 308 q 533 334 505 308 q 545 351 540 340 q 551 370 549 362 q 553 378 552 378 q 581 374 578 378 m 146 202 q 92 256 146 202 q 38 464 38 311 q 146 726 38 617 q 408 834 255 834 q 671 726 562 834 q 780 464 780 617 q 671 202 780 311 q 408 94 562 94 q 146 202 255 94 m 178 696 q 131 648 178 696 q 83 464 83 600 q 178 232 83 328 q 410 136 274 136 q 642 232 545 136 q 738 464 738 328 q 642 696 738 600 q 410 792 545 792 q 178 696 274 792 z "},"":{"ha":429,"x_min":38,"x_max":393,"o":"m 245 439 l 245 532 q 209 519 236 528 q 165 505 182 511 q 134 482 149 498 q 119 445 119 467 q 135 406 119 419 q 174 392 151 392 q 222 408 198 392 q 245 439 245 425 m 320 431 q 330 398 320 412 q 355 384 339 384 q 372 388 363 384 q 385 395 380 392 l 389 397 q 393 393 393 396 q 388 370 391 384 q 323 339 345 339 q 281 357 301 339 q 255 395 262 376 l 244 385 q 218 366 232 376 q 182 347 205 355 q 138 338 160 338 q 66 361 95 338 q 38 430 38 384 q 49 470 38 452 q 73 500 60 488 q 112 524 87 511 q 153 543 137 537 q 199 558 170 548 q 237 571 228 568 q 245 585 245 572 l 245 663 q 227 703 245 688 q 182 718 209 718 q 135 699 153 718 q 117 648 117 680 q 71 618 117 618 q 42 633 42 618 q 100 714 42 674 q 217 754 157 754 q 297 730 274 754 q 320 656 320 707 l 320 431 z "},"":{"ha":636,"x_min":37,"x_max":601,"o":"m 399 335 l 517 213 q 544 186 530 199 q 565 166 557 174 q 579 152 572 159 q 589 142 586 145 q 595 135 593 138 q 599 129 598 132 q 600 123 600 126 q 595 113 600 118 q 587 106 591 109 q 576 102 583 104 q 568 99 570 100 q 542 124 567 102 q 448 199 517 146 q 289 308 378 251 q 279 327 279 312 q 290 363 279 351 q 570 574 464 468 q 601 548 601 566 q 589 527 601 540 q 518 458 576 514 q 454 393 500 441 q 399 335 408 345 m 156 335 l 274 213 q 301 186 288 199 q 322 166 315 174 q 336 152 330 159 q 347 142 343 145 q 353 135 350 138 q 356 129 355 132 q 357 123 357 126 q 353 113 357 118 q 345 106 349 109 q 334 102 340 104 q 326 99 327 100 q 299 124 324 102 q 205 199 274 146 q 46 308 136 251 q 37 327 37 312 q 47 363 37 351 q 327 574 221 468 q 358 548 358 566 q 346 527 358 540 q 275 458 334 514 q 212 393 258 441 q 156 335 165 345 z "},"":{"ha":730,"x_min":39,"x_max":678,"o":"m 39 507 q 60 570 46 570 l 662 570 q 678 555 678 570 l 678 229 q 612 209 665 216 l 606 209 q 598 212 601 209 q 597 217 595 214 l 597 218 l 597 480 q 582 494 597 494 l 47 494 q 39 507 39 494 z "},"":{"ha":819,"x_min":39,"x_max":781,"o":"m 148 290 q 94 344 148 290 q 39 552 39 399 q 148 814 39 705 q 410 922 256 922 q 672 814 563 922 q 781 552 781 705 q 672 290 781 399 q 410 180 563 180 q 148 290 256 180 m 180 783 q 132 735 180 783 q 84 552 84 688 q 180 320 84 416 q 411 224 275 224 q 643 320 547 224 q 739 552 739 416 q 643 783 739 688 q 411 879 547 879 q 180 783 275 879 m 618 380 q 598 369 618 369 q 500 398 534 369 q 397 540 465 427 q 378 551 391 551 q 354 551 369 552 q 351 541 351 551 l 351 454 q 357 399 353 414 q 372 391 358 395 q 392 387 387 387 q 394 380 393 387 q 393 370 395 373 q 308 372 370 372 q 240 370 267 372 q 237 380 237 373 q 240 387 237 387 q 262 391 247 387 q 278 399 277 395 q 282 433 282 411 l 281 454 l 281 665 q 282 686 282 675 q 278 720 282 708 q 262 729 277 724 q 241 734 248 734 q 240 741 240 734 q 241 750 240 749 q 307 746 267 746 q 357 749 324 746 q 407 751 389 751 q 493 726 452 751 q 534 647 534 700 q 469 562 534 590 q 468 559 468 562 q 563 416 468 543 q 617 388 585 388 q 618 380 618 385 m 415 581 q 450 599 434 581 q 467 643 467 617 q 399 718 467 718 q 357 713 369 718 q 353 709 353 713 l 351 659 l 351 598 q 415 581 351 581 z "},"":{"ha":624,"x_min":732,"x_max":1038,"o":"m 732 758 q 749 808 732 808 l 1031 808 q 1038 799 1038 808 q 1029 755 1038 785 q 1026 749 1028 751 q 1023 746 1024 747 l 1020 746 l 741 746 q 735 749 741 746 q 732 758 732 753 z "},"":{"ha":316,"x_min":24,"x_max":292,"o":"m 64 633 q 44 653 64 633 q 24 727 24 673 q 64 821 24 781 q 159 860 103 860 q 253 821 214 860 q 292 727 292 781 q 252 632 292 671 q 159 593 213 593 q 64 633 103 593 m 75 727 q 100 667 75 692 q 159 643 125 643 q 217 667 193 643 q 241 727 241 692 q 217 786 241 762 q 159 810 193 810 q 99 785 123 810 q 75 727 75 761 z "},"":{"ha":723,"x_min":38,"x_max":688,"o":"m 666 84 q 669 84 667 84 q 675 80 671 84 q 677 69 678 76 q 671 38 674 50 q 666 20 669 26 q 662 13 663 15 q 658 9 661 11 l 655 8 l 47 8 q 45 8 46 8 q 41 13 43 8 q 39 26 38 18 q 50 77 43 56 q 54 83 52 81 q 57 84 56 84 l 60 84 l 666 84 m 400 408 l 400 148 q 339 126 400 134 q 334 125 336 126 q 331 125 332 125 q 324 136 324 125 l 324 406 q 316 412 324 412 l 46 412 q 38 426 38 412 q 49 481 38 445 q 52 487 50 486 q 57 488 54 488 l 58 488 l 317 488 q 324 496 324 488 l 324 754 q 331 764 323 761 q 387 774 368 774 l 400 766 l 400 495 q 406 488 400 488 l 677 488 q 688 481 688 488 q 674 420 688 471 q 671 414 673 416 q 667 412 669 412 l 665 412 l 406 412 q 400 408 400 412 z "},"":{"ha":458,"x_min":37,"x_max":423,"o":"m 202 806 q 103 750 149 806 q 93 753 100 747 q 79 769 85 760 q 73 784 73 779 q 75 791 73 789 q 149 852 102 826 q 241 878 197 878 q 347 836 304 878 q 391 735 391 793 q 378 665 391 699 q 335 598 365 632 q 283 543 305 564 q 215 483 260 521 q 152 430 170 445 q 151 425 151 429 q 153 420 151 420 l 339 420 q 376 428 363 420 q 393 453 388 435 l 397 469 q 404 473 399 472 q 423 465 418 473 q 395 345 418 452 l 225 346 l 53 345 q 37 373 37 353 q 42 389 37 378 q 83 434 53 401 q 132 486 114 467 q 176 536 149 505 q 220 589 203 567 q 253 637 236 612 q 278 684 270 662 q 286 722 286 705 q 264 779 286 753 q 202 806 241 806 z "},"":{"ha":429,"x_min":37,"x_max":391,"o":"m 236 878 q 312 848 274 878 q 350 772 350 819 q 336 721 350 743 q 307 688 321 699 q 260 656 292 677 q 344 619 297 656 q 391 522 391 582 q 317 386 391 437 q 149 335 244 335 q 77 347 110 335 q 37 370 45 358 l 37 380 q 47 415 37 400 q 75 430 58 430 q 123 407 95 430 q 175 384 152 384 q 258 414 222 384 q 294 503 294 445 q 270 576 294 551 q 206 602 245 602 q 136 594 198 602 q 123 620 123 606 q 136 635 123 631 q 225 675 190 646 q 260 751 260 704 q 239 793 260 777 q 190 808 218 808 q 143 795 164 808 q 109 770 122 783 q 91 757 96 757 q 77 780 84 757 q 72 804 71 803 q 236 878 132 878 z "},"":{"ha":624,"x_min":686,"x_max":914,"o":"m 859 932 q 894 924 880 932 q 911 911 907 917 q 914 899 914 905 q 817 790 914 865 q 703 715 720 715 q 686 732 686 715 q 707 771 686 736 q 759 850 728 806 q 812 920 789 894 q 859 932 825 932 z "},"":{"ha":690,"x_min":94,"x_max":685,"o":"m 260 -12 q 243 -10 251 -12 q 227 -3 235 -8 q 215 7 220 3 q 204 21 210 11 q 195 36 198 31 q 186 54 191 41 q 180 70 182 66 q 174 87 179 73 q 168 103 168 102 q 170 31 168 102 q 178 -125 172 -39 q 198 -281 184 -210 q 165 -308 182 -308 q 123 -289 153 -308 q 94 -258 94 -270 q 102 -14 94 -214 q 122 277 111 187 q 119 341 122 293 q 117 404 117 389 l 117 566 q 149 593 133 593 q 191 574 161 593 q 221 543 221 555 q 190 334 221 480 l 183 302 q 201 150 183 213 q 252 87 218 87 q 364 153 315 87 q 445 308 414 220 l 445 404 l 445 566 q 477 593 461 593 q 519 574 490 593 q 549 543 549 555 q 518 334 549 480 l 511 302 q 590 91 509 91 q 635 104 613 91 q 667 132 658 118 q 681 118 673 132 q 685 103 685 110 q 635 26 671 58 q 559 -5 600 -5 q 508 24 529 -5 q 479 87 487 54 q 464 174 472 119 q 260 -12 384 -12 z "},"":{"ha":673,"x_min":62,"x_max":616,"o":"m 385 388 l 388 66 q 420 49 388 49 q 439 55 430 49 q 448 68 448 61 q 453 400 453 129 q 448 406 453 406 q 440 404 446 406 q 422 401 434 403 q 395 397 410 399 q 385 388 385 396 m 294 884 q 369 882 334 884 q 445 879 404 879 l 598 886 q 604 863 604 880 q 598 846 604 846 q 550 838 581 846 q 515 819 519 830 q 511 678 511 806 q 512 555 511 629 q 513 475 513 480 q 519 469 513 467 l 578 480 q 583 463 583 469 q 556 429 581 435 l 521 419 q 514 412 514 415 q 524 61 514 96 q 561 41 528 50 q 610 31 594 31 q 616 15 616 31 q 610 -5 616 0 q 513 -1 585 -4 q 392 3 441 3 q 338 1 365 3 q 279 -2 311 0 q 231 -5 248 -4 q 229 16 228 0 q 233 31 229 31 q 279 41 245 31 q 316 61 313 52 q 323 248 323 90 l 323 385 q 296 395 323 395 q 125 473 189 395 q 62 636 62 552 q 134 813 62 742 q 294 884 206 884 m 388 812 q 385 458 385 597 q 396 450 385 450 l 446 458 q 453 467 453 458 q 450 814 453 779 q 439 823 450 818 q 419 829 429 829 q 388 812 388 829 z "},"":{"ha":275,"x_min":64,"x_max":221,"o":"m 87 302 q 75 314 87 302 q 64 358 64 326 q 87 414 64 391 q 142 437 110 437 q 198 414 175 437 q 221 358 221 391 q 198 302 221 326 q 142 278 175 278 q 87 302 110 278 z "},"":{"ha":624,"x_min":838,"x_max":1016,"o":"m 922 -37 l 956 -37 q 999 -56 982 -37 q 1016 -103 1016 -76 q 979 -178 1016 -149 q 888 -206 943 -206 q 842 -194 860 -206 q 840 -186 842 -193 q 838 -175 838 -180 q 844 -162 838 -168 q 857 -156 850 -156 q 880 -165 865 -156 q 907 -174 895 -174 q 950 -161 935 -174 q 966 -129 966 -148 q 952 -95 966 -107 q 924 -83 939 -83 q 888 -92 911 -83 q 880 -85 886 -92 q 875 -75 873 -79 q 897 -41 880 -66 q 918 -5 913 -16 l 947 -5 l 922 -37 z "},"":{"ha":369,"x_min":33,"x_max":332,"o":"m 52 751 q 47 753 50 751 q 41 756 43 755 q 37 760 39 757 q 34 766 35 762 q 33 773 33 769 q 37 784 33 781 q 151 836 100 810 q 220 873 201 861 l 240 884 l 243 884 q 259 853 248 884 q 247 743 247 796 l 247 461 q 258 397 247 422 q 288 385 260 391 q 327 378 316 378 q 332 357 332 378 q 331 343 332 346 q 271 345 315 343 q 198 347 228 347 q 122 345 167 347 q 62 343 77 343 q 57 361 57 346 q 62 377 57 377 q 106 383 77 377 q 138 396 136 389 q 146 438 146 418 l 146 703 q 140 759 146 746 q 121 772 134 772 q 52 751 110 772 z "},"":{"ha":502,"x_min":39,"x_max":463,"o":"m 244 718 q 162 669 191 718 q 133 557 133 621 q 168 425 133 483 q 264 368 202 368 q 342 417 316 368 q 369 530 369 467 q 337 661 369 605 q 244 718 305 718 m 254 751 q 401 689 340 751 q 463 541 463 627 q 402 395 463 456 q 254 335 342 335 q 102 396 165 335 q 39 541 39 457 q 102 690 39 628 q 254 751 164 751 z "},"":{"ha":639,"x_min":37,"x_max":601,"o":"m 69 99 q 38 123 38 107 q 39 129 38 126 q 42 136 39 132 q 48 143 45 140 q 59 154 52 146 q 74 168 66 161 q 94 188 81 175 q 119 213 107 201 l 237 335 q 182 393 228 345 q 118 458 136 441 q 47 528 58 517 q 37 548 37 540 q 41 558 37 553 q 49 565 45 563 q 60 570 53 567 q 68 574 66 574 q 346 363 174 468 q 358 327 358 350 q 347 308 358 312 q 203 209 269 258 q 109 136 138 160 q 69 99 80 111 m 312 99 q 281 123 281 107 q 283 132 281 127 q 291 142 285 136 q 304 156 297 149 q 329 179 312 163 q 363 213 346 195 l 481 335 q 426 393 472 345 q 362 458 380 441 q 281 543 282 536 q 279 548 279 545 q 283 558 279 553 q 292 565 288 563 q 302 570 296 567 q 311 574 309 574 q 590 363 414 471 q 601 327 601 351 q 591 308 601 312 q 447 209 513 258 q 352 136 381 160 q 312 99 323 111 z "},"":{"ha":909,"x_min":31,"x_max":876,"o":"m 777 -7 q 741 -5 751 -7 q 726 -2 730 -4 q 723 5 723 0 l 723 152 q 716 156 722 156 l 514 156 q 496 191 498 176 l 762 529 q 793 540 770 540 q 817 529 817 540 l 817 221 q 823 216 817 216 l 860 216 q 873 205 869 216 q 876 164 876 195 q 874 159 876 161 q 871 157 872 157 l 868 156 l 821 155 q 817 148 817 155 l 817 0 q 777 -7 810 -7 m 723 221 l 723 396 q 716 401 722 401 q 642 308 682 361 q 576 225 601 255 q 579 216 572 221 q 582 214 581 214 l 715 214 q 723 221 723 214 m 754 837 l 282 -19 q 277 -22 282 -22 q 231 4 251 -22 l 229 14 l 701 871 q 709 875 704 875 q 750 852 728 875 q 754 845 753 849 q 754 838 755 841 l 754 837 m 50 732 q 45 734 49 732 q 40 737 42 736 q 36 741 38 738 q 33 747 34 743 q 31 754 31 750 q 44 767 31 762 q 109 797 57 772 q 227 865 160 822 l 231 865 q 245 833 235 865 q 233 724 233 777 l 233 458 q 244 395 233 419 q 275 381 247 388 q 313 374 302 374 q 320 354 320 374 q 319 340 320 343 q 260 342 301 340 q 190 345 220 345 q 119 342 160 345 q 60 340 77 340 q 54 358 54 343 q 60 373 54 373 q 101 380 75 373 q 130 393 127 387 q 138 435 138 415 l 138 684 q 135 729 138 713 q 127 749 132 745 q 115 753 123 753 q 50 732 109 753 z "},"":{"ha":978,"x_min":31,"x_max":945,"o":"m 854 76 q 893 90 879 76 q 912 119 907 104 q 918 133 917 133 q 945 122 937 133 q 918 0 941 109 l 576 0 q 562 30 562 8 q 566 45 562 37 q 607 90 572 53 q 655 142 642 126 q 699 191 669 157 q 743 245 728 225 q 775 293 757 266 q 801 341 793 320 q 808 378 808 362 q 787 435 808 410 q 726 461 765 461 q 673 446 701 461 q 627 407 644 430 q 616 406 624 403 q 606 412 608 408 q 598 446 595 444 q 672 507 625 481 q 764 533 719 533 q 869 491 826 533 q 913 391 913 449 q 900 321 913 354 q 857 254 887 288 q 806 199 827 220 q 738 139 784 178 q 675 85 692 100 q 674 80 674 84 q 677 76 674 76 l 854 76 m 754 838 l 282 -19 q 277 -22 282 -22 q 231 4 251 -22 q 228 9 228 7 q 228 14 228 12 l 229 15 l 701 872 q 708 875 703 875 q 734 863 713 875 q 755 844 755 852 q 754 840 755 841 l 754 838 m 227 865 l 231 865 q 245 833 235 865 q 233 724 233 777 l 233 458 q 244 395 233 419 q 275 381 247 388 q 313 374 302 374 q 320 354 320 374 q 319 340 320 343 q 260 342 301 340 q 190 345 220 345 q 119 342 160 345 q 60 340 77 340 q 54 358 54 343 q 60 373 54 373 q 101 380 75 373 q 130 393 127 387 q 138 435 138 415 l 138 684 q 135 729 138 713 q 127 749 132 745 q 115 753 123 753 q 50 732 109 753 q 45 734 49 732 q 40 737 42 736 q 36 741 38 738 q 33 747 34 743 q 31 754 31 750 q 44 767 31 762 q 109 797 57 772 q 227 865 160 822 z "},"":{"ha":941,"x_min":34,"x_max":909,"o":"m 235 878 q 311 848 273 878 q 349 772 349 819 q 334 721 349 743 q 304 688 319 699 q 258 656 290 677 q 341 619 294 656 q 388 522 388 582 q 315 386 388 437 q 146 335 241 335 q 75 347 107 335 q 34 370 42 358 l 34 380 q 45 415 34 400 q 73 430 57 430 q 121 407 92 430 q 172 384 149 384 q 256 414 220 384 q 293 503 293 445 q 268 576 293 551 q 203 602 243 602 q 134 594 198 602 q 122 620 122 606 q 134 635 122 631 q 223 675 189 646 q 258 751 258 704 q 237 793 258 777 q 189 808 217 808 q 141 795 163 808 q 106 770 119 783 q 88 757 94 757 q 75 779 81 757 q 71 804 69 800 q 235 878 130 878 m 810 -7 q 773 -5 784 -7 q 759 -2 762 -4 q 755 5 755 0 l 755 152 q 749 156 754 156 l 547 156 q 529 191 530 176 l 795 529 q 826 540 803 540 q 849 529 849 540 l 849 221 q 856 216 849 216 l 892 216 q 905 205 902 216 q 909 164 909 195 q 907 159 909 161 q 903 157 905 157 l 901 156 l 853 155 q 849 148 849 155 l 849 0 q 810 -7 842 -7 m 755 221 l 755 396 q 749 401 754 401 q 674 308 715 361 q 609 225 633 255 q 612 216 605 221 q 614 214 613 214 l 747 214 q 755 221 755 214 m 309 -22 q 278 -9 296 -22 q 260 9 260 3 l 262 14 l 734 871 q 741 875 735 875 q 783 852 761 875 q 787 845 785 849 q 787 838 788 841 l 787 837 l 315 -19 q 309 -22 315 -22 z "},"":{"ha":420,"x_min":33,"x_max":385,"o":"m 313 -193 q 356 -205 335 -193 q 377 -247 377 -217 q 366 -293 377 -275 q 298 -307 339 -307 q 190 -278 250 -307 q 81 -189 130 -250 q 33 -56 33 -129 q 63 62 33 15 q 170 152 94 109 q 234 197 198 168 q 275 236 270 225 q 289 330 289 260 q 316 347 289 347 q 334 336 334 347 q 334 273 334 319 q 335 209 335 228 q 333 178 335 193 q 326 151 331 164 q 317 129 320 138 q 302 109 313 119 q 288 92 292 98 q 271 77 285 87 q 254 65 256 68 q 235 52 251 62 q 218 42 220 42 q 170 11 184 20 q 136 -16 156 1 q 108 -48 115 -33 q 100 -81 100 -64 q 133 -171 100 -140 q 209 -202 165 -202 q 275 -197 250 -202 q 313 -193 300 -193 m 362 559 q 374 548 362 559 q 385 503 385 536 q 362 448 385 471 q 307 426 339 426 q 251 448 274 426 q 228 503 228 471 q 251 559 228 536 q 307 583 274 583 q 362 559 339 583 z "},"":{"ha":928,"x_min":27,"x_max":903,"o":"m 495 895 l 766 179 q 806 81 791 115 q 848 48 814 61 q 898 35 882 35 q 903 9 903 35 q 901 -4 903 4 q 751 3 765 3 q 594 -4 750 3 q 589 18 589 1 q 595 35 590 35 q 636 42 612 35 q 665 60 661 49 q 667 81 667 71 q 663 123 667 99 q 654 160 658 146 l 648 175 l 593 328 q 585 334 589 334 q 481 338 532 338 q 309 331 411 338 l 302 327 l 244 178 q 221 84 221 110 q 232 57 221 65 q 271 41 244 47 q 311 35 298 35 q 315 19 315 35 q 313 -4 316 3 q 174 3 178 3 q 126 1 146 3 q 81 -1 106 0 q 33 -4 56 -3 q 27 16 27 1 q 33 35 27 35 q 75 42 49 35 q 110 61 100 49 q 174 189 138 98 l 410 795 q 417 817 412 802 q 425 839 422 831 q 433 858 427 846 q 442 875 438 869 q 452 887 446 880 q 466 897 458 894 q 483 899 473 899 l 495 895 m 338 406 q 434 403 408 403 q 557 407 494 403 l 562 414 l 452 713 l 335 411 q 338 406 335 406 m 530 1005 q 517 987 530 987 q 382 1042 491 987 q 274 1127 274 1096 q 292 1155 274 1142 q 345 1168 309 1168 q 369 1164 361 1168 q 468 1076 406 1137 q 530 1005 530 1015 z "},"":{"ha":928,"x_min":27,"x_max":903,"o":"m 495 895 l 766 179 q 806 81 791 115 q 848 48 814 61 q 898 35 882 35 q 903 9 903 35 q 901 -4 903 4 q 751 3 765 3 q 594 -4 750 3 q 589 18 589 1 q 595 35 590 35 q 636 42 612 35 q 665 60 661 49 q 667 81 667 71 q 663 123 667 99 q 654 160 658 146 l 648 175 l 593 328 q 585 334 589 334 q 481 338 532 338 q 309 331 411 338 l 302 327 l 244 178 q 221 84 221 110 q 232 57 221 65 q 271 41 244 47 q 311 35 298 35 q 315 19 315 35 q 313 -4 316 3 q 174 3 178 3 q 126 1 146 3 q 81 -1 106 0 q 33 -4 56 -3 q 27 16 27 1 q 33 35 27 35 q 75 42 49 35 q 110 61 100 49 q 174 189 138 98 l 410 795 q 417 817 412 802 q 425 839 422 831 q 433 858 427 846 q 442 875 438 869 q 452 887 446 880 q 466 897 458 894 q 483 899 473 899 l 495 895 m 338 406 q 434 403 408 403 q 557 407 494 403 l 562 414 l 452 713 l 335 411 q 338 406 335 406 m 408 1005 q 471 1076 408 1015 q 570 1164 533 1137 q 594 1168 578 1168 q 647 1155 629 1168 q 665 1127 665 1142 q 556 1042 665 1096 q 422 987 448 987 q 408 1005 408 987 z "},"":{"ha":928,"x_min":27,"x_max":903,"o":"m 495 895 l 766 179 q 806 81 791 115 q 848 48 814 61 q 898 35 882 35 q 903 9 903 35 q 901 -4 903 4 q 751 3 765 3 q 594 -4 750 3 q 589 18 589 1 q 595 35 590 35 q 636 42 612 35 q 665 60 661 49 q 667 81 667 71 q 663 123 667 99 q 654 160 658 146 l 648 175 l 593 328 q 585 334 589 334 q 481 338 532 338 q 309 331 411 338 l 302 327 l 244 178 q 221 84 221 110 q 232 57 221 65 q 271 41 244 47 q 311 35 298 35 q 315 19 315 35 q 313 -4 316 3 q 174 3 178 3 q 126 1 146 3 q 81 -1 106 0 q 33 -4 56 -3 q 27 16 27 1 q 33 35 27 35 q 75 42 49 35 q 110 61 100 49 q 174 189 138 98 l 410 795 q 417 817 412 802 q 425 839 422 831 q 433 858 427 846 q 442 875 438 869 q 452 887 446 880 q 466 897 458 894 q 483 899 473 899 l 495 895 m 338 406 q 434 403 408 403 q 557 407 494 403 l 562 414 l 452 713 l 335 411 q 338 406 335 406 m 624 947 q 481 1025 598 947 q 401 974 449 1001 q 342 947 354 947 q 328 974 328 947 q 363 1006 334 979 q 411 1050 392 1032 q 468 1112 449 1085 q 481 1123 477 1123 q 496 1112 490 1123 q 552 1047 525 1074 q 591 1013 570 1031 q 624 985 612 994 q 636 974 636 975 q 624 947 636 947 z "},"":{"ha":928,"x_min":27,"x_max":903,"o":"m 589 1039 q 658 1085 637 1039 q 666 1086 661 1086 q 678 1065 678 1086 q 641 998 678 1027 q 572 970 604 970 q 476 999 533 970 q 382 1028 419 1028 q 316 981 338 1028 q 308 979 313 979 q 296 1001 296 979 q 333 1067 296 1039 q 401 1096 370 1096 q 495 1067 439 1096 q 589 1039 551 1039 m 495 895 l 766 179 q 806 81 791 115 q 848 48 814 61 q 898 35 882 35 q 903 9 903 35 q 901 -4 903 4 q 751 3 765 3 q 594 -4 750 3 q 589 18 589 1 q 595 35 590 35 q 636 42 612 35 q 665 60 661 49 q 667 81 667 71 q 663 123 667 99 q 654 160 658 146 l 648 175 l 593 328 q 585 334 589 334 q 481 338 532 338 q 309 331 411 338 l 302 327 l 244 178 q 221 84 221 110 q 232 57 221 65 q 271 41 244 47 q 311 35 298 35 q 315 19 315 35 q 313 -4 316 3 q 174 3 178 3 q 126 1 146 3 q 81 -1 106 0 q 33 -4 56 -3 q 27 16 27 1 q 33 35 27 35 q 75 42 49 35 q 110 61 100 49 q 174 189 138 98 l 410 795 q 417 817 412 802 q 425 839 422 831 q 433 858 427 846 q 442 875 438 869 q 452 887 446 880 q 466 897 458 894 q 483 899 473 899 l 495 895 m 338 406 q 434 403 408 403 q 557 407 494 403 l 562 414 l 452 713 l 335 411 q 338 406 335 406 z "},"":{"ha":928,"x_min":27,"x_max":903,"o":"m 495 895 l 766 179 q 806 81 791 115 q 848 48 814 61 q 898 35 882 35 q 903 9 903 35 q 901 -4 903 4 q 751 3 765 3 q 594 -4 750 3 q 589 18 589 1 q 595 35 590 35 q 636 42 612 35 q 665 60 661 49 q 667 81 667 71 q 663 123 667 99 q 654 160 658 146 l 648 175 l 593 328 q 585 334 589 334 q 481 338 532 338 q 309 331 411 338 l 302 327 l 244 178 q 221 84 221 110 q 232 57 221 65 q 271 41 244 47 q 311 35 298 35 q 315 19 315 35 q 313 -4 316 3 q 174 3 178 3 q 126 1 146 3 q 81 -1 106 0 q 33 -4 56 -3 q 27 16 27 1 q 33 35 27 35 q 75 42 49 35 q 110 61 100 49 q 174 189 138 98 l 410 795 q 417 817 412 802 q 425 839 422 831 q 433 858 427 846 q 442 875 438 869 q 452 887 446 880 q 466 897 458 894 q 483 899 473 899 l 495 895 m 338 406 q 434 403 408 403 q 557 407 494 403 l 562 414 l 452 713 l 335 411 q 338 406 335 406 m 559 1007 q 550 1017 559 1007 q 540 1055 540 1027 q 559 1103 540 1084 q 608 1123 579 1123 q 656 1103 636 1123 q 675 1055 675 1084 q 656 1007 675 1027 q 608 987 636 987 q 559 1007 579 987 m 314 1007 q 304 1017 314 1007 q 294 1055 294 1027 q 314 1103 294 1084 q 362 1123 334 1123 q 410 1103 391 1123 q 430 1055 430 1084 q 410 1007 430 1027 q 362 987 391 987 q 314 1007 334 987 z "},"":{"ha":928,"x_min":79,"x_max":955,"o":"m 547 895 l 818 179 q 857 81 842 115 q 899 48 865 61 q 949 35 933 35 q 955 9 955 35 q 952 -4 955 4 q 803 3 817 3 q 646 -4 802 3 q 641 18 640 1 q 647 35 642 35 q 688 42 663 35 q 716 60 712 49 q 719 81 719 71 q 714 123 719 99 q 705 160 709 146 l 700 175 l 644 328 q 636 334 640 334 q 533 338 583 338 q 361 331 463 338 l 354 327 l 296 178 q 273 84 273 110 q 283 57 273 65 q 323 41 296 47 q 362 35 350 35 q 367 19 366 35 q 365 -4 368 3 q 225 3 229 3 q 178 1 198 3 q 132 -1 157 0 q 84 -4 107 -3 q 79 16 79 1 q 84 35 79 35 q 126 42 100 35 q 161 61 152 49 q 225 189 190 98 l 461 795 q 469 817 464 802 q 476 839 473 831 q 484 858 479 846 q 494 875 490 869 q 504 887 498 880 q 517 897 510 894 q 534 899 525 899 l 547 895 m 389 406 q 486 403 460 403 q 609 407 545 403 l 613 414 l 503 713 l 387 411 q 389 406 387 406 m 479 1073 q 468 1062 479 1073 q 457 1020 457 1051 q 479 966 457 989 q 533 944 502 944 q 585 966 563 944 q 606 1020 606 989 q 585 1073 606 1051 q 533 1095 564 1095 q 479 1073 502 1095 m 448 934 q 430 952 448 934 q 412 1020 412 970 q 448 1105 412 1070 q 533 1141 484 1141 q 616 1105 582 1141 q 651 1020 651 1070 q 616 934 651 970 q 533 898 582 898 q 448 934 484 898 z "},"":{"ha":1332,"x_min":65,"x_max":1271,"o":"m 658 403 q 674 418 674 403 l 674 709 q 662 720 674 720 q 650 711 656 720 q 464 408 650 711 q 465 403 463 403 q 560 400 536 400 q 658 403 587 400 m 553 335 q 419 328 524 335 q 412 324 419 328 l 319 175 q 274 81 279 107 q 279 54 270 64 q 353 35 298 35 q 352 19 355 35 q 346 -4 349 3 q 208 0 264 0 q 65 -4 159 0 q 65 14 62 -1 q 75 35 69 35 q 157 58 134 35 q 251 186 194 92 l 627 792 q 636 819 636 808 q 614 844 636 836 q 575 853 593 853 q 570 872 570 853 q 575 892 570 887 q 732 890 642 890 q 943 895 792 890 q 1171 901 1093 901 q 1192 797 1176 861 q 1210 716 1207 732 q 1185 709 1203 709 q 1166 719 1168 709 q 1109 814 1146 793 q 1009 836 1073 836 l 918 836 q 799 818 802 836 q 792 704 792 785 l 792 487 q 850 479 792 479 l 922 479 q 977 479 960 479 q 1013 484 994 479 q 1038 491 1032 490 q 1052 509 1043 492 q 1062 532 1061 525 q 1072 571 1063 540 q 1092 581 1073 581 q 1115 574 1108 581 l 1115 317 q 1093 312 1109 312 q 1072 323 1076 312 q 1055 378 1062 359 q 1045 399 1048 396 q 1034 408 1042 403 q 890 419 1016 419 q 792 407 792 419 l 792 197 q 804 73 792 109 q 897 60 808 60 l 962 60 q 1133 83 1088 60 q 1178 131 1153 94 q 1218 220 1203 168 q 1237 228 1221 228 q 1271 220 1263 228 q 1250 163 1264 202 q 1227 101 1236 125 q 1210 46 1219 77 q 1198 -5 1200 15 q 957 -1 1120 -5 q 735 3 793 3 l 575 -4 q 570 16 570 1 q 575 35 570 35 q 626 45 591 35 q 665 66 661 56 q 674 183 674 103 l 674 316 q 656 331 674 327 q 553 335 628 335 z "},"":{"ha":890,"x_min":60,"x_max":860,"o":"m 860 248 q 841 144 860 233 q 814 52 822 56 q 490 -8 715 -8 q 185 123 311 -8 q 60 437 60 255 q 189 767 60 629 q 505 905 317 905 q 834 871 665 905 q 831 675 831 689 q 803 655 831 655 q 785 662 789 655 q 775 698 781 680 q 749 745 769 716 q 702 795 730 774 q 623 832 674 817 q 509 848 572 848 q 282 730 376 848 q 189 465 189 613 q 227 263 189 355 q 347 111 264 171 q 541 50 429 50 q 749 129 675 50 q 782 182 768 149 q 804 238 796 216 q 815 260 811 260 q 835 258 823 260 q 853 252 846 255 l 860 248 m 503 -37 l 544 -37 q 595 -60 575 -37 q 614 -115 614 -83 q 571 -203 614 -170 q 464 -236 528 -236 q 410 -222 429 -236 q 407 -212 410 -220 q 404 -199 404 -205 q 412 -184 404 -191 q 427 -178 419 -178 q 454 -188 435 -178 q 486 -198 472 -198 q 536 -182 518 -198 q 555 -145 555 -167 q 539 -105 555 -119 q 506 -91 524 -91 q 464 -102 490 -91 q 454 -94 461 -102 q 448 -81 446 -85 q 472 -44 452 -75 q 499 0 492 -14 l 533 0 l 503 -37 z "},"":{"ha":774,"x_min":39,"x_max":745,"o":"m 206 890 q 418 895 267 890 q 644 901 568 901 q 665 797 650 861 q 684 716 681 732 q 659 709 677 709 q 640 719 642 709 q 583 814 620 793 q 483 836 547 836 l 392 836 q 273 818 275 836 q 266 704 266 785 l 266 487 q 324 479 266 479 l 396 479 q 451 479 434 479 q 487 484 468 479 q 511 491 506 490 q 526 509 517 492 q 536 532 534 525 q 545 571 537 540 q 566 581 547 581 q 589 574 582 581 l 589 317 q 567 312 583 312 q 545 323 549 312 q 529 378 536 359 q 519 399 522 396 q 507 408 515 403 q 363 419 490 419 q 266 407 266 419 l 266 197 q 278 73 266 109 q 370 60 282 60 l 435 60 q 606 83 562 60 q 652 131 627 94 q 692 220 677 168 q 711 228 694 228 q 745 220 736 228 q 724 163 738 202 q 701 101 709 125 q 684 46 693 77 q 671 -5 674 15 q 453 -3 602 -5 q 209 0 304 0 l 45 -4 q 41 18 41 0 q 45 35 41 35 q 97 45 62 35 q 138 66 132 54 q 148 194 148 83 l 148 707 q 138 823 148 787 q 98 844 134 834 q 45 853 62 853 q 39 869 39 853 q 45 892 39 887 q 206 890 115 890 m 454 1005 q 441 987 454 987 q 307 1042 415 987 q 198 1127 198 1096 q 216 1155 198 1142 q 269 1168 233 1168 q 293 1164 285 1168 q 392 1076 330 1137 q 454 1005 454 1015 z "},"":{"ha":774,"x_min":39,"x_max":745,"o":"m 206 890 q 418 895 267 890 q 644 901 568 901 q 665 797 650 861 q 684 716 681 732 q 659 709 677 709 q 640 719 642 709 q 583 814 620 793 q 483 836 547 836 l 392 836 q 273 818 275 836 q 266 704 266 785 l 266 487 q 324 479 266 479 l 396 479 q 451 479 434 479 q 487 484 468 479 q 511 491 506 490 q 526 509 517 492 q 536 532 534 525 q 545 571 537 540 q 566 581 547 581 q 589 574 582 581 l 589 317 q 567 312 583 312 q 545 323 549 312 q 529 378 536 359 q 519 399 522 396 q 507 408 515 403 q 363 419 490 419 q 266 407 266 419 l 266 197 q 278 73 266 109 q 370 60 282 60 l 435 60 q 606 83 562 60 q 652 131 627 94 q 692 220 677 168 q 711 228 694 228 q 745 220 736 228 q 724 163 738 202 q 701 101 709 125 q 684 46 693 77 q 671 -5 674 15 q 453 -3 602 -5 q 209 0 304 0 l 45 -4 q 41 18 41 0 q 45 35 41 35 q 97 45 62 35 q 138 66 132 54 q 148 194 148 83 l 148 707 q 138 823 148 787 q 98 844 134 834 q 45 853 62 853 q 39 869 39 853 q 45 892 39 887 q 206 890 115 890 m 331 1005 q 393 1076 331 1015 q 492 1164 456 1137 q 517 1168 500 1168 q 570 1155 552 1168 q 587 1127 587 1142 q 479 1042 587 1096 q 345 987 370 987 q 331 1005 331 987 z "},"":{"ha":774,"x_min":39,"x_max":745,"o":"m 206 890 q 418 895 267 890 q 644 901 568 901 q 665 797 650 861 q 684 716 681 732 q 659 709 677 709 q 640 719 642 709 q 583 814 620 793 q 483 836 547 836 l 392 836 q 273 818 275 836 q 266 704 266 785 l 266 487 q 324 479 266 479 l 396 479 q 451 479 434 479 q 487 484 468 479 q 511 491 506 490 q 526 509 517 492 q 536 532 534 525 q 545 571 537 540 q 566 581 547 581 q 589 574 582 581 l 589 317 q 567 312 583 312 q 545 323 549 312 q 529 378 536 359 q 519 399 522 396 q 507 408 515 403 q 363 419 490 419 q 266 407 266 419 l 266 197 q 278 73 266 109 q 370 60 282 60 l 435 60 q 606 83 562 60 q 652 131 627 94 q 692 220 677 168 q 711 228 694 228 q 745 220 736 228 q 724 163 738 202 q 701 101 709 125 q 684 46 693 77 q 671 -5 674 15 q 453 -3 602 -5 q 209 0 304 0 l 45 -4 q 41 18 41 0 q 45 35 41 35 q 97 45 62 35 q 138 66 132 54 q 148 194 148 83 l 148 707 q 138 823 148 787 q 98 844 134 834 q 45 853 62 853 q 39 869 39 853 q 45 892 39 887 q 206 890 115 890 m 526 947 q 384 1025 500 947 q 304 974 351 1001 q 244 947 256 947 q 231 974 231 947 q 265 1006 236 979 q 313 1050 294 1032 q 370 1112 351 1085 q 384 1123 380 1123 q 399 1112 392 1123 q 454 1047 427 1074 q 493 1013 472 1031 q 526 985 514 994 q 538 974 538 975 q 526 947 538 947 z "},"":{"ha":774,"x_min":39,"x_max":745,"o":"m 206 890 q 418 895 267 890 q 644 901 568 901 q 665 797 650 861 q 684 716 681 732 q 659 709 677 709 q 640 719 642 709 q 583 814 620 793 q 483 836 547 836 l 392 836 q 273 818 275 836 q 266 704 266 785 l 266 487 q 324 479 266 479 l 396 479 q 451 479 434 479 q 487 484 468 479 q 511 491 506 490 q 526 509 517 492 q 536 532 534 525 q 545 571 537 540 q 566 581 547 581 q 589 574 582 581 l 589 317 q 567 312 583 312 q 545 323 549 312 q 529 378 536 359 q 519 399 522 396 q 507 408 515 403 q 363 419 490 419 q 266 407 266 419 l 266 197 q 278 73 266 109 q 370 60 282 60 l 435 60 q 606 83 562 60 q 652 131 627 94 q 692 220 677 168 q 711 228 694 228 q 745 220 736 228 q 724 163 738 202 q 701 101 709 125 q 684 46 693 77 q 671 -5 674 15 q 453 -3 602 -5 q 209 0 304 0 l 45 -4 q 41 18 41 0 q 45 35 41 35 q 97 45 62 35 q 138 66 132 54 q 148 194 148 83 l 148 707 q 138 823 148 787 q 98 844 134 834 q 45 853 62 853 q 39 869 39 853 q 45 892 39 887 q 206 890 115 890 m 460 1007 q 451 1017 460 1007 q 441 1055 441 1027 q 460 1103 441 1084 q 509 1123 480 1123 q 557 1103 537 1123 q 576 1055 576 1084 q 557 1007 576 1027 q 509 987 537 987 q 460 1007 480 987 m 215 1007 q 205 1017 215 1007 q 195 1055 195 1027 q 215 1103 195 1084 q 263 1123 235 1123 q 311 1103 292 1123 q 331 1055 331 1084 q 311 1007 331 1027 q 263 987 292 987 q 215 1007 235 987 z "},"":{"ha":431,"x_min":49,"x_max":380,"o":"m 157 709 q 148 830 157 793 q 109 850 144 841 q 57 859 75 859 q 52 876 52 859 q 57 898 52 892 q 220 891 213 891 q 377 898 241 891 q 380 878 380 890 q 374 859 380 859 q 326 849 361 859 q 288 830 290 840 q 275 704 275 783 l 275 189 q 288 62 275 110 q 326 44 290 53 q 374 35 361 35 q 380 15 380 35 q 377 -4 380 4 q 220 3 241 3 q 57 -4 213 3 q 52 16 52 1 q 57 35 52 35 q 109 43 75 35 q 148 62 144 52 q 157 183 157 99 l 157 709 m 305 1005 q 292 987 305 987 q 157 1042 266 987 q 49 1127 49 1096 q 66 1155 49 1142 q 119 1168 84 1168 q 144 1164 136 1168 q 243 1076 180 1137 q 305 1005 305 1015 z "},"":{"ha":431,"x_min":52,"x_max":407,"o":"m 157 709 q 148 830 157 793 q 109 850 144 841 q 57 859 75 859 q 52 876 52 859 q 57 898 52 892 q 220 891 213 891 q 377 898 241 891 q 380 878 380 890 q 374 859 380 859 q 326 849 361 859 q 288 830 290 840 q 275 704 275 783 l 275 189 q 288 62 275 110 q 326 44 290 53 q 374 35 361 35 q 380 15 380 35 q 377 -4 380 4 q 220 3 241 3 q 57 -4 213 3 q 52 16 52 1 q 57 35 52 35 q 109 43 75 35 q 148 62 144 52 q 157 183 157 99 l 157 709 m 151 1005 q 213 1076 151 1015 q 312 1164 275 1137 q 336 1168 320 1168 q 389 1155 372 1168 q 407 1127 407 1142 q 298 1042 407 1096 q 164 987 190 987 q 151 1005 151 987 z "},"":{"ha":431,"x_min":52,"x_max":380,"o":"m 157 709 q 148 830 157 793 q 109 850 144 841 q 57 859 75 859 q 52 876 52 859 q 57 898 52 892 q 220 891 213 891 q 377 898 241 891 q 380 878 380 890 q 374 859 380 859 q 326 849 361 859 q 288 830 290 840 q 275 704 275 783 l 275 189 q 288 62 275 110 q 326 44 290 53 q 374 35 361 35 q 380 15 380 35 q 377 -4 380 4 q 220 3 241 3 q 57 -4 213 3 q 52 16 52 1 q 57 35 52 35 q 109 43 75 35 q 148 62 144 52 q 157 183 157 99 l 157 709 m 366 956 q 224 1035 340 956 q 144 983 191 1010 q 84 956 96 956 q 71 983 71 956 q 105 1015 76 989 q 153 1059 134 1042 q 210 1122 191 1095 q 224 1133 220 1133 q 239 1122 232 1133 q 294 1057 267 1084 q 333 1022 312 1040 q 366 994 354 1004 q 378 983 378 985 q 366 956 378 956 z "},"":{"ha":431,"x_min":33,"x_max":414,"o":"m 157 709 q 148 830 157 793 q 109 850 144 841 q 57 859 75 859 q 52 876 52 859 q 57 898 52 892 q 220 891 213 891 q 377 898 241 891 q 380 878 380 890 q 374 859 380 859 q 326 849 361 859 q 288 830 290 840 q 275 704 275 783 l 275 189 q 288 62 275 110 q 326 44 290 53 q 374 35 361 35 q 380 15 380 35 q 377 -4 380 4 q 220 3 241 3 q 57 -4 213 3 q 52 16 52 1 q 57 35 52 35 q 109 43 75 35 q 148 62 144 52 q 157 183 157 99 l 157 709 m 298 1007 q 288 1017 298 1007 q 278 1055 278 1027 q 298 1103 278 1084 q 346 1123 317 1123 q 394 1103 374 1123 q 414 1055 414 1084 q 394 1007 414 1027 q 346 987 374 987 q 298 1007 317 987 m 52 1007 q 42 1017 52 1007 q 33 1055 33 1027 q 52 1103 33 1084 q 100 1123 72 1123 q 149 1103 129 1123 q 168 1055 168 1084 q 149 1007 168 1027 q 100 987 129 987 q 52 1007 72 987 z "},"":{"ha":991,"x_min":69,"x_max":940,"o":"m 96 472 q 564 472 96 472 q 572 458 572 472 q 564 418 572 437 q 95 418 564 418 q 88 435 88 418 q 96 472 88 460 m 236 890 q 366 891 285 890 q 472 892 446 892 q 817 762 693 892 q 940 456 940 632 q 815 127 940 259 q 471 -4 690 -4 q 372 -1 454 -4 q 239 0 290 1 l 75 -4 q 71 16 71 0 q 75 35 71 35 q 127 45 92 35 q 168 66 161 54 q 178 194 178 83 l 178 707 q 168 823 178 787 q 128 844 164 834 q 75 853 92 853 q 69 869 69 853 q 75 892 69 887 q 236 890 145 890 m 296 726 l 296 189 q 316 85 296 132 q 389 65 321 72 q 492 58 456 58 q 729 161 648 58 q 810 461 810 263 q 725 724 810 614 q 483 833 640 833 l 476 833 q 313 811 330 833 q 296 726 296 787 z "},"":{"ha":978,"x_min":27,"x_max":945,"o":"m 589 1039 q 658 1085 637 1039 q 666 1086 661 1086 q 678 1065 678 1086 q 641 998 678 1027 q 572 970 604 970 q 476 999 533 970 q 382 1028 419 1028 q 316 981 338 1028 q 308 979 313 979 q 296 1001 296 979 q 333 1067 296 1039 q 401 1096 370 1096 q 495 1067 439 1096 q 589 1039 551 1039 m 747 711 q 738 830 747 793 q 691 851 734 841 q 631 861 648 861 q 625 877 625 861 q 631 898 625 892 q 701 893 648 897 q 791 890 754 890 q 880 894 826 890 q 943 898 933 898 q 945 878 945 890 q 940 861 945 861 q 881 850 926 861 q 833 830 836 840 q 822 704 822 788 l 822 189 q 826 -1 822 104 q 800 -7 821 -7 q 755 24 777 -7 l 229 770 l 229 191 q 239 65 229 102 q 284 45 241 56 q 340 35 327 35 q 345 19 345 35 q 343 -4 346 3 q 187 3 208 3 l 31 -4 q 27 16 27 0 q 31 35 27 35 q 93 45 50 35 q 140 68 136 56 q 153 195 153 103 l 153 728 q 144 830 153 795 q 98 850 140 841 q 37 859 56 859 q 31 876 31 859 q 37 898 31 892 q 175 895 142 895 q 283 898 245 895 q 743 233 334 806 q 747 289 747 256 l 747 711 z "},"":{"ha":987,"x_min":60,"x_max":926,"o":"m 472 848 q 269 735 343 848 q 194 475 194 623 q 229 270 194 366 q 339 109 264 174 q 514 45 414 45 q 666 101 601 45 q 762 241 731 157 q 792 419 792 324 q 757 623 792 528 q 647 783 722 719 q 472 848 572 848 m 186 121 q 123 188 186 121 q 60 445 60 255 q 186 770 60 635 q 492 905 313 905 q 799 770 671 905 q 926 445 926 635 q 799 121 926 255 q 492 -14 671 -14 q 186 121 313 -14 m 564 1005 q 551 987 564 987 q 416 1042 525 987 q 308 1127 308 1096 q 326 1155 308 1142 q 378 1168 343 1168 q 403 1164 395 1168 q 502 1076 439 1137 q 564 1005 564 1015 z "},"":{"ha":987,"x_min":60,"x_max":926,"o":"m 472 848 q 269 735 343 848 q 194 475 194 623 q 229 270 194 366 q 339 109 264 174 q 514 45 414 45 q 666 101 601 45 q 762 241 731 157 q 792 419 792 324 q 757 623 792 528 q 647 783 722 719 q 472 848 572 848 m 186 121 q 123 188 186 121 q 60 445 60 255 q 186 770 60 635 q 492 905 313 905 q 799 770 671 905 q 926 445 926 635 q 799 121 926 255 q 492 -14 671 -14 q 186 121 313 -14 m 415 1005 q 477 1076 415 1015 q 576 1164 540 1137 q 601 1168 585 1168 q 654 1155 636 1168 q 671 1127 671 1142 q 563 1042 671 1096 q 429 987 454 987 q 415 1005 415 987 z "},"":{"ha":987,"x_min":60,"x_max":926,"o":"m 472 848 q 269 735 343 848 q 194 475 194 623 q 229 270 194 366 q 339 109 264 174 q 514 45 414 45 q 666 101 601 45 q 762 241 731 157 q 792 419 792 324 q 757 623 792 528 q 647 783 722 719 q 472 848 572 848 m 186 121 q 123 188 186 121 q 60 445 60 255 q 186 770 60 635 q 492 905 313 905 q 799 770 671 905 q 926 445 926 635 q 799 121 926 255 q 492 -14 671 -14 q 186 121 313 -14 m 642 947 q 499 1025 616 947 q 419 974 467 1001 q 359 947 372 947 q 346 974 346 947 q 380 1006 351 979 q 429 1050 410 1032 q 486 1112 467 1085 q 499 1123 495 1123 q 514 1112 507 1123 q 570 1047 543 1074 q 608 1013 587 1031 q 642 985 629 994 q 654 974 654 975 q 642 947 654 947 z "},"":{"ha":987,"x_min":60,"x_max":926,"o":"m 472 848 q 269 735 343 848 q 194 475 194 623 q 229 270 194 366 q 339 109 264 174 q 514 45 414 45 q 666 101 601 45 q 762 241 731 157 q 792 419 792 324 q 757 623 792 528 q 647 783 722 719 q 472 848 572 848 m 186 121 q 123 188 186 121 q 60 445 60 255 q 186 770 60 635 q 492 905 313 905 q 799 770 671 905 q 926 445 926 635 q 799 121 926 255 q 492 -14 671 -14 q 186 121 313 -14 m 589 1039 q 658 1085 637 1039 q 666 1086 661 1086 q 678 1065 678 1086 q 641 998 678 1027 q 572 970 604 970 q 476 999 533 970 q 382 1028 419 1028 q 316 981 338 1028 q 308 979 313 979 q 296 1001 296 979 q 333 1067 296 1039 q 401 1096 370 1096 q 495 1067 439 1096 q 589 1039 551 1039 z "},"":{"ha":987,"x_min":60,"x_max":926,"o":"m 472 848 q 269 735 343 848 q 194 475 194 623 q 229 270 194 366 q 339 109 264 174 q 514 45 414 45 q 666 101 601 45 q 762 241 731 157 q 792 419 792 324 q 757 623 792 528 q 647 783 722 719 q 472 848 572 848 m 186 121 q 123 188 186 121 q 60 445 60 255 q 186 770 60 635 q 492 905 313 905 q 799 770 671 905 q 926 445 926 635 q 799 121 926 255 q 492 -14 671 -14 q 186 121 313 -14 m 574 1007 q 565 1017 574 1007 q 555 1055 555 1027 q 574 1103 555 1084 q 623 1123 594 1123 q 671 1103 651 1123 q 690 1055 690 1084 q 671 1007 690 1027 q 623 987 651 987 q 574 1007 594 987 m 329 1007 q 319 1017 329 1007 q 309 1055 309 1027 q 329 1103 309 1084 q 377 1123 349 1123 q 425 1103 406 1123 q 445 1055 445 1084 q 425 1007 445 1027 q 377 987 406 987 q 329 1007 349 987 z "},"":{"ha":562,"x_min":37,"x_max":524,"o":"m 76 81 q 53 109 69 81 q 37 146 37 136 l 224 330 q 225 334 225 331 q 222 340 225 338 l 37 526 q 54 565 37 540 q 79 590 72 590 q 85 585 80 590 l 278 393 q 283 391 281 391 l 286 392 l 477 583 q 484 587 481 587 q 507 559 491 587 q 524 521 524 532 l 340 338 q 339 334 339 336 l 339 331 l 524 146 q 510 106 524 132 q 488 81 496 81 q 477 85 481 81 l 288 275 q 282 278 285 278 q 277 275 279 278 l 83 85 q 76 81 79 81 z "},"":{"ha":944,"x_min":38,"x_max":905,"o":"m 450 848 q 247 735 321 848 q 172 475 172 623 q 208 270 172 366 q 317 109 243 174 q 492 45 392 45 q 644 101 579 45 q 740 241 709 157 q 770 419 770 324 q 735 623 770 528 q 625 783 700 719 q 450 848 551 848 m 732 905 q 760 891 743 902 q 772 875 776 880 l 205 -18 q 177 -3 193 -14 q 165 14 161 8 l 732 905 m 165 770 q 228 837 165 770 q 471 905 292 905 q 777 770 650 905 q 905 445 905 635 q 777 121 905 255 q 471 -14 650 -14 q 165 121 292 -14 q 38 445 38 255 q 165 770 38 635 z "},"":{"ha":975,"x_min":45,"x_max":948,"o":"m 213 891 q 370 898 235 891 q 373 879 373 890 q 368 859 373 859 q 319 849 354 859 q 281 830 283 840 q 269 704 269 783 l 269 401 q 334 157 269 248 q 518 66 399 66 q 750 372 750 66 l 750 711 q 741 830 750 793 q 694 851 736 841 q 633 861 651 861 q 628 877 628 861 q 633 898 628 892 q 704 893 651 897 q 793 890 757 890 q 882 894 829 890 q 945 898 936 898 q 948 878 948 890 q 943 861 948 861 q 884 850 929 861 q 836 830 838 840 q 825 704 825 788 l 825 374 q 736 82 825 164 q 486 0 648 0 q 237 95 324 0 q 151 401 151 190 l 151 709 q 141 830 151 793 q 102 850 137 841 q 50 859 68 859 q 45 876 45 859 q 50 898 45 892 q 213 891 206 891 m 574 1005 q 560 987 574 987 q 426 1042 534 987 q 317 1127 317 1096 q 335 1155 317 1142 q 388 1168 353 1168 q 412 1164 404 1168 q 511 1076 449 1137 q 574 1005 574 1015 z "},"":{"ha":975,"x_min":45,"x_max":948,"o":"m 213 891 q 370 898 235 891 q 373 879 373 890 q 368 859 373 859 q 319 849 354 859 q 281 830 283 840 q 269 704 269 783 l 269 401 q 334 157 269 248 q 518 66 399 66 q 750 372 750 66 l 750 711 q 741 830 750 793 q 694 851 736 841 q 633 861 651 861 q 628 877 628 861 q 633 898 628 892 q 704 893 651 897 q 793 890 757 890 q 882 894 829 890 q 945 898 936 898 q 948 878 948 890 q 943 861 948 861 q 884 850 929 861 q 836 830 838 840 q 825 704 825 788 l 825 374 q 736 82 825 164 q 486 0 648 0 q 237 95 324 0 q 151 401 151 190 l 151 709 q 141 830 151 793 q 102 850 137 841 q 50 859 68 859 q 45 876 45 859 q 50 898 45 892 q 213 891 206 891 m 416 1005 q 479 1076 416 1015 q 578 1164 541 1137 q 602 1168 586 1168 q 655 1155 637 1168 q 673 1127 673 1142 q 564 1042 673 1096 q 430 987 456 987 q 416 1005 416 987 z "},"":{"ha":975,"x_min":45,"x_max":948,"o":"m 213 891 q 370 898 235 891 q 373 879 373 890 q 368 859 373 859 q 319 849 354 859 q 281 830 283 840 q 269 704 269 783 l 269 401 q 334 157 269 248 q 518 66 399 66 q 750 372 750 66 l 750 711 q 741 830 750 793 q 694 851 736 841 q 633 861 651 861 q 628 877 628 861 q 633 898 628 892 q 704 893 651 897 q 793 890 757 890 q 882 894 829 890 q 945 898 936 898 q 948 878 948 890 q 943 861 948 861 q 884 850 929 861 q 836 830 838 840 q 825 704 825 788 l 825 374 q 736 82 825 164 q 486 0 648 0 q 237 95 324 0 q 151 401 151 190 l 151 709 q 141 830 151 793 q 102 850 137 841 q 50 859 68 859 q 45 876 45 859 q 50 898 45 892 q 213 891 206 891 m 647 947 q 505 1025 621 947 q 425 974 472 1001 q 365 947 377 947 q 351 974 351 947 q 386 1006 357 979 q 434 1050 415 1032 q 491 1112 472 1085 q 505 1123 500 1123 q 519 1112 513 1123 q 575 1047 548 1074 q 614 1013 593 1031 q 647 985 635 994 q 659 974 659 975 q 647 947 659 947 z "},"":{"ha":975,"x_min":45,"x_max":948,"o":"m 213 891 q 370 898 235 891 q 373 879 373 890 q 368 859 373 859 q 319 849 354 859 q 281 830 283 840 q 269 704 269 783 l 269 401 q 334 157 269 248 q 518 66 399 66 q 750 372 750 66 l 750 711 q 741 830 750 793 q 694 851 736 841 q 633 861 651 861 q 628 877 628 861 q 633 898 628 892 q 704 893 651 897 q 793 890 757 890 q 882 894 829 890 q 945 898 936 898 q 948 878 948 890 q 943 861 948 861 q 884 850 929 861 q 836 830 838 840 q 825 704 825 788 l 825 374 q 736 82 825 164 q 486 0 648 0 q 237 95 324 0 q 151 401 151 190 l 151 709 q 141 830 151 793 q 102 850 137 841 q 50 859 68 859 q 45 876 45 859 q 50 898 45 892 q 213 891 206 891 m 578 1007 q 569 1017 578 1007 q 559 1055 559 1027 q 578 1103 559 1084 q 627 1123 598 1123 q 675 1103 655 1123 q 694 1055 694 1084 q 675 1007 694 1027 q 627 987 655 987 q 578 1007 598 987 m 333 1007 q 323 1017 333 1007 q 313 1055 313 1027 q 333 1103 313 1084 q 381 1123 353 1123 q 429 1103 410 1123 q 449 1055 449 1084 q 429 1007 449 1027 q 381 987 410 987 q 333 1007 353 987 z "},"":{"ha":880,"x_min":20,"x_max":861,"o":"m 189 890 q 368 898 205 890 q 370 877 370 892 q 365 861 369 861 q 313 850 342 861 q 283 815 283 838 q 298 774 283 800 l 450 487 q 464 490 457 480 q 648 817 648 769 q 621 846 648 831 q 555 861 594 861 q 549 877 549 861 q 555 898 549 892 q 715 890 705 890 q 802 894 757 890 q 859 898 846 898 q 861 878 861 890 q 856 861 861 861 q 799 849 840 861 q 745 819 758 837 q 595 576 693 739 q 496 395 496 414 l 496 189 q 507 62 496 104 q 544 43 510 53 q 590 33 578 33 q 595 15 595 33 q 593 -4 595 4 q 441 3 457 3 q 281 -4 437 3 q 275 15 275 1 q 281 33 275 33 q 330 42 297 33 q 368 62 363 52 q 378 193 378 104 l 378 362 q 349 437 378 381 q 180 745 320 494 q 147 801 159 785 q 114 831 136 817 q 69 852 99 842 q 26 861 39 861 q 20 876 20 861 q 26 898 20 892 q 99 893 47 897 q 189 890 151 890 m 416 1005 q 479 1076 416 1015 q 578 1164 541 1137 q 602 1168 586 1168 q 655 1155 637 1168 q 673 1127 673 1142 q 564 1042 673 1096 q 430 987 456 987 q 416 1005 416 987 z "},"":{"ha":754,"x_min":68,"x_max":700,"o":"m 236 891 q 393 898 258 891 q 396 878 396 890 q 391 859 396 859 q 342 849 377 859 q 304 830 307 840 q 292 711 292 784 l 292 684 q 297 674 292 674 q 315 679 298 674 q 360 688 331 684 q 425 693 389 693 q 515 680 469 693 q 603 639 560 666 q 673 562 646 612 q 700 445 700 511 q 683 360 700 406 q 633 272 666 315 q 546 201 601 229 q 423 174 491 174 q 319 212 347 174 q 315 243 311 221 q 319 247 316 248 q 410 232 359 232 q 526 289 477 232 q 575 425 575 346 q 533 577 575 521 q 403 633 491 633 q 308 624 335 633 q 292 574 292 618 l 292 189 q 304 62 292 110 q 342 44 307 53 q 391 35 377 35 q 396 15 396 35 q 393 -4 396 4 q 236 3 258 3 q 73 -4 229 3 q 68 16 68 1 q 73 35 68 35 q 125 43 91 35 q 164 62 160 52 q 174 183 174 99 l 174 709 q 164 830 174 793 q 125 850 160 841 q 73 859 91 859 q 68 876 68 859 q 73 898 68 892 q 236 891 229 891 z "},"":{"ha":784,"x_min":64,"x_max":720,"o":"m 628 761 q 599 665 628 709 q 534 594 570 620 q 470 539 499 568 q 441 487 441 510 q 475 422 441 450 q 574 359 510 393 q 625 330 605 343 q 669 296 644 317 q 707 246 694 274 q 720 186 720 218 q 669 45 720 104 q 541 -14 617 -14 q 439 5 484 -14 q 381 45 393 24 q 427 123 381 123 q 454 109 442 123 q 475 77 467 95 q 502 45 484 60 q 543 31 519 31 q 604 60 581 31 q 628 138 628 88 q 601 203 628 175 q 534 252 574 232 q 456 294 495 271 q 389 353 416 316 q 362 441 362 391 q 379 504 362 476 q 420 553 396 532 q 469 597 445 574 q 509 659 492 621 q 526 745 526 696 q 492 854 526 812 q 393 895 457 895 q 322 873 350 895 q 282 810 294 850 q 266 732 270 769 q 262 644 262 694 l 263 183 q 273 62 263 99 q 304 44 275 53 q 345 35 332 35 q 350 19 349 35 q 349 -4 351 3 q 210 3 213 3 q 69 -4 209 3 q 64 16 64 1 q 69 35 64 35 q 113 44 85 35 q 144 62 141 53 q 156 183 156 110 q 157 490 157 370 q 151 500 157 500 l 79 500 q 75 509 75 500 q 82 543 75 522 q 95 564 90 564 l 151 564 q 157 572 157 564 l 157 594 q 220 852 157 764 q 389 940 282 940 q 563 896 498 940 q 628 761 628 852 z "},"":{"ha":574,"x_min":53,"x_max":566,"o":"m 190 87 q 201 78 190 87 q 250 68 213 68 q 320 90 286 68 q 354 136 354 113 l 354 275 q 301 256 343 270 q 235 233 259 243 q 189 199 212 222 q 167 144 167 175 q 190 87 167 107 m 317 591 q 425 555 392 591 q 457 439 457 519 l 457 126 q 472 79 457 98 q 513 60 487 60 q 560 79 532 60 q 566 68 566 79 q 559 39 566 50 q 464 -8 503 -8 q 404 18 433 -8 q 365 72 376 43 q 355 63 363 72 q 331 43 346 54 q 296 19 316 31 q 250 -1 277 7 q 197 -9 224 -9 q 94 24 134 -9 q 53 123 53 57 q 68 180 53 153 q 103 223 83 206 q 159 258 123 240 q 219 284 194 275 q 285 307 244 293 q 342 327 326 320 q 354 347 354 331 l 354 449 q 327 516 354 492 q 262 540 300 540 q 194 512 221 540 q 167 439 167 484 q 111 392 167 392 q 58 418 73 392 q 144 534 58 476 q 317 591 229 591 m 118 859 q 121 870 118 864 q 138 884 125 876 q 174 891 152 891 q 220 879 208 891 q 274 807 243 852 q 326 729 305 762 q 346 692 346 696 q 330 674 346 674 q 215 749 312 674 q 118 859 118 825 z "},"":{"ha":574,"x_min":53,"x_max":566,"o":"m 190 87 q 201 78 190 87 q 250 68 213 68 q 320 90 286 68 q 354 136 354 113 l 354 275 q 301 256 343 270 q 235 233 259 243 q 189 199 212 222 q 167 144 167 175 q 190 87 167 107 m 317 591 q 425 555 392 591 q 457 439 457 519 l 457 126 q 472 79 457 98 q 513 60 487 60 q 560 79 532 60 q 566 68 566 79 q 559 39 566 50 q 464 -8 503 -8 q 404 18 433 -8 q 365 72 376 43 q 355 63 363 72 q 331 43 346 54 q 296 19 316 31 q 250 -1 277 7 q 197 -9 224 -9 q 94 24 134 -9 q 53 123 53 57 q 68 180 53 153 q 103 223 83 206 q 159 258 123 240 q 219 284 194 275 q 285 307 244 293 q 342 327 326 320 q 354 347 354 331 l 354 449 q 327 516 354 492 q 262 540 300 540 q 194 512 221 540 q 167 439 167 484 q 111 392 167 392 q 58 418 73 392 q 144 534 58 476 q 317 591 229 591 m 391 891 q 426 884 412 891 q 443 870 439 876 q 446 859 446 864 q 349 749 446 825 q 235 674 252 674 q 218 692 218 674 q 239 730 218 696 q 291 809 260 765 q 345 879 321 853 q 391 891 357 891 z "},"":{"ha":574,"x_min":53,"x_max":566,"o":"m 190 87 q 201 78 190 87 q 250 68 213 68 q 320 90 286 68 q 354 136 354 113 l 354 275 q 301 256 343 270 q 235 233 259 243 q 189 199 212 222 q 167 144 167 175 q 190 87 167 107 m 317 591 q 425 555 392 591 q 457 439 457 519 l 457 126 q 472 79 457 98 q 513 60 487 60 q 560 79 532 60 q 566 68 566 79 q 559 39 566 50 q 464 -8 503 -8 q 404 18 433 -8 q 365 72 376 43 q 355 63 363 72 q 331 43 346 54 q 296 19 316 31 q 250 -1 277 7 q 197 -9 224 -9 q 94 24 134 -9 q 53 123 53 57 q 68 180 53 153 q 103 223 83 206 q 159 258 123 240 q 219 284 194 275 q 285 307 244 293 q 342 327 326 320 q 354 347 354 331 l 354 449 q 327 516 354 492 q 262 540 300 540 q 194 512 221 540 q 167 439 167 484 q 111 392 167 392 q 58 418 73 392 q 144 534 58 476 q 317 591 229 591 m 401 633 q 349 664 391 633 q 275 723 307 694 q 205 664 245 694 q 153 633 164 633 q 141 665 141 633 q 171 699 145 670 q 214 750 197 728 q 264 822 244 787 q 275 836 273 836 q 289 822 282 836 q 338 747 321 769 q 371 708 353 728 q 400 677 389 688 q 411 665 411 666 q 401 633 411 633 z "},"":{"ha":574,"x_min":53,"x_max":566,"o":"m 190 87 q 201 78 190 87 q 250 68 213 68 q 320 90 286 68 q 354 136 354 113 l 354 275 q 301 256 343 270 q 235 233 259 243 q 189 199 212 222 q 167 144 167 175 q 190 87 167 107 m 317 591 q 425 555 392 591 q 457 439 457 519 l 457 126 q 472 79 457 98 q 513 60 487 60 q 560 79 532 60 q 566 68 566 79 q 559 39 566 50 q 464 -8 503 -8 q 404 18 433 -8 q 365 72 376 43 q 355 63 363 72 q 331 43 346 54 q 296 19 316 31 q 250 -1 277 7 q 197 -9 224 -9 q 94 24 134 -9 q 53 123 53 57 q 68 180 53 153 q 103 223 83 206 q 159 258 123 240 q 219 284 194 275 q 285 307 244 293 q 342 327 326 320 q 354 347 354 331 l 354 449 q 327 516 354 492 q 262 540 300 540 q 194 512 221 540 q 167 439 167 484 q 111 392 167 392 q 58 418 73 392 q 144 534 58 476 q 317 591 229 591 z "},"":{"ha":574,"x_min":53,"x_max":566,"o":"m 190 87 q 201 78 190 87 q 250 68 213 68 q 320 90 286 68 q 354 136 354 113 l 354 275 q 301 256 343 270 q 235 233 259 243 q 189 199 212 222 q 167 144 167 175 q 190 87 167 107 m 317 591 q 425 555 392 591 q 457 439 457 519 l 457 126 q 472 79 457 98 q 513 60 487 60 q 560 79 532 60 q 566 68 566 79 q 559 39 566 50 q 464 -8 503 -8 q 404 18 433 -8 q 365 72 376 43 q 355 63 363 72 q 331 43 346 54 q 296 19 316 31 q 250 -1 277 7 q 197 -9 224 -9 q 94 24 134 -9 q 53 123 53 57 q 68 180 53 153 q 103 223 83 206 q 159 258 123 240 q 219 284 194 275 q 285 307 244 293 q 342 327 326 320 q 354 347 354 331 l 354 449 q 327 516 354 492 q 262 540 300 540 q 194 512 221 540 q 167 439 167 484 q 111 392 167 392 q 58 418 73 392 q 144 534 58 476 q 317 591 229 591 m 345 787 q 356 797 345 787 q 393 807 366 807 q 440 787 420 807 q 460 739 460 766 q 439 693 460 712 q 392 674 419 674 q 345 694 365 674 q 324 741 324 713 q 345 787 324 768 m 97 787 q 107 797 97 787 q 145 807 118 807 q 192 787 172 807 q 212 739 212 766 q 191 693 212 712 q 144 674 171 674 q 96 694 117 674 q 76 741 76 713 q 97 787 76 768 z "},"":{"ha":574,"x_min":53,"x_max":566,"o":"m 190 87 q 201 78 190 87 q 250 68 213 68 q 320 90 286 68 q 354 136 354 113 l 354 275 q 301 256 343 270 q 235 233 259 243 q 189 199 212 222 q 167 144 167 175 q 190 87 167 107 m 317 591 q 425 555 392 591 q 457 439 457 519 l 457 126 q 472 79 457 98 q 513 60 487 60 q 560 79 532 60 q 566 68 566 79 q 559 39 566 50 q 464 -8 503 -8 q 404 18 433 -8 q 365 72 376 43 q 355 63 363 72 q 331 43 346 54 q 296 19 316 31 q 250 -1 277 7 q 197 -9 224 -9 q 94 24 134 -9 q 53 123 53 57 q 68 180 53 153 q 103 223 83 206 q 159 258 123 240 q 219 284 194 275 q 285 307 244 293 q 342 327 326 320 q 354 347 354 331 l 354 449 q 327 516 354 492 q 262 540 300 540 q 194 512 221 540 q 167 439 167 484 q 111 392 167 392 q 58 418 73 392 q 144 534 58 476 q 317 591 229 591 m 225 849 q 214 838 225 849 q 203 796 203 827 q 225 743 203 765 q 278 720 247 720 q 330 743 308 720 q 351 796 351 765 q 330 849 351 827 q 278 871 309 871 q 225 849 247 871 m 194 710 q 176 728 194 710 q 159 796 159 746 q 194 882 159 846 q 278 917 229 917 q 361 882 327 917 q 396 796 396 846 q 361 710 396 746 q 278 674 327 674 q 194 710 229 674 z "},"":{"ha":916,"x_min":68,"x_max":856,"o":"m 369 136 l 369 275 q 182 144 182 240 q 205 87 182 107 q 264 68 228 68 q 335 90 301 68 q 369 136 369 113 m 629 541 q 523 480 563 541 q 483 362 483 419 q 491 354 483 354 q 642 366 547 357 q 745 377 736 374 q 751 389 751 378 q 715 484 751 426 q 629 541 678 541 m 332 591 q 414 572 377 591 q 463 518 450 552 q 635 591 536 591 q 743 569 697 591 q 812 509 789 547 q 846 435 836 472 q 856 359 856 399 q 855 348 856 353 q 853 339 854 343 q 851 332 852 335 q 847 328 850 330 q 843 325 844 326 q 837 323 842 324 q 831 322 831 323 q 824 321 830 321 q 817 321 818 321 q 492 301 680 311 q 481 290 481 301 q 541 141 481 203 q 684 79 600 79 q 745 86 715 79 q 792 102 776 94 q 826 121 808 110 q 845 133 844 133 q 853 115 853 133 q 844 88 853 98 q 651 -8 762 -8 q 431 106 509 -8 q 338 28 399 66 q 212 -9 278 -9 q 109 24 149 -9 q 68 123 68 57 q 97 205 68 168 q 173 267 126 243 q 265 304 220 290 q 357 327 311 319 q 369 347 369 328 l 369 461 q 341 517 369 495 q 277 540 313 540 q 209 512 236 540 q 182 439 182 484 q 126 392 182 392 q 73 418 88 392 q 159 534 73 476 q 332 591 244 591 z "},"":{"ha":549,"x_min":50,"x_max":528,"o":"m 313 591 q 519 522 463 591 q 469 431 519 431 q 434 441 446 431 q 403 479 422 452 q 302 541 361 541 q 201 488 247 541 q 156 331 156 435 q 210 151 156 222 q 358 79 263 79 q 412 84 387 79 q 456 97 438 90 q 488 112 475 104 q 510 126 500 119 l 519 133 q 528 115 528 133 q 519 91 528 104 q 439 22 492 53 q 324 -8 387 -8 q 131 77 212 -8 q 50 283 50 161 q 118 500 50 408 q 313 591 186 591 m 297 -31 l 331 -31 q 374 -51 357 -31 q 391 -98 391 -71 q 354 -172 391 -144 q 263 -201 317 -201 q 217 -189 235 -201 q 215 -181 217 -187 q 213 -170 213 -175 q 219 -157 213 -163 q 232 -151 225 -151 q 255 -159 240 -151 q 282 -168 270 -168 q 325 -155 309 -168 q 340 -123 340 -142 q 327 -90 340 -102 q 298 -77 313 -77 q 263 -87 286 -77 q 254 -80 260 -87 q 250 -69 248 -73 q 271 -36 255 -61 q 293 0 288 -11 l 321 0 l 297 -31 z "},"":{"ha":583,"x_min":50,"x_max":549,"o":"m 305 541 q 197 481 235 541 q 160 381 160 420 q 168 372 160 372 l 433 372 q 439 385 439 372 q 403 485 439 429 q 305 541 366 541 m 319 591 q 429 568 381 591 q 501 507 476 544 q 538 431 526 469 q 549 354 549 392 q 541 321 549 327 q 510 315 533 315 l 168 315 q 157 308 157 315 q 209 151 157 222 q 358 79 260 79 q 412 84 387 79 q 456 97 438 90 q 488 112 475 104 q 510 126 500 119 l 519 133 q 528 115 528 133 q 519 91 528 104 q 439 22 492 53 q 324 -8 387 -8 q 131 77 212 -8 q 50 283 50 161 q 127 509 50 426 q 319 591 203 591 m 142 859 q 146 870 142 864 q 163 884 149 876 q 198 891 176 891 q 244 879 232 891 q 298 807 267 852 q 350 729 330 762 q 370 692 370 696 q 354 674 370 674 q 239 749 336 674 q 142 859 142 825 z "},"":{"ha":583,"x_min":50,"x_max":549,"o":"m 305 541 q 197 481 235 541 q 160 381 160 420 q 168 372 160 372 l 433 372 q 439 385 439 372 q 403 485 439 429 q 305 541 366 541 m 319 591 q 429 568 381 591 q 501 507 476 544 q 538 431 526 469 q 549 354 549 392 q 541 321 549 327 q 510 315 533 315 l 168 315 q 157 308 157 315 q 209 151 157 222 q 358 79 260 79 q 412 84 387 79 q 456 97 438 90 q 488 112 475 104 q 510 126 500 119 l 519 133 q 528 115 528 133 q 519 91 528 104 q 439 22 492 53 q 324 -8 387 -8 q 131 77 212 -8 q 50 283 50 161 q 127 509 50 426 q 319 591 203 591 m 407 891 q 442 884 429 891 q 459 870 456 876 q 463 859 463 864 q 366 749 463 825 q 251 674 269 674 q 235 692 235 674 q 256 730 235 696 q 307 809 277 765 q 361 879 338 853 q 407 891 373 891 z "},"":{"ha":583,"x_min":50,"x_max":549,"o":"m 431 633 q 378 664 420 633 q 305 723 336 694 q 235 664 275 694 q 183 633 194 633 q 171 665 171 633 q 201 699 175 670 q 244 750 227 728 q 294 822 274 787 q 305 836 302 836 q 319 822 312 836 q 368 747 351 769 q 401 708 382 728 q 430 677 419 688 q 441 665 441 666 q 431 633 441 633 m 305 541 q 197 481 235 541 q 160 381 160 420 q 168 372 160 372 l 433 372 q 439 385 439 372 q 403 485 439 429 q 305 541 366 541 m 319 591 q 429 568 381 591 q 501 507 476 544 q 538 431 526 469 q 549 354 549 392 q 541 321 549 327 q 510 315 533 315 l 168 315 q 157 308 157 315 q 209 151 157 222 q 358 79 260 79 q 412 84 387 79 q 456 97 438 90 q 488 112 475 104 q 510 126 500 119 l 519 133 q 528 115 528 133 q 519 91 528 104 q 439 22 492 53 q 324 -8 387 -8 q 131 77 212 -8 q 50 283 50 161 q 127 509 50 426 q 319 591 203 591 z "},"":{"ha":583,"x_min":50,"x_max":549,"o":"m 305 541 q 197 481 235 541 q 160 381 160 420 q 168 372 160 372 l 433 372 q 439 385 439 372 q 403 485 439 429 q 305 541 366 541 m 319 591 q 429 568 381 591 q 501 507 476 544 q 538 431 526 469 q 549 354 549 392 q 541 321 549 327 q 510 315 533 315 l 168 315 q 157 308 157 315 q 209 151 157 222 q 358 79 260 79 q 412 84 387 79 q 456 97 438 90 q 488 112 475 104 q 510 126 500 119 l 519 133 q 528 115 528 133 q 519 91 528 104 q 439 22 492 53 q 324 -8 387 -8 q 131 77 212 -8 q 50 283 50 161 q 127 509 50 426 q 319 591 203 591 m 386 787 q 396 797 386 787 q 434 807 407 807 q 481 787 461 807 q 500 739 500 766 q 480 693 500 712 q 433 674 460 674 q 385 694 406 674 q 365 741 365 713 q 386 787 365 768 m 138 787 q 148 797 138 787 q 186 807 159 807 q 233 787 213 807 q 252 739 252 766 q 232 693 252 712 q 184 674 212 674 q 137 694 157 674 q 117 741 117 713 q 138 787 117 768 z "},"":{"ha":382,"x_min":18,"x_max":338,"o":"m 241 183 q 252 62 241 104 q 288 44 255 53 q 334 35 320 35 q 339 19 338 35 q 338 -4 340 3 q 193 3 202 3 q 45 -4 184 3 q 39 18 39 1 q 45 35 39 35 q 93 44 61 35 q 127 62 125 53 q 137 157 137 102 l 137 414 q 118 487 137 467 q 85 509 104 503 q 52 515 65 515 q 39 518 39 515 q 47 552 39 551 q 235 587 191 574 q 239 588 236 587 q 241 589 241 589 q 248 577 247 589 q 248 560 250 566 q 241 463 241 506 l 241 183 m 18 859 q 21 870 18 864 q 38 884 24 876 q 73 891 52 891 q 119 879 107 891 q 174 807 142 852 q 225 729 205 762 q 245 692 245 696 q 229 674 245 674 q 115 749 212 674 q 18 859 18 825 z "},"":{"ha":382,"x_min":39,"x_max":338,"o":"m 241 183 q 252 62 241 104 q 288 44 255 53 q 334 35 320 35 q 339 19 338 35 q 338 -4 340 3 q 193 3 202 3 q 45 -4 184 3 q 39 18 39 1 q 45 35 39 35 q 93 44 61 35 q 127 62 125 53 q 137 157 137 102 l 137 414 q 118 487 137 467 q 85 509 104 503 q 52 515 65 515 q 39 518 39 515 q 47 552 39 551 q 235 587 191 574 q 239 588 236 587 q 241 589 241 589 q 248 577 247 589 q 248 560 250 566 q 241 463 241 506 l 241 183 m 269 891 q 304 884 290 891 q 321 870 317 876 q 324 859 324 864 q 227 749 324 825 q 113 674 130 674 q 96 692 96 674 q 117 730 96 696 q 169 809 138 765 q 222 879 199 853 q 269 891 235 891 z "},"":{"ha":382,"x_min":39,"x_max":338,"o":"m 302 633 q 250 664 292 633 q 176 723 208 694 q 106 664 146 694 q 54 633 65 633 q 42 665 42 633 q 72 699 46 670 q 115 750 98 728 q 165 822 145 787 q 176 836 174 836 q 190 822 183 836 q 239 747 222 769 q 272 708 254 728 q 301 677 290 688 q 312 665 312 666 q 302 633 312 633 m 241 183 q 252 62 241 104 q 288 44 255 53 q 334 35 320 35 q 339 19 338 35 q 338 -4 340 3 q 193 3 202 3 q 45 -4 184 3 q 39 18 39 1 q 45 35 39 35 q 93 44 61 35 q 127 62 125 53 q 137 157 137 102 l 137 414 q 118 487 137 467 q 85 509 104 503 q 52 515 65 515 q 39 518 39 515 q 47 552 39 551 q 235 587 191 574 q 239 588 236 587 q 241 589 241 589 q 248 577 247 589 q 248 560 250 566 q 241 463 241 506 l 241 183 z "},"":{"ha":463,"x_min":83,"x_max":435,"o":"m 300 183 q 311 62 300 104 q 346 44 313 53 q 392 35 378 35 q 397 19 396 35 q 396 -4 399 3 q 251 3 260 3 q 103 -4 243 3 q 98 18 98 1 q 103 35 98 35 q 151 44 119 35 q 186 62 183 53 q 195 157 195 102 l 195 414 q 176 487 195 467 q 143 509 163 503 q 111 515 123 515 q 98 518 98 515 q 106 552 98 551 q 293 587 250 574 q 297 588 294 587 q 300 589 300 589 q 307 577 305 589 q 307 560 308 566 q 300 463 300 506 l 300 183 m 321 787 q 331 797 321 787 q 369 807 342 807 q 416 787 396 807 q 435 739 435 766 q 415 693 435 712 q 368 674 395 674 q 320 694 340 674 q 300 741 300 713 q 321 787 300 768 m 104 787 q 114 797 104 787 q 152 807 125 807 q 199 787 179 807 q 218 739 218 766 q 198 693 218 712 q 151 674 178 674 q 103 694 123 674 q 83 741 83 713 q 104 787 83 768 z "},"":{"ha":697,"x_min":38,"x_max":613,"o":"m 483 956 q 507 914 513 920 l 161 690 q 138 734 130 726 l 483 956 m 330 594 q 410 582 369 594 q 467 553 452 570 q 360 738 448 647 q 98 901 273 829 q 104 921 98 909 q 117 933 110 933 q 258 885 189 917 q 392 802 327 853 q 506 686 457 750 q 584 536 555 623 q 613 353 613 449 q 537 96 613 201 q 346 -9 461 -9 q 124 82 210 -9 q 38 292 38 174 q 123 500 38 406 q 330 594 209 594 m 312 540 q 199 469 243 540 q 155 301 155 399 q 208 121 155 199 q 334 43 260 43 q 452 117 410 43 q 495 296 495 190 q 469 458 495 425 q 312 540 407 540 z "},"":{"ha":736,"x_min":39,"x_max":704,"o":"m 437 594 q 570 526 532 594 q 608 307 608 458 l 608 183 q 618 62 608 104 q 654 44 621 53 q 700 35 686 35 q 705 19 704 35 q 704 -4 707 3 q 559 3 568 3 q 416 -4 556 3 q 411 18 411 1 q 416 35 411 35 q 462 44 433 35 q 494 62 491 53 q 503 157 503 102 l 503 293 q 471 465 503 419 q 365 511 438 511 q 281 479 321 511 q 241 422 241 448 l 241 183 q 252 62 241 104 q 288 44 255 53 q 334 35 320 35 q 339 19 338 35 q 338 -4 340 3 q 193 3 202 3 q 45 -4 184 3 q 39 18 39 1 q 45 35 39 35 q 93 44 61 35 q 127 62 125 53 q 137 157 137 102 l 137 414 q 118 487 137 467 q 85 509 104 503 q 52 515 65 515 q 39 518 39 515 q 47 552 39 551 q 235 587 191 574 q 239 588 236 587 q 241 589 241 589 q 248 577 247 589 q 248 560 250 566 q 243 506 243 522 q 245 500 243 500 q 250 503 247 500 q 334 565 281 536 q 437 594 388 594 z "},"":{"ha":692,"x_min":50,"x_max":640,"o":"m 330 540 q 212 474 258 540 q 167 313 167 408 q 224 123 167 202 q 359 43 282 43 q 477 111 431 43 q 524 274 524 179 q 465 462 524 384 q 330 540 407 540 m 345 593 q 553 505 467 593 q 640 293 640 416 q 555 79 640 168 q 347 -9 471 -9 q 137 79 224 -9 q 50 293 50 168 q 134 506 50 419 q 345 593 218 593 m 214 859 q 218 870 214 864 q 235 884 221 876 q 270 891 248 891 q 316 879 304 891 q 370 807 339 852 q 422 729 401 762 q 442 692 442 696 q 426 674 442 674 q 311 749 408 674 q 214 859 214 825 z "},"":{"ha":692,"x_min":50,"x_max":640,"o":"m 330 540 q 212 474 258 540 q 167 313 167 408 q 224 123 167 202 q 359 43 282 43 q 477 111 431 43 q 524 274 524 179 q 465 462 524 384 q 330 540 407 540 m 345 593 q 553 505 467 593 q 640 293 640 416 q 555 79 640 168 q 347 -9 471 -9 q 137 79 224 -9 q 50 293 50 168 q 134 506 50 419 q 345 593 218 593 m 438 891 q 473 884 460 891 q 490 870 487 876 q 494 859 494 864 q 397 749 494 825 q 282 674 300 674 q 266 692 266 674 q 287 730 266 696 q 338 809 308 765 q 392 879 369 853 q 438 891 404 891 z "},"":{"ha":692,"x_min":50,"x_max":640,"o":"m 467 633 q 414 664 456 633 q 340 723 372 694 q 270 664 311 694 q 218 633 229 633 q 206 665 206 633 q 236 699 210 670 q 279 750 262 728 q 330 822 309 787 q 340 836 338 836 q 354 822 347 836 q 403 747 387 769 q 436 708 418 728 q 465 677 454 688 q 476 665 476 666 q 467 633 476 633 m 330 540 q 212 474 258 540 q 167 313 167 408 q 224 123 167 202 q 359 43 282 43 q 477 111 431 43 q 524 274 524 179 q 465 462 524 384 q 330 540 407 540 m 345 593 q 553 505 467 593 q 640 293 640 416 q 555 79 640 168 q 347 -9 471 -9 q 137 79 224 -9 q 50 293 50 168 q 134 506 50 419 q 345 593 218 593 z "},"":{"ha":692,"x_min":50,"x_max":640,"o":"m 330 540 q 212 474 258 540 q 167 313 167 408 q 224 123 167 202 q 359 43 282 43 q 477 111 431 43 q 524 274 524 179 q 465 462 524 384 q 330 540 407 540 m 345 593 q 553 505 467 593 q 640 293 640 416 q 555 79 640 168 q 347 -9 471 -9 q 137 79 224 -9 q 50 293 50 168 q 134 506 50 419 q 345 593 218 593 z "},"":{"ha":692,"x_min":50,"x_max":640,"o":"m 330 540 q 212 474 258 540 q 167 313 167 408 q 224 123 167 202 q 359 43 282 43 q 477 111 431 43 q 524 274 524 179 q 465 462 524 384 q 330 540 407 540 m 345 593 q 553 505 467 593 q 640 293 640 416 q 555 79 640 168 q 347 -9 471 -9 q 137 79 224 -9 q 50 293 50 168 q 134 506 50 419 q 345 593 218 593 m 421 787 q 432 797 421 787 q 469 807 442 807 q 516 787 496 807 q 536 739 536 766 q 515 693 536 712 q 468 674 495 674 q 420 694 441 674 q 400 741 400 713 q 421 787 400 768 m 173 787 q 183 797 173 787 q 221 807 194 807 q 268 787 248 807 q 288 739 288 766 q 267 693 288 712 q 220 674 247 674 q 172 694 193 674 q 152 741 152 713 q 173 787 152 768 z "},"":{"ha":716,"x_min":38,"x_max":675,"o":"m 355 529 q 310 546 328 529 q 289 590 292 563 l 289 595 q 309 641 289 621 q 355 661 330 661 q 401 644 382 661 q 422 601 419 628 l 422 594 q 401 549 422 570 q 355 529 381 529 m 355 7 q 310 24 328 7 q 289 71 292 42 l 289 76 q 309 122 289 102 q 355 142 330 142 q 401 124 382 142 q 422 77 419 106 l 422 75 q 401 28 422 50 q 355 7 381 7 m 38 304 q 43 347 38 317 q 57 377 47 377 l 666 377 q 675 363 675 376 q 665 301 675 345 q 661 295 663 297 q 656 293 658 293 l 654 292 l 46 292 q 41 294 46 292 q 38 304 38 298 z "},"":{"ha":723,"x_min":38,"x_max":628,"o":"m 174 -11 q 137 18 133 9 l 503 593 q 540 566 544 575 l 174 -11 m 347 43 q 465 111 419 43 q 511 274 511 179 q 453 462 511 384 q 317 540 395 540 q 200 474 245 540 q 155 313 155 408 q 212 123 155 202 q 347 43 270 43 m 332 593 q 541 505 454 593 q 628 293 628 416 q 543 79 628 168 q 335 -9 458 -9 q 125 79 212 -9 q 38 293 38 168 q 122 506 38 419 q 332 593 206 593 z "},"":{"ha":701,"x_min":39,"x_max":684,"o":"m 590 463 l 590 191 q 600 88 590 133 q 614 73 602 79 q 640 66 627 68 q 667 65 654 65 l 680 64 q 684 49 684 62 q 680 36 684 45 q 673 27 677 27 q 627 22 652 26 q 581 12 602 18 q 540 1 559 7 q 510 -8 521 -4 l 498 -11 q 487 11 487 -11 l 487 80 l 484 87 q 307 -9 395 -9 q 220 16 256 -9 q 168 82 184 41 q 144 162 151 123 q 137 243 137 201 l 137 414 q 118 487 137 467 q 85 509 104 503 q 52 515 65 515 q 39 518 39 515 q 47 552 39 551 q 235 587 191 574 q 239 588 236 587 q 241 589 241 589 q 248 577 247 589 q 248 560 250 566 q 240 460 240 495 l 240 277 q 271 123 240 172 q 373 73 302 73 q 450 105 414 73 q 487 160 487 137 l 487 414 q 468 487 487 467 q 435 509 454 503 q 402 515 415 515 q 389 518 389 515 q 397 552 389 551 q 585 587 541 574 q 589 588 586 587 q 591 589 591 589 q 598 577 597 589 q 598 560 600 566 q 590 463 590 495 m 208 859 q 211 870 208 864 q 228 884 214 876 q 263 891 241 891 q 309 879 297 891 q 363 807 332 852 q 415 729 395 762 q 435 692 435 696 q 419 674 435 674 q 304 749 401 674 q 208 859 208 825 z "},"":{"ha":701,"x_min":39,"x_max":684,"o":"m 590 463 l 590 191 q 600 88 590 133 q 614 73 602 79 q 640 66 627 68 q 667 65 654 65 l 680 64 q 684 49 684 62 q 680 36 684 45 q 673 27 677 27 q 627 22 652 26 q 581 12 602 18 q 540 1 559 7 q 510 -8 521 -4 l 498 -11 q 487 11 487 -11 l 487 80 l 484 87 q 307 -9 395 -9 q 220 16 256 -9 q 168 82 184 41 q 144 162 151 123 q 137 243 137 201 l 137 414 q 118 487 137 467 q 85 509 104 503 q 52 515 65 515 q 39 518 39 515 q 47 552 39 551 q 235 587 191 574 q 239 588 236 587 q 241 589 241 589 q 248 577 247 589 q 248 560 250 566 q 240 460 240 495 l 240 277 q 271 123 240 172 q 373 73 302 73 q 450 105 414 73 q 487 160 487 137 l 487 414 q 468 487 487 467 q 435 509 454 503 q 402 515 415 515 q 389 518 389 515 q 397 552 389 551 q 585 587 541 574 q 589 588 586 587 q 591 589 591 589 q 598 577 597 589 q 598 560 600 566 q 590 463 590 495 m 483 891 q 518 884 505 891 q 535 870 532 876 q 538 859 538 864 q 441 749 538 825 q 327 674 345 674 q 311 692 311 674 q 332 730 311 696 q 383 809 353 765 q 437 879 414 853 q 483 891 449 891 z "},"":{"ha":701,"x_min":39,"x_max":684,"o":"m 480 633 q 427 664 469 633 q 354 723 385 694 q 283 664 324 694 q 232 633 243 633 q 220 665 220 633 q 250 699 224 670 q 293 750 275 728 q 343 822 323 787 q 354 836 351 836 q 368 822 361 836 q 416 747 400 769 q 450 708 431 728 q 479 677 468 688 q 490 665 490 666 q 480 633 490 633 m 590 463 l 590 191 q 600 88 590 133 q 614 73 602 79 q 640 66 627 68 q 667 65 654 65 l 680 64 q 684 49 684 62 q 680 36 684 45 q 673 27 677 27 q 627 22 652 26 q 581 12 602 18 q 540 1 559 7 q 510 -8 521 -4 l 498 -11 q 487 11 487 -11 l 487 80 l 484 87 q 307 -9 395 -9 q 220 16 256 -9 q 168 82 184 41 q 144 162 151 123 q 137 243 137 201 l 137 414 q 118 487 137 467 q 85 509 104 503 q 52 515 65 515 q 39 518 39 515 q 47 552 39 551 q 235 587 191 574 q 239 588 236 587 q 241 589 241 589 q 248 577 247 589 q 248 560 250 566 q 240 460 240 495 l 240 277 q 271 123 240 172 q 373 73 302 73 q 450 105 414 73 q 487 160 487 137 l 487 414 q 468 487 487 467 q 435 509 454 503 q 402 515 415 515 q 389 518 389 515 q 397 552 389 551 q 585 587 541 574 q 589 588 586 587 q 591 589 591 589 q 598 577 597 589 q 598 560 600 566 q 590 463 590 495 z "},"":{"ha":701,"x_min":39,"x_max":684,"o":"m 590 463 l 590 191 q 600 88 590 133 q 614 73 602 79 q 640 66 627 68 q 667 65 654 65 l 680 64 q 684 49 684 62 q 680 36 684 45 q 673 27 677 27 q 627 22 652 26 q 581 12 602 18 q 540 1 559 7 q 510 -8 521 -4 l 498 -11 q 487 11 487 -11 l 487 80 l 484 87 q 307 -9 395 -9 q 220 16 256 -9 q 168 82 184 41 q 144 162 151 123 q 137 243 137 201 l 137 414 q 118 487 137 467 q 85 509 104 503 q 52 515 65 515 q 39 518 39 515 q 47 552 39 551 q 235 587 191 574 q 239 588 236 587 q 241 589 241 589 q 248 577 247 589 q 248 560 250 566 q 240 460 240 495 l 240 277 q 271 123 240 172 q 373 73 302 73 q 450 105 414 73 q 487 160 487 137 l 487 414 q 468 487 487 467 q 435 509 454 503 q 402 515 415 515 q 389 518 389 515 q 397 552 389 551 q 585 587 541 574 q 589 588 586 587 q 591 589 591 589 q 598 577 597 589 q 598 560 600 566 q 590 463 590 495 m 435 787 q 445 797 435 787 q 483 807 456 807 q 530 787 510 807 q 549 739 549 766 q 529 693 549 712 q 481 674 509 674 q 434 694 454 674 q 414 741 414 713 q 435 787 414 768 m 186 787 q 197 797 186 787 q 235 807 208 807 q 281 787 262 807 q 301 739 301 766 q 281 693 301 712 q 233 674 260 674 q 186 694 206 674 q 165 741 165 713 q 186 787 165 768 z "},"":{"ha":616,"x_min":3,"x_max":642,"o":"m 155 582 q 197 583 178 582 q 242 586 217 585 q 286 589 267 587 q 289 568 289 581 q 283 549 289 549 q 248 540 273 549 q 220 521 222 530 l 220 518 q 365 164 220 494 l 468 461 q 477 503 477 490 q 456 536 477 524 q 400 549 435 549 q 395 567 395 549 q 400 589 395 583 q 453 585 418 587 q 521 582 488 582 q 586 585 551 582 q 639 589 621 587 q 642 568 642 581 q 636 549 642 549 q 588 537 618 549 q 548 498 557 525 l 305 -157 q 235 -275 274 -241 q 163 -308 195 -308 q 121 -290 134 -308 q 107 -255 107 -273 q 126 -212 107 -225 q 275 -95 239 -212 q 292 -46 282 -75 q 307 0 301 -18 l 113 475 q 85 521 98 507 q 48 541 73 533 q 8 549 23 549 q 3 567 3 549 q 8 589 3 583 q 155 582 148 582 m 487 891 q 522 884 509 891 q 539 870 536 876 q 543 859 543 864 q 446 749 543 825 q 331 674 349 674 q 315 692 315 674 q 336 730 315 696 q 387 809 357 765 q 441 879 418 853 q 487 891 453 891 z "},"":{"ha":696,"x_min":57,"x_max":675,"o":"m 399 591 q 602 504 529 591 q 675 317 675 416 q 585 88 675 187 q 378 -11 494 -11 q 342 -9 358 -11 q 315 -5 327 -8 q 296 1 302 -1 q 278 9 289 4 q 264 15 267 14 q 259 -3 259 8 l 259 -119 q 270 -240 259 -198 q 305 -258 273 -250 q 351 -267 338 -267 q 357 -284 355 -267 q 355 -307 358 -301 q 210 -300 220 -300 q 62 -307 201 -300 q 57 -284 57 -301 q 62 -267 57 -267 q 111 -258 79 -267 q 145 -240 142 -250 q 155 -145 155 -201 l 155 743 q 146 831 155 791 q 77 853 140 853 l 65 853 q 57 868 57 853 q 65 890 57 890 q 140 901 106 894 q 195 914 175 907 q 228 927 214 921 q 247 937 241 933 l 254 941 l 256 941 q 267 934 262 941 q 274 920 273 926 q 259 802 259 876 l 259 552 q 263 545 259 545 q 325 575 282 559 q 399 591 368 591 m 355 525 q 286 503 313 525 q 259 438 259 480 l 259 133 q 298 71 259 96 q 384 46 338 46 q 511 118 464 46 q 559 279 559 190 q 498 459 559 393 q 355 525 438 525 z "},"":{"ha":616,"x_min":3,"x_max":642,"o":"m 155 582 q 197 583 178 582 q 242 586 217 585 q 286 589 267 587 q 289 568 289 581 q 283 549 289 549 q 248 540 273 549 q 220 521 222 530 l 220 518 q 365 164 220 494 l 468 461 q 477 503 477 490 q 456 536 477 524 q 400 549 435 549 q 395 567 395 549 q 400 589 395 583 q 453 585 418 587 q 521 582 488 582 q 586 585 551 582 q 639 589 621 587 q 642 568 642 581 q 636 549 642 549 q 588 537 618 549 q 548 498 557 525 l 305 -157 q 235 -275 274 -241 q 163 -308 195 -308 q 121 -290 134 -308 q 107 -255 107 -273 q 126 -212 107 -225 q 275 -95 239 -212 q 292 -46 282 -75 q 307 0 301 -18 l 113 475 q 85 521 98 507 q 48 541 73 533 q 8 549 23 549 q 3 567 3 549 q 8 589 3 583 q 155 582 148 582 m 418 787 q 429 797 418 787 q 467 807 439 807 q 513 787 494 807 q 533 739 533 766 q 513 693 533 712 q 465 674 492 674 q 418 694 438 674 q 397 741 397 713 q 418 787 397 768 m 170 787 q 181 797 170 787 q 218 807 191 807 q 265 787 245 807 q 285 739 285 766 q 264 693 285 712 q 217 674 244 674 q 170 694 190 674 q 149 741 149 713 q 170 787 149 768 z "},"":{"ha":928,"x_min":27,"x_max":903,"o":"m 495 895 l 766 179 q 806 81 791 115 q 848 48 814 61 q 898 35 882 35 q 903 9 903 35 q 901 -4 903 4 q 751 3 765 3 q 594 -4 750 3 q 589 18 589 1 q 595 35 590 35 q 636 42 612 35 q 665 60 661 49 q 667 81 667 71 q 663 123 667 99 q 654 160 658 146 l 648 175 l 593 328 q 585 334 589 334 q 481 338 532 338 q 309 331 411 338 l 302 327 l 244 178 q 221 84 221 110 q 232 57 221 65 q 271 41 244 47 q 311 35 298 35 q 315 19 315 35 q 313 -4 316 3 q 174 3 178 3 q 126 1 146 3 q 81 -1 106 0 q 33 -4 56 -3 q 27 16 27 1 q 33 35 27 35 q 75 42 49 35 q 110 61 100 49 q 174 189 138 98 l 410 795 q 417 817 412 802 q 425 839 422 831 q 433 858 427 846 q 442 875 438 869 q 452 887 446 880 q 466 897 458 894 q 483 899 473 899 l 495 895 m 338 406 q 434 403 408 403 q 557 407 494 403 l 562 414 l 452 713 l 335 411 q 338 406 335 406 m 293 1019 q 312 1072 293 1072 l 651 1072 q 659 1062 659 1072 q 650 1016 659 1044 q 646 1010 648 1012 q 640 1006 643 1008 l 639 1006 l 302 1006 q 300 1006 301 1006 q 296 1010 298 1006 q 293 1019 293 1013 z "},"":{"ha":574,"x_min":53,"x_max":566,"o":"m 190 87 q 201 78 190 87 q 250 68 213 68 q 320 90 286 68 q 354 136 354 113 l 354 275 q 301 256 343 270 q 235 233 259 243 q 189 199 212 222 q 167 144 167 175 q 190 87 167 107 m 317 591 q 425 555 392 591 q 457 439 457 519 l 457 126 q 472 79 457 98 q 513 60 487 60 q 560 79 532 60 q 566 68 566 79 q 559 39 566 50 q 464 -8 503 -8 q 404 18 433 -8 q 365 72 376 43 q 355 63 363 72 q 331 43 346 54 q 296 19 316 31 q 250 -1 277 7 q 197 -9 224 -9 q 94 24 134 -9 q 53 123 53 57 q 68 180 53 153 q 103 223 83 206 q 159 258 123 240 q 219 284 194 275 q 285 307 244 293 q 342 327 326 320 q 354 347 354 331 l 354 449 q 327 516 354 492 q 262 540 300 540 q 194 512 221 540 q 167 439 167 484 q 111 392 167 392 q 58 418 73 392 q 144 534 58 476 q 317 591 229 591 m 123 708 q 140 758 123 758 l 422 758 q 429 749 429 758 q 420 705 429 735 q 417 699 419 701 q 414 696 415 697 l 411 696 l 132 696 q 126 699 132 696 q 123 708 123 703 z "},"":{"ha":928,"x_min":27,"x_max":903,"o":"m 495 895 l 766 179 q 806 81 791 115 q 848 48 814 61 q 898 35 882 35 q 903 9 903 35 q 901 -4 903 4 q 751 3 765 3 q 594 -4 750 3 q 589 18 589 1 q 595 35 590 35 q 636 42 612 35 q 665 60 661 49 q 667 81 667 71 q 663 123 667 99 q 654 160 658 146 l 648 175 l 593 328 q 585 334 589 334 q 481 338 532 338 q 309 331 411 338 l 302 327 l 244 178 q 221 84 221 110 q 232 57 221 65 q 271 41 244 47 q 311 35 298 35 q 315 19 315 35 q 313 -4 316 3 q 174 3 178 3 q 126 1 146 3 q 81 -1 106 0 q 33 -4 56 -3 q 27 16 27 1 q 33 35 27 35 q 75 42 49 35 q 110 61 100 49 q 174 189 138 98 l 410 795 q 417 817 412 802 q 425 839 422 831 q 433 858 427 846 q 442 875 438 869 q 452 887 446 880 q 466 897 458 894 q 483 899 473 899 l 495 895 m 338 406 q 434 403 408 403 q 557 407 494 403 l 562 414 l 452 713 l 335 411 q 338 406 335 406 m 411 1069 q 427 1059 411 1069 q 487 1048 444 1048 q 563 1069 530 1048 q 605 1127 595 1090 q 610 1130 605 1130 q 626 1124 617 1130 q 635 1115 635 1119 l 635 1111 q 633 1105 633 1107 q 582 1020 624 1057 q 487 983 540 983 q 391 1019 433 983 q 340 1107 350 1055 q 339 1112 340 1108 l 339 1115 q 348 1124 339 1119 q 363 1130 357 1130 q 369 1127 369 1130 q 411 1069 378 1090 z "},"":{"ha":574,"x_min":53,"x_max":566,"o":"m 190 87 q 201 78 190 87 q 250 68 213 68 q 320 90 286 68 q 354 136 354 113 l 354 275 q 301 256 343 270 q 235 233 259 243 q 189 199 212 222 q 167 144 167 175 q 190 87 167 107 m 317 591 q 425 555 392 591 q 457 439 457 519 l 457 126 q 472 79 457 98 q 513 60 487 60 q 560 79 532 60 q 566 68 566 79 q 559 39 566 50 q 464 -8 503 -8 q 404 18 433 -8 q 365 72 376 43 q 355 63 363 72 q 331 43 346 54 q 296 19 316 31 q 250 -1 277 7 q 197 -9 224 -9 q 94 24 134 -9 q 53 123 53 57 q 68 180 53 153 q 103 223 83 206 q 159 258 123 240 q 219 284 194 275 q 285 307 244 293 q 342 327 326 320 q 354 347 354 331 l 354 449 q 327 516 354 492 q 262 540 300 540 q 194 512 221 540 q 167 439 167 484 q 111 392 167 392 q 58 418 73 392 q 144 534 58 476 q 317 591 229 591 m 201 764 q 217 750 201 764 q 275 736 233 736 q 350 764 317 736 q 393 834 382 791 q 399 838 393 838 q 414 832 406 838 q 423 821 423 826 l 423 815 q 422 810 422 811 q 371 714 412 754 q 275 674 330 674 q 180 713 221 674 q 129 811 138 753 q 127 817 129 812 l 127 821 q 136 832 127 826 q 152 838 145 838 q 157 834 157 838 q 201 764 168 791 z "},"":{"ha":1012,"x_min":62,"x_max":939,"o":"m 445 795 q 452 817 448 802 q 460 839 457 831 q 468 858 463 846 q 477 875 473 869 q 488 887 481 880 q 501 897 494 894 q 518 899 509 899 l 530 895 l 802 179 q 841 81 826 115 q 883 48 849 61 q 933 35 917 35 q 939 9 939 35 q 936 -4 939 4 q 802 3 850 1 q 705 -76 749 -28 q 661 -164 661 -123 q 673 -204 661 -186 q 716 -222 685 -222 q 772 -210 746 -222 q 811 -184 798 -197 q 826 -171 825 -171 q 833 -189 833 -171 q 826 -213 833 -203 q 684 -302 758 -302 q 610 -269 633 -302 q 587 -198 587 -235 q 633 -92 587 -146 q 739 3 678 -37 q 686 -1 718 1 q 629 -4 654 -3 q 625 18 624 1 q 631 35 625 35 q 671 42 647 35 q 700 60 696 49 q 703 81 703 71 q 698 123 703 99 q 689 160 693 146 l 684 175 l 628 328 q 620 334 624 334 q 517 338 567 338 q 345 331 446 338 l 338 327 l 279 178 q 256 84 256 110 q 267 57 256 65 q 307 41 279 47 q 346 35 334 35 q 351 19 350 35 q 349 -4 351 3 q 209 3 213 3 q 161 1 182 3 q 116 -1 141 0 q 68 -4 91 -3 q 62 16 62 1 q 68 35 62 35 q 110 42 84 35 q 145 61 136 49 q 209 189 174 98 l 445 795 m 487 713 l 370 411 q 373 406 370 406 q 469 403 444 403 q 593 407 529 403 l 597 414 l 487 713 z "},"":{"ha":567,"x_min":68,"x_max":582,"o":"m 205 87 q 216 78 205 87 q 264 68 228 68 q 335 90 301 68 q 369 136 369 113 l 369 275 q 316 256 358 270 q 250 233 274 243 q 204 199 227 222 q 182 144 182 175 q 205 87 182 107 m 472 126 q 487 77 472 98 q 528 57 502 57 q 549 62 538 57 q 567 71 560 66 q 575 76 574 76 q 582 69 582 76 q 574 35 582 54 l 529 4 q 500 -16 525 1 q 466 -40 476 -33 q 435 -66 456 -47 q 404 -97 414 -84 q 386 -128 395 -110 q 377 -164 377 -146 q 389 -204 377 -186 q 433 -222 401 -222 q 489 -210 464 -222 q 528 -184 514 -197 q 543 -171 541 -171 q 549 -189 549 -171 q 543 -213 549 -203 q 400 -302 475 -302 q 327 -269 350 -302 q 304 -198 304 -235 q 346 -101 304 -156 q 442 -3 388 -46 q 380 72 397 22 q 370 63 378 72 q 346 43 361 54 q 311 19 331 31 q 265 -1 292 7 q 212 -9 239 -9 q 109 24 149 -9 q 68 123 68 57 q 83 180 68 153 q 118 223 98 206 q 174 258 138 240 q 234 284 209 275 q 300 307 259 293 q 357 327 340 320 q 369 347 369 331 l 369 449 q 342 516 369 492 q 277 540 315 540 q 209 512 236 540 q 182 439 182 484 q 126 392 182 392 q 73 418 88 392 q 159 534 73 476 q 332 591 244 591 q 439 555 407 591 q 472 439 472 519 l 472 126 z "},"":{"ha":890,"x_min":60,"x_max":860,"o":"m 860 248 q 841 144 860 233 q 814 52 822 56 q 490 -8 715 -8 q 185 123 311 -8 q 60 437 60 255 q 189 767 60 629 q 505 905 317 905 q 834 871 665 905 q 831 675 831 689 q 803 655 831 655 q 785 662 789 655 q 775 698 781 680 q 749 745 769 716 q 702 795 730 774 q 623 832 674 817 q 509 848 572 848 q 282 730 376 848 q 189 465 189 613 q 227 263 189 355 q 347 111 264 171 q 541 50 429 50 q 749 129 675 50 q 782 182 768 149 q 804 238 796 216 q 815 260 811 260 q 835 258 823 260 q 853 252 846 255 l 860 248 m 476 1005 q 538 1076 476 1015 q 637 1164 601 1137 q 662 1168 646 1168 q 715 1155 697 1168 q 732 1127 732 1142 q 624 1042 732 1096 q 490 987 515 987 q 476 1005 476 987 z "},"":{"ha":549,"x_min":50,"x_max":528,"o":"m 313 591 q 519 522 463 591 q 469 431 519 431 q 434 441 446 431 q 403 479 422 452 q 302 541 361 541 q 201 488 247 541 q 156 331 156 435 q 210 151 156 222 q 358 79 263 79 q 412 84 387 79 q 456 97 438 90 q 488 112 475 104 q 510 126 500 119 l 519 133 q 528 115 528 133 q 519 91 528 104 q 439 22 492 53 q 324 -8 387 -8 q 131 77 212 -8 q 50 283 50 161 q 118 500 50 408 q 313 591 186 591 m 429 891 q 464 884 450 891 q 481 870 477 876 q 484 859 484 864 q 387 749 484 825 q 273 674 290 674 q 256 692 256 674 q 277 730 256 696 q 329 809 298 765 q 382 879 359 853 q 429 891 395 891 z "},"":{"ha":890,"x_min":60,"x_max":860,"o":"m 860 248 q 841 144 860 233 q 814 52 822 56 q 490 -8 715 -8 q 185 123 311 -8 q 60 437 60 255 q 189 767 60 629 q 505 905 317 905 q 834 871 665 905 q 831 675 831 689 q 803 655 831 655 q 785 662 789 655 q 775 698 781 680 q 749 745 769 716 q 702 795 730 774 q 623 832 674 817 q 509 848 572 848 q 282 730 376 848 q 189 465 189 613 q 227 263 189 355 q 347 111 264 171 q 541 50 429 50 q 749 129 675 50 q 782 182 768 149 q 804 238 796 216 q 815 260 811 260 q 835 258 823 260 q 853 252 846 255 l 860 248 m 674 947 q 532 1025 648 947 q 452 974 499 1001 q 392 947 404 947 q 378 974 378 947 q 413 1006 384 979 q 461 1050 442 1032 q 518 1112 499 1085 q 532 1123 528 1123 q 547 1112 540 1123 q 602 1047 575 1074 q 641 1013 620 1031 q 674 985 662 994 q 686 974 686 975 q 674 947 686 947 z "},"":{"ha":549,"x_min":50,"x_max":528,"o":"m 426 633 q 373 664 415 633 q 300 723 331 694 q 229 664 270 694 q 178 633 189 633 q 165 665 165 633 q 195 699 170 670 q 239 750 221 728 q 289 822 269 787 q 300 836 297 836 q 313 822 307 836 q 362 747 346 769 q 395 708 377 728 q 425 677 414 688 q 435 665 435 666 q 426 633 435 633 m 313 591 q 519 522 463 591 q 469 431 519 431 q 434 441 446 431 q 403 479 422 452 q 302 541 361 541 q 201 488 247 541 q 156 331 156 435 q 210 151 156 222 q 358 79 263 79 q 412 84 387 79 q 456 97 438 90 q 488 112 475 104 q 510 126 500 119 l 519 133 q 528 115 528 133 q 519 91 528 104 q 439 22 492 53 q 324 -8 387 -8 q 131 77 212 -8 q 50 283 50 161 q 118 500 50 408 q 313 591 186 591 z "},"":{"ha":890,"x_min":60,"x_max":860,"o":"m 860 248 q 841 144 860 233 q 814 52 822 56 q 490 -8 715 -8 q 185 123 311 -8 q 60 437 60 255 q 189 767 60 629 q 505 905 317 905 q 834 871 665 905 q 831 675 831 689 q 803 655 831 655 q 785 662 789 655 q 775 698 781 680 q 749 745 769 716 q 702 795 730 774 q 623 832 674 817 q 509 848 572 848 q 282 730 376 848 q 189 465 189 613 q 227 263 189 355 q 347 111 264 171 q 541 50 429 50 q 749 129 675 50 q 782 182 768 149 q 804 238 796 216 q 815 260 811 260 q 835 258 823 260 q 853 252 846 255 l 860 248 m 463 1007 q 453 1017 463 1007 q 444 1055 444 1027 q 463 1103 444 1084 q 511 1123 483 1123 q 559 1103 540 1123 q 579 1055 579 1084 q 559 1007 579 1027 q 511 987 540 987 q 463 1007 483 987 z "},"":{"ha":549,"x_min":50,"x_max":528,"o":"m 313 591 q 519 522 463 591 q 469 431 519 431 q 434 441 446 431 q 403 479 422 452 q 302 541 361 541 q 201 488 247 541 q 156 331 156 435 q 210 151 156 222 q 358 79 263 79 q 412 84 387 79 q 456 97 438 90 q 488 112 475 104 q 510 126 500 119 l 519 133 q 528 115 528 133 q 519 91 528 104 q 439 22 492 53 q 324 -8 387 -8 q 131 77 212 -8 q 50 283 50 161 q 118 500 50 408 q 313 591 186 591 m 261 756 q 251 766 261 756 q 241 804 241 776 q 261 852 241 833 q 309 872 281 872 q 357 852 338 872 q 377 804 377 833 q 357 756 377 776 q 309 736 338 736 q 261 756 281 736 z "},"":{"ha":890,"x_min":60,"x_max":860,"o":"m 860 248 q 841 144 860 233 q 814 52 822 56 q 490 -8 715 -8 q 185 123 311 -8 q 60 437 60 255 q 189 767 60 629 q 505 905 317 905 q 834 871 665 905 q 831 675 831 689 q 803 655 831 655 q 785 662 789 655 q 775 698 781 680 q 749 745 769 716 q 702 795 730 774 q 623 832 674 817 q 509 848 572 848 q 282 730 376 848 q 189 465 189 613 q 227 263 189 355 q 347 111 264 171 q 541 50 429 50 q 749 129 675 50 q 782 182 768 149 q 804 238 796 216 q 815 260 811 260 q 835 258 823 260 q 853 252 846 255 l 860 248 m 510 1085 q 652 1164 627 1164 q 665 1137 665 1164 q 652 1126 665 1135 q 619 1098 640 1116 q 581 1063 598 1080 q 525 998 553 1036 q 510 987 518 987 q 496 998 506 987 q 439 1061 477 1025 q 391 1105 420 1078 q 357 1137 362 1131 q 370 1164 357 1164 q 430 1137 382 1164 q 510 1085 477 1109 z "},"":{"ha":549,"x_min":50,"x_max":528,"o":"m 313 591 q 519 522 463 591 q 469 431 519 431 q 434 441 446 431 q 403 479 422 452 q 302 541 361 541 q 201 488 247 541 q 156 331 156 435 q 210 151 156 222 q 358 79 263 79 q 412 84 387 79 q 456 97 438 90 q 488 112 475 104 q 510 126 500 119 l 519 133 q 528 115 528 133 q 519 91 528 104 q 439 22 492 53 q 324 -8 387 -8 q 131 77 212 -8 q 50 283 50 161 q 118 500 50 408 q 313 591 186 591 m 315 787 q 388 846 346 815 q 441 876 430 876 q 452 845 452 876 q 441 833 452 844 q 411 802 430 822 q 377 762 392 781 q 328 688 361 741 q 316 675 321 675 q 304 688 311 675 q 254 758 286 718 q 210 809 236 780 q 180 845 184 838 q 193 876 180 876 q 244 846 203 876 q 315 787 285 815 z "},"":{"ha":979,"x_min":46,"x_max":917,"o":"m 213 890 q 344 891 264 890 q 449 892 423 892 q 793 762 670 892 q 917 456 917 632 q 792 127 917 259 q 448 -4 667 -4 q 351 -1 431 -4 q 216 0 270 1 l 52 -4 q 47 16 47 0 q 52 35 47 35 q 104 45 69 35 q 145 66 138 54 q 155 194 155 83 l 155 707 q 145 823 155 787 q 105 844 141 834 q 52 853 69 853 q 46 869 46 853 q 52 892 46 887 q 213 890 122 890 m 273 726 l 273 189 q 293 85 273 132 q 366 65 298 72 q 469 58 433 58 q 781 461 781 58 q 699 724 781 616 q 460 833 617 833 l 453 833 q 290 811 307 833 q 273 726 273 787 m 487 1085 q 629 1164 604 1164 q 642 1137 642 1164 q 629 1126 642 1135 q 596 1098 617 1116 q 557 1063 575 1080 q 502 998 530 1036 q 487 987 495 987 q 473 998 483 987 q 416 1061 454 1025 q 368 1105 397 1078 q 334 1137 339 1131 q 347 1164 334 1164 q 407 1137 359 1164 q 487 1085 454 1109 z "},"":{"ha":674,"x_min":52,"x_max":770,"o":"m 336 540 q 213 469 258 540 q 168 305 168 399 q 221 134 168 206 q 368 61 274 61 q 439 82 414 61 q 465 138 465 103 l 465 461 q 435 515 465 490 q 336 540 404 540 m 354 597 q 456 574 412 597 q 465 598 465 574 l 465 745 q 457 831 465 791 q 388 853 450 853 l 376 853 q 368 868 368 853 q 376 890 368 890 q 451 901 416 894 q 505 914 486 907 q 538 927 525 921 q 559 937 552 933 l 564 941 l 567 941 q 578 934 572 941 q 585 920 583 926 q 570 802 570 876 l 570 191 q 578 88 570 126 q 593 73 581 79 q 618 66 605 68 q 643 65 631 65 l 655 64 q 659 47 659 62 q 651 27 659 27 q 606 22 631 26 q 558 13 581 18 q 517 3 536 8 q 486 -5 498 -1 l 473 -8 q 465 15 465 -8 l 465 31 q 460 37 465 39 q 316 -5 384 -5 q 127 75 203 -5 q 52 266 52 155 q 144 497 52 397 q 354 597 237 597 m 658 871 q 683 921 658 902 q 750 940 708 940 q 770 856 770 916 q 734 759 770 814 q 669 688 697 704 q 659 686 667 686 q 647 692 654 686 q 640 704 640 699 l 652 715 q 675 749 663 727 q 688 799 688 772 q 673 829 688 807 q 658 871 658 850 z "},"":{"ha":991,"x_min":109,"x_max":979,"o":"m 136 472 q 604 472 136 472 q 612 458 612 472 q 604 418 612 437 q 134 418 604 418 q 127 435 127 418 q 136 472 127 460 m 275 890 q 405 891 324 890 q 511 892 486 892 q 856 762 732 892 q 979 456 979 632 q 854 127 979 259 q 510 -4 730 -4 q 412 -1 494 -4 q 278 0 330 1 l 114 -4 q 110 16 110 0 q 114 35 110 35 q 166 45 132 35 q 208 66 201 54 q 217 194 217 83 l 217 707 q 208 823 217 787 q 168 844 203 834 q 114 853 132 853 q 109 869 109 853 q 114 892 109 887 q 275 890 184 890 m 335 726 l 335 189 q 355 85 335 132 q 428 65 361 72 q 532 58 495 58 q 768 161 688 58 q 849 461 849 263 q 764 724 849 614 q 522 833 680 833 l 515 833 q 353 811 369 833 q 335 726 335 787 z "},"":{"ha":666,"x_min":42,"x_max":655,"o":"m 345 597 q 446 574 403 597 q 456 598 456 574 l 456 745 q 448 831 456 791 q 378 853 441 853 l 366 853 q 358 868 358 853 q 366 890 358 890 q 441 901 407 894 q 496 914 476 907 q 529 927 515 921 q 548 937 543 933 l 555 941 l 557 941 q 568 934 563 941 q 575 920 574 926 q 560 802 560 876 l 560 191 q 568 88 560 126 q 583 73 571 79 q 608 66 595 68 q 633 65 621 65 l 646 64 q 650 47 650 62 q 642 27 650 27 q 596 22 621 26 q 549 13 571 18 q 507 3 526 8 q 476 -5 488 -1 l 464 -8 q 456 15 456 -8 l 456 31 q 450 37 456 39 q 307 -5 374 -5 q 118 75 194 -5 q 42 266 42 155 q 135 497 42 397 q 345 597 228 597 m 327 540 q 203 469 248 540 q 159 305 159 399 q 212 134 159 206 q 358 61 264 61 q 430 82 404 61 q 456 138 456 103 l 456 461 q 425 515 456 490 q 327 540 395 540 m 288 772 l 647 772 q 655 758 655 772 q 647 718 655 735 l 286 718 q 279 735 279 718 q 288 772 279 760 z "},"":{"ha":774,"x_min":76,"x_max":781,"o":"m 243 890 q 454 895 304 890 q 681 901 605 901 q 702 797 686 861 q 720 716 718 732 q 696 709 713 709 q 677 719 678 709 q 620 814 656 793 q 519 836 583 836 l 429 836 q 309 818 312 836 q 302 704 302 785 l 302 487 q 361 479 302 479 l 433 479 q 488 479 471 479 q 524 484 505 479 q 548 491 543 490 q 562 509 553 492 q 572 532 571 525 q 582 571 574 540 q 602 581 583 581 q 625 574 618 581 l 625 317 q 604 312 620 312 q 582 323 586 312 q 566 378 572 359 q 555 399 559 396 q 544 408 552 403 q 400 419 526 419 q 302 407 302 419 l 302 197 q 315 73 302 109 q 407 60 319 60 l 472 60 q 643 83 598 60 q 688 131 663 94 q 728 220 713 168 q 747 228 731 228 q 781 220 773 228 q 760 163 774 202 q 738 101 746 125 q 720 46 730 77 q 708 -5 711 15 q 490 -3 639 -5 q 245 0 340 0 l 81 -4 q 77 18 77 0 q 81 35 77 35 q 134 45 99 35 q 175 66 168 54 q 184 194 184 83 l 184 707 q 175 823 184 787 q 135 844 171 834 q 81 853 99 853 q 76 869 76 853 q 81 892 76 887 q 243 890 152 890 m 220 1019 q 239 1072 220 1072 l 578 1072 q 586 1062 586 1072 q 576 1016 586 1044 q 572 1010 575 1012 q 567 1006 570 1008 l 566 1006 l 229 1006 q 227 1006 228 1006 q 222 1010 225 1006 q 220 1019 220 1013 z "},"":{"ha":616,"x_min":69,"x_max":568,"o":"m 324 541 q 216 481 254 541 q 179 381 179 420 q 187 372 179 372 l 452 372 q 458 385 458 372 q 422 485 458 429 q 324 541 385 541 m 338 591 q 448 568 400 591 q 520 507 495 544 q 557 431 545 469 q 568 354 568 392 q 560 321 568 327 q 529 315 552 315 l 187 315 q 176 308 176 315 q 228 151 176 222 q 377 79 279 79 q 431 84 406 79 q 475 97 457 90 q 507 112 494 104 q 529 126 519 119 l 538 133 q 547 115 547 133 q 538 91 547 104 q 458 22 511 53 q 343 -8 406 -8 q 150 77 231 -8 q 69 283 69 161 q 146 509 69 426 q 338 591 222 591 m 152 708 q 168 758 152 758 l 450 758 q 457 749 457 758 q 449 705 457 735 q 446 699 448 701 q 442 696 444 697 l 439 696 l 160 696 q 155 699 160 696 q 152 708 152 703 z "},"":{"ha":774,"x_min":39,"x_max":745,"o":"m 206 890 q 418 895 267 890 q 644 901 568 901 q 665 797 650 861 q 684 716 681 732 q 659 709 677 709 q 640 719 642 709 q 583 814 620 793 q 483 836 547 836 l 392 836 q 273 818 275 836 q 266 704 266 785 l 266 487 q 324 479 266 479 l 396 479 q 451 479 434 479 q 487 484 468 479 q 511 491 506 490 q 526 509 517 492 q 536 532 534 525 q 545 571 537 540 q 566 581 547 581 q 589 574 582 581 l 589 317 q 567 312 583 312 q 545 323 549 312 q 529 378 536 359 q 519 399 522 396 q 507 408 515 403 q 363 419 490 419 q 266 407 266 419 l 266 197 q 278 73 266 109 q 370 60 282 60 l 435 60 q 606 83 562 60 q 652 131 627 94 q 692 220 677 168 q 711 228 694 228 q 745 220 736 228 q 724 163 738 202 q 701 101 709 125 q 684 46 693 77 q 671 -5 674 15 q 453 -3 602 -5 q 209 0 304 0 l 45 -4 q 41 18 41 0 q 45 35 41 35 q 97 45 62 35 q 138 66 132 54 q 148 194 148 83 l 148 707 q 138 823 148 787 q 98 844 134 834 q 45 853 62 853 q 39 869 39 853 q 45 892 39 887 q 206 890 115 890 m 311 1069 q 327 1059 311 1069 q 387 1048 343 1048 q 463 1069 430 1048 q 505 1127 495 1090 q 510 1130 505 1130 q 526 1124 517 1130 q 534 1115 534 1119 l 534 1111 q 533 1105 533 1107 q 481 1020 524 1057 q 387 983 439 983 q 291 1019 332 983 q 240 1107 250 1055 q 239 1112 240 1108 l 239 1115 q 248 1124 239 1119 q 263 1130 256 1130 q 269 1127 269 1130 q 311 1069 278 1090 z "},"":{"ha":583,"x_min":50,"x_max":549,"o":"m 305 541 q 197 481 235 541 q 160 381 160 420 q 168 372 160 372 l 433 372 q 439 385 439 372 q 403 485 439 429 q 305 541 366 541 m 319 591 q 429 568 381 591 q 501 507 476 544 q 538 431 526 469 q 549 354 549 392 q 541 321 549 327 q 510 315 533 315 l 168 315 q 157 308 157 315 q 209 151 157 222 q 358 79 260 79 q 412 84 387 79 q 456 97 438 90 q 488 112 475 104 q 510 126 500 119 l 519 133 q 528 115 528 133 q 519 91 528 104 q 439 22 492 53 q 324 -8 387 -8 q 131 77 212 -8 q 50 283 50 161 q 127 509 50 426 q 319 591 203 591 m 228 764 q 244 750 228 764 q 302 736 260 736 q 377 764 345 736 q 420 834 410 791 q 426 838 420 838 q 441 832 433 838 q 450 821 450 826 l 450 815 q 449 810 449 811 q 398 714 439 754 q 302 674 357 674 q 207 713 248 674 q 156 811 165 753 q 155 817 156 812 l 155 821 q 163 832 155 826 q 179 838 172 838 q 184 834 184 838 q 228 764 195 791 z "},"":{"ha":774,"x_min":39,"x_max":745,"o":"m 206 890 q 418 895 267 890 q 644 901 568 901 q 665 797 650 861 q 684 716 681 732 q 659 709 677 709 q 640 719 642 709 q 583 814 620 793 q 483 836 547 836 l 392 836 q 273 818 275 836 q 266 704 266 785 l 266 487 q 324 479 266 479 l 396 479 q 451 479 434 479 q 487 484 468 479 q 511 491 506 490 q 526 509 517 492 q 536 532 534 525 q 545 571 537 540 q 566 581 547 581 q 589 574 582 581 l 589 317 q 567 312 583 312 q 545 323 549 312 q 529 378 536 359 q 519 399 522 396 q 507 408 515 403 q 363 419 490 419 q 266 407 266 419 l 266 197 q 278 73 266 109 q 370 60 282 60 l 435 60 q 606 83 562 60 q 652 131 627 94 q 692 220 677 168 q 711 228 694 228 q 745 220 736 228 q 724 163 738 202 q 701 101 709 125 q 684 46 693 77 q 671 -5 674 15 q 453 -3 602 -5 q 209 0 304 0 l 45 -4 q 41 18 41 0 q 45 35 41 35 q 97 45 62 35 q 138 66 132 54 q 148 194 148 83 l 148 707 q 138 823 148 787 q 98 844 134 834 q 45 853 62 853 q 39 869 39 853 q 45 892 39 887 q 206 890 115 890 m 334 1007 q 325 1017 334 1007 q 315 1055 315 1027 q 334 1103 315 1084 q 382 1123 354 1123 q 431 1103 411 1123 q 450 1055 450 1084 q 431 1007 450 1027 q 382 987 411 987 q 334 1007 354 987 z "},"":{"ha":583,"x_min":50,"x_max":549,"o":"m 305 541 q 197 481 235 541 q 160 381 160 420 q 168 372 160 372 l 433 372 q 439 385 439 372 q 403 485 439 429 q 305 541 366 541 m 319 591 q 429 568 381 591 q 501 507 476 544 q 538 431 526 469 q 549 354 549 392 q 541 321 549 327 q 510 315 533 315 l 168 315 q 157 308 157 315 q 209 151 157 222 q 358 79 260 79 q 412 84 387 79 q 456 97 438 90 q 488 112 475 104 q 510 126 500 119 l 519 133 q 528 115 528 133 q 519 91 528 104 q 439 22 492 53 q 324 -8 387 -8 q 131 77 212 -8 q 50 283 50 161 q 127 509 50 426 q 319 591 203 591 m 262 756 q 253 766 262 756 q 243 804 243 776 q 262 852 243 833 q 311 872 282 872 q 359 852 339 872 q 378 804 378 833 q 359 756 378 776 q 311 736 339 736 q 262 756 282 736 z "},"":{"ha":830,"x_min":65,"x_max":770,"o":"m 232 890 q 444 892 293 890 q 670 895 594 895 q 691 791 675 856 q 709 711 707 727 q 685 704 703 704 q 666 713 667 704 q 609 809 646 788 q 509 830 572 830 l 418 830 q 298 812 301 830 q 292 699 292 780 l 292 481 q 350 473 292 473 l 422 473 q 477 473 460 473 q 513 479 494 473 q 537 486 532 484 q 551 503 543 487 q 562 527 560 519 q 571 566 563 534 q 591 575 572 575 q 614 568 608 575 l 614 312 q 593 307 609 307 q 571 317 575 307 q 555 372 562 354 q 545 394 548 391 q 533 403 541 397 q 389 414 515 414 q 292 401 292 414 l 292 191 q 304 68 292 103 q 396 54 308 54 l 461 54 q 632 77 587 54 q 677 125 652 88 q 718 214 703 163 q 736 222 719 222 q 770 214 762 222 q 744 144 765 199 q 712 54 723 88 q 697 -8 701 19 q 583 -64 640 -8 q 525 -165 525 -119 q 537 -205 525 -187 q 581 -224 549 -224 q 636 -211 610 -224 q 675 -185 662 -198 q 690 -172 689 -172 q 696 -190 696 -172 q 690 -214 696 -208 q 548 -304 623 -304 q 475 -270 498 -304 q 452 -199 452 -236 q 493 -99 452 -151 q 593 -7 534 -47 q 235 0 277 0 l 71 -4 q 66 18 66 0 q 71 35 66 35 q 123 45 88 35 q 164 66 157 54 q 174 194 174 83 l 174 707 q 164 823 174 787 q 124 844 160 834 q 71 853 88 853 q 65 869 65 853 q 71 892 65 887 q 232 890 141 890 z "},"":{"ha":557,"x_min":33,"x_max":532,"o":"m 288 541 q 180 481 217 541 q 142 381 142 420 q 151 372 142 372 l 415 372 q 422 385 422 372 q 385 485 422 429 q 288 541 349 541 m 307 -8 q 113 77 194 -8 q 33 283 33 161 q 109 509 33 426 q 301 591 186 591 q 411 568 363 591 q 484 507 458 544 q 520 431 509 469 q 532 354 532 392 q 524 321 532 327 q 492 315 515 315 l 151 315 q 140 308 140 315 q 191 151 140 222 q 340 79 243 79 q 395 84 369 79 q 439 97 420 90 q 470 112 457 104 q 492 126 483 119 l 502 133 q 510 115 510 133 q 502 91 510 104 q 444 35 481 61 q 337 -63 372 -18 q 302 -165 302 -109 q 315 -205 302 -187 q 358 -224 327 -224 q 414 -211 388 -224 q 453 -185 439 -198 q 468 -172 467 -172 q 473 -190 473 -172 q 468 -214 473 -208 q 326 -304 400 -304 q 252 -270 275 -304 q 229 -199 229 -236 q 261 -105 229 -160 q 336 -7 293 -50 l 331 -8 q 318 -8 326 -8 q 307 -8 311 -8 z "},"":{"ha":774,"x_min":39,"x_max":745,"o":"m 206 890 q 418 895 267 890 q 644 901 568 901 q 665 797 650 861 q 684 716 681 732 q 659 709 677 709 q 640 719 642 709 q 583 814 620 793 q 483 836 547 836 l 392 836 q 273 818 275 836 q 266 704 266 785 l 266 487 q 324 479 266 479 l 396 479 q 451 479 434 479 q 487 484 468 479 q 511 491 506 490 q 526 509 517 492 q 536 532 534 525 q 545 571 537 540 q 566 581 547 581 q 589 574 582 581 l 589 317 q 567 312 583 312 q 545 323 549 312 q 529 378 536 359 q 519 399 522 396 q 507 408 515 403 q 363 419 490 419 q 266 407 266 419 l 266 197 q 278 73 266 109 q 370 60 282 60 l 435 60 q 606 83 562 60 q 652 131 627 94 q 692 220 677 168 q 711 228 694 228 q 745 220 736 228 q 724 163 738 202 q 701 101 709 125 q 684 46 693 77 q 671 -5 674 15 q 453 -3 602 -5 q 209 0 304 0 l 45 -4 q 41 18 41 0 q 45 35 41 35 q 97 45 62 35 q 138 66 132 54 q 148 194 148 83 l 148 707 q 138 823 148 787 q 98 844 134 834 q 45 853 62 853 q 39 869 39 853 q 45 892 39 887 q 206 890 115 890 m 399 1085 q 541 1164 515 1164 q 553 1137 553 1164 q 541 1126 553 1135 q 508 1098 529 1116 q 469 1063 487 1080 q 414 998 442 1036 q 399 987 407 987 q 385 998 395 987 q 328 1061 366 1025 q 280 1105 309 1078 q 245 1137 251 1131 q 259 1164 245 1164 q 319 1137 271 1164 q 399 1085 366 1109 z "},"":{"ha":583,"x_min":50,"x_max":549,"o":"m 305 541 q 197 481 235 541 q 160 381 160 420 q 168 372 160 372 l 433 372 q 439 385 439 372 q 403 485 439 429 q 305 541 366 541 m 319 591 q 429 568 381 591 q 501 507 476 544 q 538 431 526 469 q 549 354 549 392 q 541 321 549 327 q 510 315 533 315 l 168 315 q 157 308 157 315 q 209 151 157 222 q 358 79 260 79 q 412 84 387 79 q 456 97 438 90 q 488 112 475 104 q 510 126 500 119 l 519 133 q 528 115 528 133 q 519 91 528 104 q 439 22 492 53 q 324 -8 387 -8 q 131 77 212 -8 q 50 283 50 161 q 127 509 50 426 q 319 591 203 591 m 304 787 q 377 846 335 815 q 430 876 419 876 q 441 845 441 876 q 430 833 441 844 q 400 802 419 822 q 366 762 381 781 q 317 688 350 741 q 305 675 311 675 q 293 688 300 675 q 243 758 275 718 q 199 809 225 780 q 170 845 174 838 q 182 876 170 876 q 233 846 193 876 q 304 787 274 815 z "},"":{"ha":970,"x_min":60,"x_max":937,"o":"m 60 437 q 189 767 60 629 q 505 905 317 905 q 826 844 601 905 q 831 675 831 689 q 803 655 831 655 q 785 662 789 655 q 509 848 749 848 q 282 732 373 848 q 191 454 191 617 q 291 177 191 304 q 541 50 391 50 q 718 80 661 50 q 727 100 727 84 l 726 212 l 726 221 q 715 338 726 309 q 671 359 709 351 q 610 368 632 368 q 605 385 605 368 q 610 407 605 401 q 788 400 784 400 q 935 407 799 400 q 937 388 937 399 q 932 368 937 368 q 895 359 924 368 q 853 343 865 350 q 840 252 840 334 q 842 191 840 224 q 844 155 844 157 q 853 107 844 130 q 863 80 863 84 q 829 56 863 69 q 802 45 826 54 q 772 34 779 37 q 741 24 765 31 q 703 14 718 16 q 663 5 689 11 q 612 -2 636 0 q 557 -6 589 -4 q 490 -8 525 -8 q 185 123 311 -8 q 60 437 60 255 m 655 947 q 513 1025 629 947 q 433 974 480 1001 q 373 947 385 947 q 359 974 359 947 q 394 1006 365 979 q 442 1050 423 1032 q 499 1112 480 1085 q 513 1123 509 1123 q 528 1112 521 1123 q 583 1047 556 1074 q 622 1013 601 1031 q 655 985 643 994 q 667 974 667 975 q 655 947 667 947 z "},"":{"ha":643,"x_min":39,"x_max":604,"o":"m 514 -115 q 458 -39 514 -58 q 237 -19 403 -19 q 229 -22 235 -19 q 217 -28 228 -23 q 203 -34 206 -33 q 191 -41 201 -35 q 178 -50 182 -47 q 167 -58 175 -52 q 156 -68 159 -64 q 148 -80 153 -73 q 140 -94 142 -87 q 136 -109 138 -100 q 134 -127 134 -118 q 195 -222 134 -186 q 328 -258 255 -258 q 462 -214 410 -258 q 514 -115 514 -171 m 167 401 q 205 296 167 339 q 296 252 244 252 q 383 293 349 252 q 418 391 418 334 q 379 496 418 453 q 289 540 340 540 q 201 499 236 540 q 167 401 167 458 m 294 586 q 410 568 345 586 q 517 551 475 551 l 595 551 q 604 517 604 548 q 595 498 604 498 l 499 498 q 494 494 494 498 l 507 461 q 522 396 522 429 q 457 264 522 323 q 297 206 392 206 q 221 212 254 206 q 184 178 203 202 q 164 134 164 153 q 175 104 164 115 q 206 87 186 92 q 245 81 227 83 q 290 79 264 79 q 300 79 297 79 q 536 44 468 76 q 604 -52 604 12 q 515 -231 604 -156 q 289 -308 427 -307 q 116 -271 193 -309 q 39 -157 39 -233 q 172 -14 39 -73 q 104 20 136 -8 q 73 90 73 49 q 104 163 73 125 q 172 225 134 201 q 97 290 132 240 q 62 396 62 339 q 130 531 62 476 q 294 586 197 586 m 416 674 q 363 705 406 674 q 290 764 321 735 q 220 705 260 735 q 168 674 179 674 q 156 705 156 674 q 186 740 160 711 q 229 791 212 769 q 279 863 259 827 q 290 876 288 876 q 304 863 297 876 q 353 788 336 810 q 386 749 368 769 q 415 718 404 728 q 426 705 426 707 q 416 674 426 674 z "},"":{"ha":970,"x_min":60,"x_max":937,"o":"m 60 437 q 189 767 60 629 q 505 905 317 905 q 826 844 601 905 q 831 675 831 689 q 803 655 831 655 q 785 662 789 655 q 509 848 749 848 q 282 732 373 848 q 191 454 191 617 q 291 177 191 304 q 541 50 391 50 q 718 80 661 50 q 727 100 727 84 l 726 212 l 726 221 q 715 338 726 309 q 671 359 709 351 q 610 368 632 368 q 605 385 605 368 q 610 407 605 401 q 788 400 784 400 q 935 407 799 400 q 937 388 937 399 q 932 368 937 368 q 895 359 924 368 q 853 343 865 350 q 840 252 840 334 q 842 191 840 224 q 844 155 844 157 q 853 107 844 130 q 863 80 863 84 q 829 56 863 69 q 802 45 826 54 q 772 34 779 37 q 741 24 765 31 q 703 14 718 16 q 663 5 689 11 q 612 -2 636 0 q 557 -6 589 -4 q 490 -8 525 -8 q 185 123 311 -8 q 60 437 60 255 m 435 1069 q 452 1059 435 1069 q 511 1048 468 1048 q 587 1069 555 1048 q 629 1127 620 1090 q 635 1130 629 1130 q 650 1124 642 1130 q 659 1115 659 1119 l 659 1111 q 658 1105 658 1107 q 606 1020 648 1057 q 511 983 564 983 q 416 1019 457 983 q 365 1107 374 1055 q 363 1112 365 1108 l 363 1115 q 372 1124 363 1119 q 388 1130 381 1130 q 393 1127 393 1130 q 435 1069 403 1090 z "},"":{"ha":643,"x_min":39,"x_max":604,"o":"m 514 -115 q 458 -39 514 -58 q 237 -19 403 -19 q 229 -22 235 -19 q 217 -28 228 -23 q 203 -34 206 -33 q 191 -41 201 -35 q 178 -50 182 -47 q 167 -58 175 -52 q 156 -68 159 -64 q 148 -80 153 -73 q 140 -94 142 -87 q 136 -109 138 -100 q 134 -127 134 -118 q 195 -222 134 -186 q 328 -258 255 -258 q 462 -214 410 -258 q 514 -115 514 -171 m 167 401 q 205 296 167 339 q 296 252 244 252 q 383 293 349 252 q 418 391 418 334 q 379 496 418 453 q 289 540 340 540 q 201 499 236 540 q 167 401 167 458 m 294 586 q 410 568 345 586 q 517 551 475 551 l 595 551 q 604 517 604 548 q 595 498 604 498 l 499 498 q 494 494 494 498 l 507 461 q 522 396 522 429 q 457 264 522 323 q 297 206 392 206 q 221 212 254 206 q 184 178 203 202 q 164 134 164 153 q 175 104 164 115 q 206 87 186 92 q 245 81 227 83 q 290 79 264 79 q 300 79 297 79 q 536 44 468 76 q 604 -52 604 12 q 515 -231 604 -156 q 289 -308 427 -307 q 116 -271 193 -309 q 39 -157 39 -233 q 172 -14 39 -73 q 104 20 136 -8 q 73 90 73 49 q 104 163 73 125 q 172 225 134 201 q 97 290 132 240 q 62 396 62 339 q 130 531 62 476 q 294 586 197 586 m 214 764 q 231 750 214 764 q 289 736 247 736 q 363 764 331 736 q 407 834 396 791 q 412 838 407 838 q 428 832 419 838 q 437 821 437 826 l 437 815 q 435 810 435 811 q 385 714 426 754 q 289 674 343 674 q 193 713 235 674 q 142 811 152 753 q 141 817 142 812 l 141 821 q 150 832 141 826 q 165 838 159 838 q 171 834 171 838 q 214 764 182 791 z "},"":{"ha":970,"x_min":60,"x_max":937,"o":"m 60 437 q 189 767 60 629 q 505 905 317 905 q 826 844 601 905 q 831 675 831 689 q 803 655 831 655 q 785 662 789 655 q 509 848 749 848 q 282 732 373 848 q 191 454 191 617 q 291 177 191 304 q 541 50 391 50 q 718 80 661 50 q 727 100 727 84 l 726 212 l 726 221 q 715 338 726 309 q 671 359 709 351 q 610 368 632 368 q 605 385 605 368 q 610 407 605 401 q 788 400 784 400 q 935 407 799 400 q 937 388 937 399 q 932 368 937 368 q 895 359 924 368 q 853 343 865 350 q 840 252 840 334 q 842 191 840 224 q 844 155 844 157 q 853 107 844 130 q 863 80 863 84 q 829 56 863 69 q 802 45 826 54 q 772 34 779 37 q 741 24 765 31 q 703 14 718 16 q 663 5 689 11 q 612 -2 636 0 q 557 -6 589 -4 q 490 -8 525 -8 q 185 123 311 -8 q 60 437 60 255 m 463 1007 q 453 1017 463 1007 q 444 1055 444 1027 q 463 1103 444 1084 q 511 1123 483 1123 q 559 1103 540 1123 q 579 1055 579 1084 q 559 1007 579 1027 q 511 987 540 987 q 463 1007 483 987 z "},"":{"ha":643,"x_min":39,"x_max":604,"o":"m 514 -115 q 458 -39 514 -58 q 237 -19 403 -19 q 229 -22 235 -19 q 217 -28 228 -23 q 203 -34 206 -33 q 191 -41 201 -35 q 178 -50 182 -47 q 167 -58 175 -52 q 156 -68 159 -64 q 148 -80 153 -73 q 140 -94 142 -87 q 136 -109 138 -100 q 134 -127 134 -118 q 195 -222 134 -186 q 328 -258 255 -258 q 462 -214 410 -258 q 514 -115 514 -171 m 167 401 q 205 296 167 339 q 296 252 244 252 q 383 293 349 252 q 418 391 418 334 q 379 496 418 453 q 289 540 340 540 q 201 499 236 540 q 167 401 167 458 m 294 586 q 410 568 345 586 q 517 551 475 551 l 595 551 q 604 517 604 548 q 595 498 604 498 l 499 498 q 494 494 494 498 l 507 461 q 522 396 522 429 q 457 264 522 323 q 297 206 392 206 q 221 212 254 206 q 184 178 203 202 q 164 134 164 153 q 175 104 164 115 q 206 87 186 92 q 245 81 227 83 q 290 79 264 79 q 300 79 297 79 q 536 44 468 76 q 604 -52 604 12 q 515 -231 604 -156 q 289 -308 427 -307 q 116 -271 193 -309 q 39 -157 39 -233 q 172 -14 39 -73 q 104 20 136 -8 q 73 90 73 49 q 104 163 73 125 q 172 225 134 201 q 97 290 132 240 q 62 396 62 339 q 130 531 62 476 q 294 586 197 586 m 241 756 q 231 766 241 756 q 221 804 221 776 q 241 852 221 833 q 289 872 260 872 q 337 852 317 872 q 357 804 357 833 q 337 756 357 776 q 289 736 317 736 q 241 756 260 736 z "},"":{"ha":970,"x_min":60,"x_max":937,"o":"m 60 437 q 189 767 60 629 q 505 905 317 905 q 826 844 601 905 q 831 675 831 689 q 803 655 831 655 q 785 662 789 655 q 509 848 749 848 q 282 732 373 848 q 191 454 191 617 q 291 177 191 304 q 541 50 391 50 q 718 80 661 50 q 727 100 727 84 l 726 212 l 726 221 q 715 338 726 309 q 671 359 709 351 q 610 368 632 368 q 605 385 605 368 q 610 407 605 401 q 788 400 784 400 q 935 407 799 400 q 937 388 937 399 q 932 368 937 368 q 895 359 924 368 q 853 343 865 350 q 840 252 840 334 q 842 191 840 224 q 844 155 844 157 q 853 107 844 130 q 863 80 863 84 q 829 56 863 69 q 802 45 826 54 q 772 34 779 37 q 741 24 765 31 q 703 14 718 16 q 663 5 689 11 q 612 -2 636 0 q 557 -6 589 -4 q 490 -8 525 -8 q 185 123 311 -8 q 60 437 60 255 m 433 -137 q 458 -85 433 -107 q 540 -62 484 -62 q 561 -94 552 -72 q 570 -134 570 -117 q 458 -305 570 -243 q 448 -308 456 -308 q 420 -298 420 -308 l 452 -269 q 483 -218 483 -237 q 458 -179 483 -201 q 433 -137 433 -157 z "},"":{"ha":643,"x_min":39,"x_max":604,"o":"m 514 -115 q 458 -39 514 -58 q 237 -19 403 -19 q 229 -22 235 -19 q 217 -28 228 -23 q 203 -34 206 -33 q 191 -41 201 -35 q 178 -50 182 -47 q 167 -58 175 -52 q 156 -68 159 -64 q 148 -80 153 -73 q 140 -94 142 -87 q 136 -109 138 -100 q 134 -127 134 -118 q 195 -222 134 -186 q 328 -258 255 -258 q 462 -214 410 -258 q 514 -115 514 -171 m 167 401 q 205 296 167 339 q 296 252 244 252 q 383 293 349 252 q 418 391 418 334 q 379 496 418 453 q 289 540 340 540 q 201 499 236 540 q 167 401 167 458 m 294 586 q 410 568 345 586 q 517 551 475 551 l 595 551 q 604 517 604 548 q 595 498 604 498 l 499 498 q 494 494 494 498 l 507 461 q 522 396 522 429 q 457 264 522 323 q 297 206 392 206 q 221 212 254 206 q 184 178 203 202 q 164 134 164 153 q 175 104 164 115 q 206 87 186 92 q 245 81 227 83 q 290 79 264 79 q 300 79 297 79 q 536 44 468 76 q 604 -52 604 12 q 515 -231 604 -156 q 289 -308 427 -307 q 116 -271 193 -309 q 39 -157 39 -233 q 172 -14 39 -73 q 104 20 136 -8 q 73 90 73 49 q 104 163 73 125 q 172 225 134 201 q 97 290 132 240 q 62 396 62 339 q 130 531 62 476 q 294 586 197 586 m 358 730 q 332 677 358 700 q 251 655 307 655 q 230 687 239 665 q 221 727 221 709 q 258 833 221 788 q 332 898 294 878 q 343 901 335 901 q 370 891 370 901 l 339 861 q 308 811 308 830 q 333 772 308 793 q 358 730 358 750 z "},"":{"ha":959,"x_min":52,"x_max":909,"o":"m 688 183 l 688 422 q 685 427 688 422 q 484 430 557 430 q 275 423 275 430 l 275 189 q 288 62 275 110 q 326 44 290 53 q 374 35 361 35 q 379 19 378 35 q 377 -4 380 3 q 220 3 241 3 q 57 -4 213 3 q 52 16 52 1 q 57 35 52 35 q 109 43 75 35 q 148 62 144 52 q 157 183 157 99 l 157 709 q 148 830 157 793 q 109 850 144 841 q 57 859 75 859 q 52 876 52 859 q 57 898 52 892 q 129 893 75 897 q 220 890 183 890 q 273 891 247 890 q 328 895 298 892 q 377 898 358 897 q 379 876 380 892 q 374 859 378 859 q 326 849 361 859 q 288 830 290 840 q 275 704 275 783 l 275 502 l 278 498 q 484 495 411 495 q 685 498 563 495 q 688 503 688 500 l 688 709 q 678 830 688 793 q 640 850 674 841 q 587 859 605 859 q 582 876 582 859 q 587 898 582 892 q 659 893 604 897 q 751 890 715 890 q 803 891 777 890 q 858 895 829 892 q 906 898 887 897 q 909 878 909 890 q 903 859 909 859 q 854 849 890 859 q 817 830 819 840 q 806 704 806 788 l 806 189 q 817 62 806 104 q 854 44 819 53 q 903 35 890 35 q 909 15 909 35 q 906 -4 909 4 q 751 3 770 3 q 587 -4 743 3 q 582 18 582 1 q 587 35 582 35 q 640 43 605 35 q 678 62 674 52 q 688 183 688 99 m 631 947 q 488 1025 605 947 q 408 974 456 1001 q 349 947 361 947 q 335 974 335 947 q 370 1006 340 979 q 418 1050 399 1032 q 475 1112 456 1085 q 488 1123 484 1123 q 503 1112 496 1123 q 559 1047 532 1074 q 597 1013 576 1031 q 631 985 618 994 q 643 974 643 975 q 631 947 643 947 z "},"":{"ha":719,"x_min":8,"x_max":689,"o":"m 423 594 q 553 529 514 594 q 593 328 593 464 l 593 182 q 604 62 593 104 q 639 44 606 53 q 685 35 671 35 q 690 19 689 35 q 689 -4 692 3 q 544 3 553 3 q 401 -4 540 3 q 396 18 396 1 q 401 35 396 35 q 447 44 418 35 q 479 62 476 53 q 488 157 488 102 l 488 301 q 454 469 488 426 q 347 511 419 511 q 267 479 307 511 q 227 423 227 448 l 227 183 q 237 62 227 104 q 273 44 240 53 q 319 35 305 35 q 324 19 323 35 q 323 -4 326 3 q 178 3 187 3 q 30 -4 170 3 q 24 18 24 1 q 30 35 24 35 q 78 44 46 35 q 113 62 110 53 q 122 156 122 102 l 122 745 q 114 831 122 791 q 45 853 107 853 l 33 853 q 24 868 24 853 q 33 890 24 890 q 108 901 73 894 q 162 914 142 907 q 195 927 182 921 q 214 937 209 933 l 221 941 l 224 941 q 235 934 229 941 q 241 920 240 926 q 227 802 227 876 l 227 505 q 229 499 227 499 q 233 502 231 499 q 318 564 263 534 q 423 594 373 594 m 304 952 q 161 1031 278 952 q 81 979 129 1006 q 22 952 34 952 q 8 979 8 952 q 43 1011 14 985 q 91 1055 72 1038 q 148 1118 129 1090 q 161 1128 157 1128 q 176 1118 170 1128 q 232 1053 205 1080 q 271 1018 250 1036 q 304 990 292 1000 q 316 979 316 981 q 304 952 316 952 z "},"":{"ha":1001,"x_min":68,"x_max":925,"o":"m 236 890 q 289 891 263 890 q 345 895 315 892 q 393 898 374 897 q 395 876 396 892 q 391 859 395 859 q 342 849 377 859 q 304 830 307 840 q 292 689 292 783 q 500 688 308 688 q 704 689 650 688 q 694 830 704 793 q 656 850 690 841 q 604 859 621 859 q 598 876 598 859 q 604 898 598 892 q 675 893 620 897 q 768 890 731 890 q 819 891 793 890 q 874 895 845 892 q 922 898 903 897 q 925 878 925 890 q 920 859 925 859 q 871 849 906 859 q 833 830 836 840 q 822 689 822 788 l 878 689 q 884 671 884 689 q 876 637 884 650 l 822 637 l 822 189 q 833 62 822 104 q 871 44 836 53 q 920 35 906 35 q 925 15 925 35 q 922 -4 925 4 q 768 3 787 3 q 604 -4 760 3 q 598 18 598 1 q 604 35 598 35 q 656 43 621 35 q 694 62 690 52 q 704 183 704 99 l 704 397 l 701 403 q 500 406 574 406 q 292 399 292 406 l 292 189 q 304 62 292 110 q 342 44 307 53 q 391 35 377 35 q 395 19 395 35 q 393 -4 396 3 q 236 3 258 3 q 73 -4 229 3 q 68 16 68 1 q 73 35 68 35 q 125 43 91 35 q 164 62 160 52 q 174 183 174 99 l 174 637 l 127 637 q 121 655 121 637 q 129 689 121 677 l 174 689 q 164 830 174 793 q 125 850 160 841 q 73 859 91 859 q 68 876 68 859 q 73 898 68 892 q 145 893 91 897 q 236 890 199 890 m 704 637 q 500 639 648 639 q 292 637 353 639 l 292 477 q 294 473 292 473 q 500 471 427 471 q 701 473 579 471 q 704 479 704 476 l 704 637 z "},"":{"ha":726,"x_min":24,"x_max":690,"o":"m 58 772 q 418 772 58 772 q 426 758 426 772 q 418 718 426 735 q 57 718 418 718 q 50 735 50 718 q 58 772 50 760 m 423 594 q 553 529 514 594 q 593 328 593 464 l 593 182 q 604 62 593 104 q 639 44 606 53 q 685 35 671 35 q 690 19 689 35 q 689 -4 692 3 q 544 3 553 3 q 401 -4 540 3 q 396 18 396 1 q 401 35 396 35 q 447 44 418 35 q 479 62 476 53 q 488 157 488 102 l 488 301 q 454 469 488 426 q 347 511 419 511 q 267 479 307 511 q 227 423 227 448 l 227 183 q 237 62 227 104 q 273 44 240 53 q 319 35 305 35 q 324 19 323 35 q 323 -4 326 3 q 178 3 187 3 q 30 -4 170 3 q 24 18 24 1 q 30 35 24 35 q 78 44 46 35 q 113 62 110 53 q 122 156 122 102 l 122 745 q 114 831 122 791 q 45 853 107 853 l 33 853 q 24 868 24 853 q 33 890 24 890 q 108 901 73 894 q 162 914 142 907 q 195 927 182 921 q 214 937 209 933 l 221 941 l 224 941 q 235 934 229 941 q 241 920 240 926 q 227 802 227 876 l 227 505 q 229 499 227 499 q 233 502 231 499 q 318 564 263 534 q 423 594 373 594 z "},"":{"ha":431,"x_min":39,"x_max":422,"o":"m 332 1039 q 401 1085 381 1039 q 410 1086 404 1086 q 422 1065 422 1086 q 385 998 422 1027 q 316 970 347 970 q 220 999 277 970 q 126 1028 163 1028 q 60 981 81 1028 q 52 979 57 979 q 39 1001 39 979 q 77 1067 39 1039 q 145 1096 114 1096 q 239 1067 183 1096 q 332 1039 294 1039 m 157 709 q 148 830 157 793 q 109 850 144 841 q 57 859 75 859 q 52 876 52 859 q 57 898 52 892 q 220 891 213 891 q 377 898 241 891 q 380 878 380 890 q 374 859 380 859 q 326 849 361 859 q 288 830 290 840 q 275 704 275 783 l 275 189 q 288 62 275 110 q 326 44 290 53 q 374 35 361 35 q 380 15 380 35 q 377 -4 380 4 q 220 3 241 3 q 57 -4 213 3 q 52 16 52 1 q 57 35 52 35 q 109 43 75 35 q 148 62 144 52 q 157 183 157 99 l 157 709 z "},"":{"ha":382,"x_min":-16,"x_max":366,"o":"m 241 183 q 252 62 241 104 q 288 44 255 53 q 334 35 320 35 q 339 19 338 35 q 338 -4 340 3 q 193 3 202 3 q 45 -4 184 3 q 39 18 39 1 q 45 35 39 35 q 93 44 61 35 q 127 62 125 53 q 137 157 137 102 l 137 414 q 118 487 137 467 q 85 509 104 503 q 52 515 65 515 q 39 518 39 515 q 47 552 39 551 q 235 587 191 574 q 239 588 236 587 q 241 589 241 589 q 248 577 247 589 q 248 560 250 566 q 241 463 241 506 l 241 183 z "},"":{"ha":431,"x_min":43,"x_max":410,"o":"m 157 709 q 148 830 157 793 q 109 850 144 841 q 57 859 75 859 q 52 876 52 859 q 57 898 52 892 q 220 891 213 891 q 377 898 241 891 q 380 878 380 890 q 374 859 380 859 q 326 849 361 859 q 288 830 290 840 q 275 704 275 783 l 275 189 q 288 62 275 110 q 326 44 290 53 q 374 35 361 35 q 380 15 380 35 q 377 -4 380 4 q 220 3 241 3 q 57 -4 213 3 q 52 16 52 1 q 57 35 52 35 q 109 43 75 35 q 148 62 144 52 q 157 183 157 99 l 157 709 m 43 1019 q 62 1072 43 1072 l 401 1072 q 410 1062 410 1072 q 400 1016 410 1044 q 396 1010 399 1012 q 391 1006 393 1008 l 389 1006 l 53 1006 q 50 1006 52 1006 q 46 1010 49 1006 q 43 1019 43 1013 z "},"":{"ha":382,"x_min":8,"x_max":338,"o":"m 241 183 q 252 62 241 104 q 288 44 255 53 q 334 35 320 35 q 339 19 338 35 q 338 -4 340 3 q 193 3 202 3 q 45 -4 184 3 q 39 18 39 1 q 45 35 39 35 q 93 44 61 35 q 127 62 125 53 q 137 157 137 102 l 137 414 q 118 487 137 467 q 85 509 104 503 q 52 515 65 515 q 39 518 39 515 q 47 552 39 551 q 235 587 191 574 q 239 588 236 587 q 241 589 241 589 q 248 577 247 589 q 248 560 250 566 q 241 463 241 506 l 241 183 m 8 708 q 24 758 8 758 l 307 758 q 313 749 313 758 q 305 705 313 735 q 302 699 304 701 q 298 696 300 697 l 296 696 l 16 696 q 11 699 16 696 q 8 708 8 703 z "},"":{"ha":431,"x_min":52,"x_max":380,"o":"m 157 709 q 148 830 157 793 q 109 850 144 841 q 57 859 75 859 q 52 876 52 859 q 57 898 52 892 q 220 891 213 891 q 377 898 241 891 q 380 878 380 890 q 374 859 380 859 q 326 849 361 859 q 288 830 290 840 q 275 704 275 783 l 275 189 q 288 62 275 110 q 326 44 290 53 q 374 35 361 35 q 380 15 380 35 q 377 -4 380 4 q 220 3 241 3 q 57 -4 213 3 q 52 16 52 1 q 57 35 52 35 q 109 43 75 35 q 148 62 144 52 q 157 183 157 99 l 157 709 m 148 1069 q 164 1059 148 1069 q 224 1048 180 1048 q 300 1069 267 1048 q 342 1127 332 1090 q 347 1130 342 1130 q 363 1124 354 1130 q 372 1115 372 1119 l 372 1111 q 370 1105 370 1107 q 319 1020 361 1057 q 224 983 277 983 q 128 1019 170 983 q 77 1107 87 1055 q 76 1112 77 1108 l 76 1115 q 85 1124 76 1119 q 100 1130 94 1130 q 106 1127 106 1130 q 148 1069 115 1090 z "},"":{"ha":382,"x_min":22,"x_max":338,"o":"m 241 183 q 252 62 241 104 q 288 44 255 53 q 334 35 320 35 q 339 19 338 35 q 338 -4 340 3 q 193 3 202 3 q 45 -4 184 3 q 39 18 39 1 q 45 35 39 35 q 93 44 61 35 q 127 62 125 53 q 137 157 137 102 l 137 414 q 118 487 137 467 q 85 509 104 503 q 52 515 65 515 q 39 518 39 515 q 47 552 39 551 q 235 587 191 574 q 239 588 236 587 q 241 589 241 589 q 248 577 247 589 q 248 560 250 566 q 241 463 241 506 l 241 183 m 95 764 q 111 750 95 764 q 170 736 127 736 q 244 764 212 736 q 288 834 277 791 q 293 838 288 838 q 309 832 300 838 q 317 821 317 826 l 317 815 q 316 810 316 811 q 265 714 307 754 q 170 674 224 674 q 74 713 115 674 q 23 811 33 753 q 22 817 23 812 l 22 821 q 31 832 22 826 q 46 838 39 838 q 52 834 52 838 q 95 764 62 791 z "},"":{"ha":471,"x_min":66,"x_max":395,"o":"m 235 891 q 392 898 256 891 q 395 878 395 890 q 389 859 395 859 q 340 849 376 859 q 302 830 305 840 q 290 704 290 783 l 290 189 q 302 62 290 110 q 340 44 305 53 q 389 35 376 35 q 395 15 395 35 q 392 -4 395 4 q 320 0 331 0 q 220 -79 266 -33 q 175 -165 175 -125 q 187 -205 175 -187 q 231 -224 199 -224 q 286 -211 260 -224 q 326 -185 312 -198 q 340 -172 339 -172 q 346 -190 346 -172 q 340 -214 346 -208 q 198 -304 273 -304 q 125 -270 148 -304 q 102 -199 102 -236 q 149 -94 102 -149 q 259 3 197 -39 l 235 3 q 72 -4 228 3 q 66 16 66 1 q 72 35 66 35 q 124 43 90 35 q 163 62 159 52 q 172 183 172 99 l 172 709 q 163 830 172 793 q 124 850 159 841 q 72 859 90 859 q 66 876 66 859 q 72 898 66 892 q 235 891 228 891 z "},"":{"ha":438,"x_min":66,"x_max":365,"o":"m 72 -4 q 66 18 66 1 q 72 35 66 35 q 120 44 88 35 q 155 62 152 53 q 164 157 164 102 l 164 414 q 145 487 164 467 q 112 509 132 503 q 79 515 92 515 q 66 518 66 515 q 75 552 66 551 q 262 587 218 574 q 266 588 263 587 q 269 589 269 589 q 275 577 274 589 q 275 560 277 566 q 269 463 269 506 l 269 183 q 279 62 269 104 q 315 44 282 53 q 361 35 347 35 q 366 19 365 35 q 365 -4 368 3 q 340 -3 358 -4 q 315 -1 321 -3 q 216 -81 260 -35 q 172 -165 172 -126 q 184 -205 172 -187 q 228 -224 197 -224 q 283 -211 258 -224 q 323 -185 309 -198 q 338 -172 336 -172 q 343 -190 343 -172 q 338 -214 343 -208 q 195 -304 270 -304 q 122 -270 145 -304 q 99 -199 99 -236 q 146 -95 99 -149 q 256 1 193 -41 q 239 2 251 1 q 220 3 227 3 q 72 -4 212 3 m 166 756 q 156 766 166 756 q 146 804 146 776 q 166 852 146 833 q 214 872 186 872 q 262 852 243 872 q 282 804 282 833 q 262 756 282 776 q 214 736 243 736 q 166 756 186 736 z "},"":{"ha":431,"x_min":52,"x_max":380,"o":"m 157 709 q 148 830 157 793 q 109 850 144 841 q 57 859 75 859 q 52 876 52 859 q 57 898 52 892 q 220 891 213 891 q 377 898 241 891 q 380 878 380 890 q 374 859 380 859 q 326 849 361 859 q 288 830 290 840 q 275 704 275 783 l 275 189 q 288 62 275 110 q 326 44 290 53 q 374 35 361 35 q 380 15 380 35 q 377 -4 380 4 q 220 3 241 3 q 57 -4 213 3 q 52 16 52 1 q 57 35 52 35 q 109 43 75 35 q 148 62 144 52 q 157 183 157 99 l 157 709 m 176 1007 q 166 1017 176 1007 q 156 1055 156 1027 q 176 1103 156 1084 q 224 1123 195 1123 q 272 1103 252 1123 q 292 1055 292 1084 q 272 1007 292 1027 q 224 987 252 987 q 176 1007 195 987 z "},"":{"ha":382,"x_min":39,"x_max":339,"o":"m 241 183 q 252 62 241 104 q 288 44 255 53 q 334 35 320 35 q 339 19 338 35 q 338 -4 340 3 q 193 3 202 3 q 45 -4 184 3 q 39 18 39 1 q 45 35 39 35 q 93 44 61 35 q 127 62 125 53 q 137 157 137 102 l 137 414 q 118 487 137 467 q 85 509 104 503 q 52 515 65 515 q 39 518 39 515 q 47 552 39 551 q 235 587 191 574 q 239 588 236 587 q 241 589 241 589 q 248 577 247 589 q 248 560 250 566 q 241 463 241 506 l 241 183 z "},"":{"ha":868,"x_min":90,"x_max":644,"o":"m 195 709 q 186 830 195 793 q 147 850 182 841 q 95 859 113 859 q 90 876 90 859 q 95 898 90 892 q 258 891 251 891 q 415 898 279 891 q 418 878 418 890 q 412 859 418 859 q 363 849 399 859 q 326 830 328 840 q 313 704 313 783 l 313 189 q 326 62 313 110 q 363 44 328 53 q 412 35 399 35 q 418 15 418 35 q 415 -4 418 4 q 258 3 279 3 q 95 -4 251 3 q 90 16 90 1 q 95 35 90 35 q 147 43 113 35 q 186 62 182 52 q 195 183 195 99 l 195 709 m 484 890 q 537 891 511 890 q 593 895 563 892 q 642 898 623 897 q 644 878 644 890 q 639 859 644 859 q 590 849 625 859 q 552 830 555 840 q 540 704 540 783 l 540 115 q 444 -182 540 -56 q 201 -308 349 -308 q 168 -302 186 -308 q 140 -292 151 -297 l 130 -286 q 114 -236 114 -267 q 139 -187 114 -206 q 198 -168 164 -168 q 253 -197 222 -168 q 301 -227 283 -227 q 340 -208 320 -227 q 378 -152 359 -189 q 410 -48 397 -115 q 422 104 422 19 l 422 709 q 412 830 422 793 q 374 850 408 841 q 321 859 339 859 q 316 876 316 859 q 321 898 316 892 q 393 893 339 897 q 484 890 448 890 z "},"":{"ha":704,"x_min":80,"x_max":581,"o":"m 172 756 q 162 766 172 756 q 152 804 152 776 q 172 852 152 833 q 220 872 191 872 q 268 852 248 872 q 288 804 288 833 q 268 756 288 776 q 220 736 248 736 q 172 756 191 736 m 282 183 q 293 62 282 104 q 328 44 296 53 q 374 35 361 35 q 380 19 378 35 q 378 -4 381 3 q 233 3 243 3 q 85 -4 224 3 q 80 18 80 1 q 85 35 80 35 q 134 44 102 35 q 168 62 165 53 q 178 157 178 102 l 178 414 q 159 487 178 467 q 125 509 145 503 q 93 515 106 515 q 80 518 80 515 q 88 552 80 551 q 275 587 232 574 l 278 589 q 282 589 281 589 q 289 577 288 589 q 289 560 290 566 q 282 463 282 506 l 282 183 m 469 414 q 450 487 469 467 q 417 509 437 503 q 385 515 397 515 q 372 518 372 515 q 380 552 372 551 q 567 587 524 574 q 571 588 568 587 q 574 589 574 589 q 581 577 579 589 q 581 560 582 566 q 574 463 574 506 l 574 92 q 521 -163 574 -80 q 435 -256 487 -216 q 339 -313 382 -297 q 321 -293 327 -305 q 321 -283 319 -286 l 338 -275 q 375 -247 354 -267 q 418 -193 396 -227 q 454 -92 439 -159 q 469 61 469 -26 l 469 414 m 454 756 q 444 766 454 756 q 434 804 434 776 q 454 852 434 833 q 502 872 473 872 q 550 852 530 872 q 570 804 570 833 q 550 756 570 776 q 502 736 530 736 q 454 756 473 736 z "},"":{"ha":437,"x_min":-129,"x_max":401,"o":"m 241 890 q 294 891 269 890 q 350 895 320 892 q 399 898 380 897 q 401 878 401 890 q 396 859 401 859 q 347 849 382 859 q 309 830 312 840 q 297 704 297 783 l 297 115 q 201 -182 297 -56 q -42 -308 106 -308 q -75 -302 -57 -308 q -103 -292 -92 -297 l -113 -286 q -129 -236 -129 -267 q -104 -187 -129 -206 q -45 -168 -79 -168 q 10 -197 -20 -168 q 58 -227 41 -227 q 97 -208 77 -227 q 136 -152 117 -189 q 167 -48 155 -115 q 179 104 179 19 l 179 709 q 170 830 179 793 q 131 850 165 841 q 79 859 96 859 q 73 876 73 859 q 79 898 73 892 q 151 893 96 897 q 241 890 205 890 m 384 987 q 241 1066 358 987 q 161 1015 209 1042 q 102 987 114 987 q 88 1015 88 987 q 123 1046 94 1020 q 171 1090 152 1073 q 228 1153 209 1126 q 241 1164 237 1164 q 256 1153 250 1164 q 312 1088 285 1115 q 351 1053 330 1072 q 384 1025 372 1035 q 396 1015 396 1016 q 384 987 396 987 z "},"":{"ha":358,"x_min":31,"x_max":350,"o":"m 340 633 q 288 664 330 633 q 214 723 245 694 q 144 664 184 694 q 92 633 103 633 q 80 665 80 633 q 110 699 84 670 q 153 750 136 728 q 203 822 183 787 q 214 836 212 836 q 228 822 221 836 q 277 747 260 769 q 310 708 292 728 q 339 677 328 688 q 350 665 350 666 q 340 633 350 633 m 179 414 q 160 487 179 467 q 127 509 146 503 q 94 515 107 515 q 81 518 81 515 q 90 552 81 551 q 277 587 233 574 l 279 589 q 283 589 282 589 q 290 577 289 589 q 290 560 292 566 q 283 463 283 506 l 283 92 q 231 -163 283 -80 q 144 -256 197 -216 q 49 -313 92 -297 q 33 -293 38 -307 q 31 -283 28 -286 l 47 -275 q 85 -247 64 -267 q 127 -193 106 -227 q 164 -92 149 -159 q 179 61 179 -26 l 179 414 z "},"":{"ha":940,"x_min":56,"x_max":932,"o":"m 224 890 q 277 891 251 890 q 332 895 302 892 q 381 898 362 897 q 383 876 384 892 q 378 859 382 859 q 330 849 365 859 q 292 830 294 840 q 279 704 279 783 l 279 483 l 289 475 l 298 475 q 377 514 342 475 q 610 789 536 692 q 643 841 643 829 q 566 864 643 864 q 560 876 560 864 q 563 898 560 888 q 609 895 581 897 q 662 891 637 892 q 708 890 686 890 q 785 893 742 890 q 845 898 829 897 q 847 878 848 892 q 842 864 846 864 q 718 807 760 854 l 445 490 q 454 453 434 477 l 781 94 q 838 56 803 71 q 893 38 873 41 q 925 35 913 35 q 932 11 932 35 q 929 -4 932 1 q 761 3 793 3 q 700 1 727 3 q 639 -1 673 0 q 578 -4 605 -3 q 572 18 572 1 q 578 35 572 35 q 615 41 594 35 q 636 57 636 46 q 328 416 636 100 q 289 422 323 422 q 279 411 279 422 l 279 189 q 292 62 279 110 q 330 44 294 53 q 378 35 365 35 q 383 19 382 35 q 381 -4 384 3 q 224 3 245 3 q 61 -4 217 3 q 56 16 56 1 q 61 35 56 35 q 113 43 79 35 q 152 62 148 52 q 161 183 161 99 l 161 709 q 152 830 161 793 q 113 850 148 841 q 61 859 79 859 q 56 876 56 859 q 61 898 56 892 q 133 893 79 897 q 224 890 187 890 m 407 -137 q 433 -85 407 -107 q 514 -62 458 -62 q 535 -94 526 -72 q 544 -134 544 -117 q 433 -305 544 -243 q 422 -308 430 -308 q 395 -298 395 -308 l 426 -269 q 457 -218 457 -237 q 432 -179 457 -201 q 407 -137 407 -157 z "},"":{"ha":673,"x_min":19,"x_max":678,"o":"m 525 499 q 437 435 502 486 q 324 335 372 384 q 420 229 363 293 q 514 124 477 164 q 564 72 551 84 q 623 43 587 53 q 673 33 658 33 q 678 11 678 33 q 677 -4 678 -1 q 529 3 541 3 q 388 -4 526 3 q 382 17 382 1 q 388 33 382 33 q 419 38 401 33 q 437 50 437 43 q 435 54 437 53 l 237 269 l 221 264 l 221 183 q 232 62 224 94 q 267 44 235 53 q 313 35 300 35 q 319 19 317 35 q 317 -4 320 3 q 172 3 182 3 q 24 -4 164 3 q 19 18 19 1 q 24 35 19 35 q 73 44 41 35 q 107 62 104 53 q 117 157 117 102 l 117 745 q 109 831 117 791 q 39 853 102 853 l 27 853 q 19 868 19 853 q 27 890 19 890 q 102 901 68 894 q 157 914 137 907 q 190 927 176 921 q 209 937 203 933 l 216 941 l 218 941 q 229 934 224 941 q 236 920 235 926 q 221 802 221 876 l 221 327 q 255 339 250 334 q 317 392 285 365 q 366 433 350 419 q 397 460 382 446 q 418 481 412 473 q 423 498 423 490 q 393 517 423 514 q 362 522 363 519 q 363 553 353 549 l 471 553 q 513 555 491 553 q 566 557 536 556 q 620 560 597 559 q 626 548 625 557 q 624 530 627 538 q 618 522 621 522 q 568 514 601 522 q 525 499 536 506 m 273 -137 q 298 -85 273 -107 q 380 -62 324 -62 q 401 -94 392 -72 q 410 -134 410 -117 q 298 -305 410 -243 q 288 -308 296 -308 q 260 -298 260 -308 l 292 -269 q 323 -218 323 -237 q 298 -179 323 -201 q 273 -137 273 -157 z "},"":{"ha":800,"x_min":68,"x_max":723,"o":"m 304 339 q 352 379 323 355 q 397 417 381 403 q 435 449 414 431 q 468 477 456 467 q 492 499 480 488 q 508 517 503 510 q 513 528 513 524 q 483 547 513 544 q 452 552 453 549 q 453 583 442 579 l 560 583 q 604 585 582 583 q 656 587 625 586 q 708 590 686 589 q 712 553 722 582 q 692 551 711 551 q 613 529 642 547 q 517 451 600 519 q 384 336 434 382 q 477 225 425 289 q 564 122 530 161 q 609 72 597 83 q 666 43 631 53 q 718 33 701 33 q 723 11 723 33 q 722 -4 723 -1 q 574 3 586 3 q 433 -4 572 3 q 427 17 427 1 q 433 33 427 33 q 464 38 446 33 q 481 50 481 43 q 480 54 481 53 l 286 269 l 270 264 l 270 183 q 281 62 267 113 q 316 44 283 53 q 362 35 349 35 q 368 19 366 35 q 366 -4 369 3 q 221 3 231 3 q 73 -4 212 3 q 68 18 68 1 q 73 35 68 35 q 121 44 90 35 q 156 62 153 53 q 165 157 165 102 l 165 392 q 157 479 165 438 q 88 500 151 500 l 76 500 q 68 515 68 500 q 76 537 68 537 q 151 548 117 541 q 205 562 186 555 q 239 574 225 568 q 258 585 252 581 l 264 589 l 267 589 q 278 581 273 589 q 285 567 283 574 q 270 449 270 524 l 270 327 q 304 339 298 334 z "},"":{"ha":770,"x_min":49,"x_max":753,"o":"m 218 890 q 271 891 245 890 q 327 895 297 892 q 376 898 357 897 q 378 878 378 890 q 373 859 378 859 q 324 849 359 859 q 286 830 289 840 q 274 704 274 783 l 274 193 q 286 73 274 121 q 378 60 290 60 l 444 60 q 614 83 570 60 q 660 131 635 94 q 700 220 685 168 q 719 228 703 228 q 753 220 745 228 q 732 163 746 202 q 709 101 718 125 q 692 46 701 77 q 680 -5 682 15 q 459 -1 609 -5 q 217 3 309 3 l 53 -1 q 49 20 49 3 q 53 38 49 38 q 106 46 72 38 q 146 66 140 54 q 156 194 156 83 l 156 707 q 146 830 156 793 q 108 850 142 841 q 56 859 73 859 q 50 876 50 859 q 56 898 50 892 q 127 893 73 897 q 218 890 182 890 m 167 1005 q 229 1076 167 1015 q 328 1164 292 1137 q 353 1168 336 1168 q 406 1155 388 1168 q 423 1127 423 1142 q 315 1042 423 1096 q 180 987 206 987 q 167 1005 167 987 z "},"":{"ha":340,"x_min":20,"x_max":351,"o":"m 118 157 l 118 745 q 110 831 118 791 q 41 853 103 853 l 28 853 q 20 868 20 853 q 28 890 20 890 q 104 901 69 894 q 158 914 138 907 q 191 927 178 921 q 212 937 205 933 l 217 941 l 220 941 q 231 934 225 941 q 237 920 236 926 q 222 802 222 876 l 222 183 q 233 62 222 104 q 269 44 236 53 q 315 35 301 35 q 320 19 319 35 q 319 -4 321 3 q 174 3 183 3 q 26 -4 165 3 q 20 18 20 1 q 26 35 20 35 q 74 44 42 35 q 109 62 106 53 q 118 157 118 102 m 95 1005 q 157 1076 95 1015 q 256 1164 220 1137 q 281 1168 264 1168 q 334 1155 316 1168 q 351 1127 351 1142 q 243 1042 351 1096 q 109 987 134 987 q 95 1005 95 987 z "},"":{"ha":770,"x_min":49,"x_max":753,"o":"m 218 890 q 271 891 245 890 q 327 895 297 892 q 376 898 357 897 q 378 878 378 890 q 373 859 378 859 q 324 849 359 859 q 286 830 289 840 q 274 704 274 783 l 274 193 q 286 73 274 121 q 378 60 290 60 l 444 60 q 614 83 570 60 q 660 131 635 94 q 700 220 685 168 q 719 228 703 228 q 753 220 745 228 q 732 163 746 202 q 709 101 718 125 q 692 46 701 77 q 680 -5 682 15 q 459 -1 609 -5 q 217 3 309 3 l 53 -1 q 49 20 49 3 q 53 38 49 38 q 106 46 72 38 q 146 66 140 54 q 156 194 156 83 l 156 707 q 146 830 156 793 q 108 850 142 841 q 56 859 73 859 q 50 876 50 859 q 56 898 50 892 q 127 893 73 897 q 218 890 182 890 m 345 -137 q 370 -85 345 -107 q 452 -62 396 -62 q 473 -94 464 -72 q 481 -134 481 -117 q 370 -305 481 -243 q 359 -308 368 -308 q 332 -298 332 -308 l 363 -269 q 395 -218 395 -237 q 370 -179 395 -201 q 345 -137 345 -157 z "},"":{"ha":340,"x_min":20,"x_max":319,"o":"m 118 157 l 118 745 q 110 831 118 791 q 41 853 103 853 l 28 853 q 20 868 20 853 q 28 890 20 890 q 104 901 69 894 q 158 914 138 907 q 191 927 178 921 q 212 937 205 933 l 217 941 l 220 941 q 231 934 225 941 q 237 920 236 926 q 222 802 222 876 l 222 183 q 233 62 222 104 q 269 44 236 53 q 315 35 301 35 q 320 19 319 35 q 319 -4 321 3 q 174 3 183 3 q 26 -4 165 3 q 20 18 20 1 q 26 35 20 35 q 74 44 42 35 q 109 62 106 53 q 118 157 118 102 m 103 -137 q 129 -85 103 -107 q 210 -62 155 -62 q 231 -94 222 -72 q 240 -134 240 -117 q 129 -305 240 -243 q 118 -308 126 -308 q 91 -298 91 -308 l 122 -269 q 153 -218 153 -237 q 128 -179 153 -201 q 103 -137 103 -157 z "},"":{"ha":770,"x_min":49,"x_max":753,"o":"m 218 890 q 271 891 245 890 q 327 895 297 892 q 376 898 357 897 q 378 878 378 890 q 373 859 378 859 q 324 849 359 859 q 286 830 289 840 q 274 704 274 783 l 274 193 q 286 73 274 121 q 378 60 290 60 l 444 60 q 614 83 570 60 q 660 131 635 94 q 700 220 685 168 q 719 228 703 228 q 753 220 745 228 q 732 163 746 202 q 709 101 718 125 q 692 46 701 77 q 680 -5 682 15 q 459 -1 609 -5 q 217 3 309 3 l 53 -1 q 49 20 49 3 q 53 38 49 38 q 106 46 72 38 q 146 66 140 54 q 156 194 156 83 l 156 707 q 146 830 156 793 q 108 850 142 841 q 56 859 73 859 q 50 876 50 859 q 56 898 50 892 q 127 893 73 897 q 218 890 182 890 m 636 871 q 661 921 636 902 q 728 940 686 940 q 749 856 749 916 q 712 759 749 814 q 647 688 675 704 q 637 686 646 686 q 625 692 632 686 q 618 704 618 699 l 631 715 q 654 749 642 727 q 666 799 666 772 q 651 829 666 807 q 636 871 636 850 z "},"":{"ha":340,"x_min":20,"x_max":410,"o":"m 118 157 l 118 745 q 110 831 118 791 q 41 853 103 853 l 28 853 q 20 868 20 853 q 28 890 20 890 q 104 901 69 894 q 158 914 138 907 q 191 927 178 921 q 212 937 205 933 l 217 941 l 220 941 q 231 934 225 941 q 237 920 236 926 q 222 802 222 876 l 222 183 q 233 62 222 104 q 269 44 236 53 q 315 35 301 35 q 320 19 319 35 q 319 -4 321 3 q 174 3 183 3 q 26 -4 165 3 q 20 18 20 1 q 26 35 20 35 q 74 44 42 35 q 109 62 106 53 q 118 157 118 102 m 297 871 q 322 921 297 902 q 389 940 347 940 q 410 856 410 916 q 373 759 410 814 q 308 688 336 704 q 298 686 307 686 q 286 692 293 686 q 279 704 279 699 l 292 715 q 315 749 302 727 q 327 799 327 772 q 312 829 327 807 q 297 871 297 850 z "},"":{"ha":770,"x_min":49,"x_max":753,"o":"m 218 890 q 271 891 245 890 q 327 895 297 892 q 376 898 357 897 q 378 878 378 890 q 373 859 378 859 q 324 849 359 859 q 286 830 289 840 q 274 704 274 783 l 274 193 q 286 73 274 121 q 378 60 290 60 l 444 60 q 614 83 570 60 q 660 131 635 94 q 700 220 685 168 q 719 228 703 228 q 753 220 745 228 q 732 163 746 202 q 709 101 718 125 q 692 46 701 77 q 680 -5 682 15 q 459 -1 609 -5 q 217 3 309 3 l 53 -1 q 49 20 49 3 q 53 38 49 38 q 106 46 72 38 q 146 66 140 54 q 156 194 156 83 l 156 707 q 146 830 156 793 q 108 850 142 841 q 56 859 73 859 q 50 876 50 859 q 56 898 50 892 q 127 893 73 897 q 218 890 182 890 m 542 378 q 532 388 542 378 q 522 426 522 397 q 542 474 522 454 q 590 494 562 494 q 638 474 618 494 q 658 426 658 454 q 638 378 658 397 q 590 358 618 358 q 542 378 562 358 z "},"":{"ha":583,"x_min":52,"x_max":529,"o":"m 149 157 l 149 745 q 141 831 149 791 q 72 853 134 853 l 60 853 q 52 868 52 853 q 60 890 52 890 q 135 901 100 894 q 189 914 170 907 q 222 927 209 921 q 243 937 236 933 l 248 941 l 251 941 q 262 934 256 941 q 269 920 267 926 q 254 802 254 876 l 254 183 q 264 62 254 104 q 300 44 267 53 q 346 35 332 35 q 351 19 350 35 q 350 -4 353 3 q 205 3 214 3 q 57 -4 197 3 q 52 18 52 1 q 57 35 52 35 q 105 44 73 35 q 140 62 137 53 q 149 157 149 102 m 413 351 q 403 360 413 351 q 393 399 393 370 q 413 447 393 427 q 461 467 433 467 q 509 447 490 467 q 529 399 529 427 q 509 351 529 370 q 461 331 490 331 q 413 351 433 331 z "},"":{"ha":836,"x_min":71,"x_max":774,"o":"m 240 890 q 293 891 267 890 q 349 895 319 892 q 397 898 378 897 q 400 878 400 890 q 395 859 400 859 q 346 849 381 859 q 308 830 311 840 q 296 704 296 783 l 296 434 l 549 606 q 567 583 556 600 q 574 564 578 567 l 296 380 l 296 193 q 308 73 296 121 q 400 60 312 60 l 465 60 q 636 83 591 60 q 682 131 656 94 q 722 220 707 168 q 741 228 724 228 q 774 220 766 228 q 753 163 768 202 q 731 101 739 125 q 713 46 723 77 q 701 -5 704 15 q 481 -1 631 -5 q 239 3 331 3 l 75 -1 q 71 20 71 3 q 75 38 71 38 q 127 46 94 38 q 168 66 161 54 q 178 194 178 83 l 178 298 l 98 241 q 80 264 90 250 q 75 281 71 278 l 178 353 l 178 707 q 168 830 178 793 q 130 850 164 841 q 77 859 95 859 q 72 876 72 859 q 77 898 72 892 q 149 893 95 897 q 240 890 203 890 z "}}}
